<?xml version="1.0" encoding="UTF-8"?>
<svg id="Camada_1" data-name="Camada 1" xmlns="http://www.w3.org/2000/svg" viewBox="0 0 776.9541067421 986.6983432552">
  <defs>
    <style>
      .cls-1 {
        fill: #ff804c;
      }

      .cls-2 {
        fill: #444f75;
      }
    </style>
  </defs>
  <path class="cls-2" d="M133.6688173192,186.6078996163c-1.743318953-.4358401293-1.9975521011.7263725061-3.0144985481,1.4890996596-3.8861510972,2.9781716099-12.8569928652,11.6584532917-16.4889108144,15.435651284-3.7771979923,3.9224780353-4.9394106276,13.4744122663-3.3050447796,18.341196727.3995131912,1.1258856973,5.992670158,4.5762243746,7.6633490895,7.3001628364,5.2662837972,8.5713285768,2.7602515453,20.5203419547-6.2832163895,25.2781456011-17.070017132,8.9708417679-34.7211405817-9.9514474221-23.8980267558-25.8955650022,1.59803891-2.3607522088,6.8643227072-5.5931569668,7.2638358983-6.7190426641,2.0701921227-6.0289970961-2.6512984403-17.2516102586,2.6876253784-23.2442804166l61.8515720955-59.8176930563-.5811201723-72.8562651934-23.7164197746,22.6268471608-.0363130834,18.5954160204c27.1667445972,17.6511234497-7.9175822376,49.575685548-23.5348266481,25.5323787492-6.5374495376-10.0604143818-.4358262746-20.5929681216,8.2444554072-26.5856382795l.6900594227-24.2248860707,37.8445783801-35.9559932386c2.1791452276-3.0871247149,1.9249120796-7.4091159414,1.0895864685-11.0047069525l-3.0144985481-.9806195088c-41.4038701624,4.1040711619-107.4684526701-16.7794570459-120.9428649364,38.716244784-1.9975521011,234.2223807833-2.3244252707,469.243787949.1815931265,703.4298417942,5.2662837972,22.3726278674,23.171640395,36.2102263867,45.8711275773,37.8809330275l460.6724455175.0726538762,3.5956187204,1.5616981172c.1452523338,7.5906952133-.2905600862,15.217745074-.0726538762,22.8084402873.0726538762,2.5423314807,2.179172937,6.3921556398.0726538762,7.953853757l-7.4454428795,1.5254543071c-148.9449351447-.8716248398-297.8898979988,1.0532872397-446.8348608529-.0725984575-36.0649463436-.2905046675-63.2316909409-7.9175545282-81.7544738671-41.8397102917-15.2903781682-28.0384110011-9.2977080102-81.8271069613-9.4066680425-114.1875091889-.0363200108-7.0095750409,0-14.0192055005,0-21.0287805415C.6316451071,482.5003147873.1594988217,294.5485609178,1.067478309,105.2166604936c.0726400215-15.1814181359-1.5617258265-30.2538831668,2.433385303-45.3263343431C11.9269121458,28.1110440953,41.3454419922,2.8692115776,74.2506235993,0l366.5331666346.5084662961,5.4841761525,3.4866379061c44.3093878961,44.7452210981,89.454156822,89.1272628704,133.6182923844,133.6545846858,16.1257245613,16.2710046044,33.2320270674,32.1061690795,48.8492853326,48.8856122707,4.3582904553,4.6851774795,14.7819326541,14.7455780066,15.4719505127,20.4476880785l-.4721670674,421.4840613755c-1.5616981172,2.2517713945-9.5882611691-.1452523338-12.8933198033.0362992288-3.3776570918.1816069812-19.8665956155,5.6657831337-20.5929681216,4.9031113988-1.5253988884-18.3048420796-1.1985395735-36.9729535403-1.053231821-55.3867487248.0362992288-2.6149853569,1.053231821-5.0483637326,1.0895864685-7.8812552995.9806333635-114.5507231513-.4721670674-229.1013908839-1.1622403447-343.5431055115-1.4164457834-.1816069812-2.9418446718-.9079794873-4.3582904553-.9079794873-42.0576165016,0-89.0546436309,3.6682448873-130.6763922939.8353533204-20.2661088066-1.3801188453-39.8421443359-12.094293421-49.212499295-30.5807424818-1.3437919072-2.6876115238-6.1015955536-15.5809313271-6.1015955536-17.8327027216V35.4837915346l-1.4890996596-1.489085805h-146.5842106452l-1.3438196166,1.6706789315c-.0726261669,3.2687316961-1.1985395735,7.953895321,1.2711657403,10.3872875514l41.9123364585,23.8980129011.6900732773,27.2393846188c2.4333783757,3.1960916746,5.883717053,4.1403842453,7.9902084044,7.953895321,4.7578036464,8.6439685983,2.2154721657,20.9561682293-7.1912097315,25.1328794127-22.9537203304,10.2420075083-37.1545051028-20.7745751027-15.9441175801-32.1424683083l.0363269381-20.5566550381-28.9463904884-15.6172444105v58.3285933967l77.577769611,76.996677148.6900732773,122.9767439756c15.5809313271,7.6633490895,13.5470661425,32.4693553326-4.0677580784,34.7937806033-21.6462276519,2.869218505-29.2006236364-23.6437936077-11.2952670387-34.248987369l.9079794873-115.7492350154-77.9046012166-79.5753355668c-1.2348388022-29.1642966983-1.3801188453-58.9823397359.1816069812-88.1466502889.2905600862-5.4841900072-9.1524210398-3.1597647365-12.9659459702-2.9055315884l-.9443064254,2.0701921227.21790621,129.4415534917,55.1325155768,54.5877223425.6900732773,33.2320547768c19.031242295,11.8400602729,10.6415206994,38.1714654044-12.566432779,34.5032205171-12.457479674-1.9612390177-16.8157701293-19.2128492762-9.007168706-28.8011104453,1.8159589746-2.2154721657,5.0846906707-3.0144985481,6.1379502011-4.3219912265,1.7433328077-2.1065190608,1.9975659558-24.9149593481.7626994442-27.6388978099l-48.9582661469-47.8323527403-17.1063302155,15.108791969.2905600862,17.7237496166,34.9390606464,32.8688685237,2.3244252707,6.6464164972,1.0532595304,75.7618106364c12.675385884,5.7021100718,12.1669195878,26.0408450453.1452800431,31.9245620983-16.8884240055,8.2807684906-33.8131472398-10.0241012983-23.8253728796-25.8229388353,2.1791452276-3.4140117392,7.1912097315-5.1573168376,7.8086291326-8.1718153856v-70.7860730707l-22.9173933923-22.4452540342v28.4379241922c0,1.1258856973-2.1065190608,3.9587772641-2.9418446718,5.0483637326-7.1912097315,9.442981126-22.0820677812,19.2854754431-30.4354624387,28.4015972541-.472139358,9.116121811-.21790621,17.5784972828-9.116121811,22.7721133492-15.6535574939,9.1887479779-34.466893579-8.861888663-24.5154461569-24.5154461569,5.9200162818-9.2977010829,13.1112260133-8.861888663,23.1353273116-7.6996760276l28.4379241922-27.4936177668.7990263823-67.0452020166c7.1912097315-9.6245881072,18.1232628077-16.7431439624,25.6776587923-26.1861250884v-21.428321442c-1.5617258265-.2905600862-2.3244252707.1452800431-3.5229648442.9443064254-4.2493373503,2.7239384619-11.985340316,12.3848535071-16.3799577094,16.5252377525-3.4866379061,3.3050586342-21.68255459,18.8133360851-22.5178802011,21.3919945039l-.472139358,37.4813921271c.5084662961,2.7965646288,9.0797948729,6.0289970961,9.9877743602,14.9635119259,3.123451653,31.5250489072-47.9413058453,23.0990003735-33.7405210729-5.8110631768,2.4333783757-4.9394106276,6.464809516-6.0289970961,8.7892347868-10.1693813414l.5447932342-42.3481488785,57.1300815325-55.5683418514.2542331481-82.6261333436-1.5617258265-3.4503248226h-14.5640818628l-.7626994442,77.5414426729-62.8684908331,60.6893178962-.7263725061,90.035249285-37.3361397933,37.445065189c.5084662961,8.6076555149-.7626994442,16.5615369812-8.9345148298,20.9924813127-18.7406960635,10.1330544033-35.4112000044-13.6560192475-21.9731008215-27.9657571249,5.9200301365-6.3195294729,13.0748990751-5.5205030906,20.8835282077-4.9757375657l33.9221141994-32.9414946906v-68.3163677569ZM196.5009812142,33.994691875h-20.4476880785l-1.4890996596,1.489085805v89.2725359862c2.9781716099-1.1622126354,6.573762621-4.3219773718,8.9708417679-6.464809516,1.8885851415-1.6706789315,12.348526569-11.9126864398,12.7480397602-13.1838660348.6174194011-8.8982017464-.0726261669-17.8690435143.1452800431-26.7672314061.2542331481-8.9345148298,1.3074926784-18.9222891901,1.0895864685-27.893130958-.0726538762-5.4478630691-1.0532595304-11.0047069525-1.0169603016-16.4525838762ZM582.4285902516,191.5836094727L452.8054297787,61.9241359164v108.2311521143c0,3.5592917823,3.8135249304,11.7674063967,6.464809516,14.4913448586,2.1428182895,2.2154721657,10.2056805702,6.9369765834,13.0022729083,6.9369765834h110.1560780486Z"/>
  <path class="cls-1" d="M714.7030353101,669.6529868559c3.6319179492,3.6319179492,6.7190703734,11.7310794586,10.3509883226,14.0918593768,3.8135249304,2.4696776045,12.6754135933,2.8691907956,18.3048420796,5.6294839049,8.7165809105,4.2856365791,14.999838864,12.8569651558,16.3073315425,22.5905340773.7990263823,5.9200439911-.9442787161,15.7625105989.4721670674,20.4840150166.3632139624,1.1985395735,7.6996483183,8.752935558,9.4066541879,11.5494724774,7.7723021945,12.7843666983,5.6657831337,26.5856659889-2.7965923381,38.3530446762-1.5616981172,2.179172937-6.1015955536,5.6657831337-6.6101172685,7.3727890033-1.3074926784,4.3946451027.3268593149,13.4744399756-.21790621,18.7407099182-.6174194011,6.1742494299-3.9224780353,12.3484988597-7.9902084044,16.9610501724-1.8886128508,2.179172937-5.7021377812,3.341357863-5.9926424487,5.9926424487l31.0165549017,125.6643277901c-.0726538762,5.4115222763-4.6851497702,9.8424666078-10.3146336752,8.2444138432l-35.1569945657-17.4695164685-22.4089270961,36.1738717393c-11.876387211,7.9539091757-13.2201791182-3.5955633017-15.6899121414-12.2759004022-7.8812552995-27.6751970387-12.8206659271-59.1639744264-21.7188538188-86.0037904354-.2905600862-.8353810298-1.5616981172-6.9369765834-3.4866656154-4.9757098564l-27.3846369525,103.7639224087c-3.341357863,2.6875838144-7.7360029657,2.8692462143-10.9320530763-.108953105-4.3219912265-4.0677303691-12.5301058409-21.7551530476-16.7068447336-28.1473641061-2.5060322519-3.8498241591-3.8135249304-8.643982453-8.7892347868-7.2274812509-9.3703549591,2.6513400043-22.6268333061,13.5833376619-31.8519359314,16.0531261038-7.3727890033,1.961266727-12.3484988597-2.2517713945-10.7505015138-9.7335135028l31.2708157591-123.9573773391c-7.8086014232-7.6633490895-14.3460648155-15.217745074-14.6366249017-26.8761706564-.108953105-4.6488505414,2.0338651845-9.0797948729.7990263823-13.7286454144-.7990263823-3.123451653-8.2081146144-9.5882611691-10.5688945326-14.3460648155-6.5011087448-13.0022729083-4.7578036464-24.5154461569,3.450310968-36.1739271579,1.8522582034-2.6149853569,6.3195571823-5.6657831337,7.1548827934-8.7892347868,1.2711934497-4.9394106276-.9079794873-9.7698681503-.7627271535-14.6729241304.3632139624-12.1305926497,8.6802816818-24.4427922807,19.9755487204-28.9463904884,4.6125513127-1.8522582034,13.038572137-2.1065190608,16.3073315425-4.6488505414,2.2154721657-1.7433050984,5.0483637326-8.2807684906,7.6633490895-11.2952670387,7.9175545282-9.2250472067,19.0312700044-13.1838798895,31.1255080067-11.2589678099,4.6125513127.7263725061,12.3484988597,5.7021377812,16.1983784375,5.6294839049,2.9418446718-.0726538762,11.658481001-4.9757098564,16.1620237901-5.6294839049,10.5326507225-1.6344074121,21.21049836,1.4163903648,28.8011935733,8.9707863493ZM749.3878628084,743.7077916227c-9.2977010829-12.1669472972-3.0507977768-15.5083051602-4.3946451027-28.0021117723-1.9249120796-17.7963757835-19.3581293193-12.6390589459-28.8374373834-19.0312700044-6.6464164972-4.4672435602-8.535029348-14.6729241304-15.108791969-18.777009147-12.8206659271-8.0628622806-20.8835282077,4.2493373503-32.1424960176,4.0314311403-7.7360029657-.1452523338-14.1644578343-7.2638358983-23.0627011447-6.6464164972-13.9829062718,1.0169325923-14.4913725679,18.2322436221-25.0965663292,22.8084402873-7.6270498607,3.3050586342-16.4525838762.5084662961-22.6994871823,8.2081146144-8.0991615094,10.024073589-1.2711934497,20.1934549304-4.0314311403,30.8713025679-1.7070058696,6.6101172685-12.7480120509,12.3121996309-14.2734109393,21.6462553613-2.1428182895,13.4017860994,12.0579941922,17.7600765547,14.2734109393,26.1497981503,2.3244252707,8.861888663-2.4333783757,21.1014344177,3.0507977768,28.8737366122,6.1742494299,8.752935558,18.3774959558,6.1379502011,26.2951059027,11.6221263536,7.5180967557,5.1936160663,8.4623754718,16.3073315425,18.0143374121,19.9028948442,11.4042201436,4.249392769,18.5954021658-5.6657831337,28.3289710873-5.411577695,9.697214274.2542608574,15.7988652464,9.4429534166,27.7115516861,5.5931292575,9.5882611691-3.1233962344,10.7868007425-14.2371117105,16.7794431912-19.1038684619,8.3534223668-6.7553696022,25.2055194342-3.2687039868,29.7817160995-16.0893699139,2.7602376906-7.7360029657-.1816069812-12.9296190321.0726538762-19.7939417392.3995131912-11.4768740199,13.8012992906-15.6899121414,14.999838864-26.9851237614,1.1259411159-11.9126310211-3.8861233879-12.3121442123-9.6608596266-19.8665401968ZM623.7598342471,851.4304358769c-5.0846629614-5.5568300287-7.8449560707-16.488883105-16.9247509436-14.6003256729l-26.4040590077,106.7420663093c8.8981878917-1.9249120796,24.5517453857-15.326698179,33.1957278387-12.7480674695,4.6125513127,1.3801465547,12.5664604883,20.048147178,16.1983784375,24.6607539093.9442787161,1.1984841548,1.6707066408,2.3970791469,3.4140117392,2.0338651845l24.914959348-97.7349253126c-12.2759004022,3.5593194916-25.4960795204,1.3439027446-34.3942674121-8.3533669482ZM700.5748767046,860.8008462546c-3.8135249304.7990263823-12.4211527359,0-16.9610501724,0-.3268593149,0-1.4164457834-1.3801465547-2.4696776045-.9805779448l23.6074666696,95.5557523757,1.8159589746,3.1597508818c3.7771702829-4.3583458739,14.3097655867-26.295050484,18.341196727-27.4572908287,9.9514751314-2.8328915669,22.2636747624,9.7698681503,31.5250766165,12.5301612596,1.5980527646.4721670674,1.5616981172-.108953105,1.4890996596-1.4890996596l-26.4403582365-105.2529666497c-8.4623754718-1.9249120796-10.8594546187,8.1718708043-15.4719505127,13.4744399756-2.8330024042,3.232238502-11.4769848572,9.6608042079-15.4357621213,10.4598305902Z"/>
  <path class="cls-1" d="M543.167566088,434.3046926659c10.7868007425,11.5131732486,1.3801465547,29.9270238519-14.0555047293,29.6001091183H114.2017348949c-24.1522599038-1.2711934497-24.6243992619-33.885801116,0-34.9753875845h413.8933384529c5.193671485.690128696,11.3316216861,1.3801465547,15.0724927403,5.3752784662Z"/>
  <path class="cls-1" d="M111.5141095164,505.0181395698l417.5615971949-.3268593149c25.7139857304.6537186299,24.1159329657,34.7211267271-.9806333635,34.9753875845H114.2017071855c-21.9367600288-.2905600862-25.2054917249-31.6703843689-2.6875976691-34.6485282695Z"/>
  <path class="cls-1" d="M110.4971769241,580.816249435l420.5760957429-.2542608574c21.1740882939,1.3437919072,22.6994871823,32.033487494,1.0169325923,33.9584549922H110.2066029833c-19.2854615884-3.7771702829-18.7769952923-30.0722761856.2905739408-33.7041941348Z"/>
  <path class="cls-1" d="M711.688536762,717.5579934724c28.583176526,27.9294578961,22.9173933923,76.8876963337-12.6027597171,95.918966338-48.6313791226,26.0771442741-103.4007084464-17.9779827647-87.2749838851-71.3308663049,12.6754135933-41.9123641679,68.8974879292-54.8783378474,99.8777436022-24.5881000331ZM660.9506385786,716.4684070039c-49.4667047337,6.6464164972-48.6676783514,86.1490981878,4.6851497702,89.5267552796,66.2462033436,4.2493373503,65.2292707513-98.9334094674-4.6851497702-89.5267552796Z"/>
</svg>