<?xml version="1.0" encoding="UTF-8"?>
<svg id="Camada_1" data-name="Camada 1" xmlns="http://www.w3.org/2000/svg" viewBox="0 0 787.5771623385 994.6167100976">
  <defs>
    <style>
      .cls-1 {
        fill: #495173;
        stroke: #495173;
      }

      .cls-1, .cls-2 {
        stroke-miterlimit: 10;
        stroke-width: 5px;
      }

      .cls-2 {
        fill: #e27f50;
        stroke: #e27f50;
      }
    </style>
  </defs>
  <path class="cls-1" d="M575.2401224403,142.065998407h107.2727260097c26.7254359817,0,61.6168672718,42.6863737175,59.3897004079,69.7829333784v508.5248230292c8.1661369047,17.8169101224,21.5288548955,30.4372391586,29.694850204,49.7389271902,67.1847136334,159.2388200638-132.1422604029,295.4640073229-258.7166744443,177.4268538654-5.9389700408-5.1965810862-12.249205357-18.559299077-19.6728117108-19.6728117108-9.6508440158-1.8559015885-32.6643352244-.3711236792-43.7999571494,0-66.813448358,1.4847779093-137.3388414891,6.31009372-204.1522898471,2.2271668639-34.8915020882-2.2271668639-80.1761663488-25.6117817516-80.1761663488-65.6999357242v-69.7830041765h-99.1066599031c-27.4677541382,0-63.4728396584-35.2626965656-63.4728396584-63.4727688603l.3714068716-524.4858315632C64.8594686208,139.4677078639,122.7644619176,68.1999965763,186.6084960532,2.8712553295l326.6436354361-.3711944773c25.9830470271,1.1135834319,61.6168672718,35.6338202448,61.6168672718,61.2456727945v78.3202647604h.3711236792ZM549.9996059641,142.065998407V63.7457336466c0-17.0745211678-30.4372391586-38.6033052652-46.7693713717-38.6033052652H218.5305839192v174.0862451658c0,6.3101645181-13.3627179908,26.7253651836-18.559299077,31.1796281132-5.5677755635,4.8253866089-23.3846856859,13.3627179908-30.4372391586,13.3627179908H24.7715270426c.7423889546,3.711873975,2.2270960658,7.42374795,2.2270960658,11.5067456043,4.8253866089,158.1252366319-4.0830684523,316.9928622184,0,475.1180280521-1.1135834319,13.3627179908,22.271173052,38.6033760633,34.5203076109,38.6033760633h103.1897283555c0-7.7948716293-.3711944773-15.9610085339,0-23.7558801632,3.3406794977-111.355794462-1.1135834319-223.8251015579,2.2270960658-335.5521612954.7423889546-21.5287840974-1.1135834319-43.0575681948.3711944773-64.2151578149l181.881116795-203.4099008924s200.8115395513,0,200.8115395513-.0000707981ZM195.8881455917,31.4525928996l-6.3101645181,1.4847779093L30.3392318079,212.9625860154l-2.9694850204,6.3101645181h144.762518641c8.5372605839,0,24.1270746405-17.8169101224,24.1270746405-25.9830470271V31.4525928996h-.3711944773ZM716.6620323818,702.5568446922V207.7659341312c0-13.3627179908-22.6423675293-40.4592776517-36.3762091994-40.4592776517h-299.175952096c.3711944773,10.7644274478-.3711944773,21.5287840974,0,32.2932115452,1.4847779093,39.3456942198,6.6813589954,94.2812732943,1.4847779093,132.8845785594-2.9694850204,23.3846856859-25.6118525497,51.5948287787-50.4813161449,51.5948287787h-142.9066170526v480.3146799364c0,16.7033974885,26.3541707063,40.4592776517,42.6863737175,40.4592776517h249.0657596303c-70.8964460122-151.0726831591,97.2508291128-295.8352725983,235.7031832357-202.2963882586ZM358.4675743552,169.1625580679l-168.8896640796,189.6760592224h142.9066170526c8.9084550612,0,25.9830470271-17.0745211678,25.9830470271-25.9830470271v-163.6930121954ZM620.524857499,696.6178746514c-179.6540207293,4.0830684523-170.3743711908,280.9877766982,11.8779400816,270.5946145259,173.3439270093-10.0220384931,165.1777901046-274.306559299-11.8779400816-270.5946145259Z"/>
  <path class="cls-2" d="M252.3083609793,532.1824735015c2.2270960658-2.2271668639,7.7948716293-2.2271668639,10.7644274478-2.5982905431l386.7757955967,1.1135126338c11.8779400816,8.5372605839,7.42374795,23.0134912085-7.0524826746,24.1271454386h-379.3521184448c-11.8779400816,1.1135126338-18.559299077-15.2186195793-11.1356219251-22.6423675293Z"/>
  <path class="cls-2" d="M252.3083609793,609.3890840318c2.2270960658-2.2271668639,7.7948716293-2.2271668639,10.7644274478-2.5982905431l386.7757955967,1.1135126338c13.73384167,11.135551127,4.825457407,24.4982691178-11.5068164024,24.1271454386h-371.1859815401c-11.8779400816,2.5982905431-24.4982691178-12.9914527154-14.847425102-22.6423675293Z"/>
  <path class="cls-2" d="M252.3083609793,454.9757213749c2.2270960658-2.2271668639,7.7948716293-2.2271668639,10.7644274478-2.5982905431h381.5792145106c15.2186195793,1.8559015885,15.2186195793,21.1575896201,0,23.0134912085h-383.8063105763c-9.6508440158.3712652754-14.8474959001-13.73384167-8.537331382-20.4152006655Z"/>
  <path class="cls-2" d="M252.3083609793,686.2245708829c2.2270960658-2.2271668639,7.7948716293-2.2271668639,10.7644274478-2.5982905431,57.9049932968-4.825457407,122.8625400663,4.0830684523,181.5099223177,0,15.2186195793,1.4847779093,15.9610085339,23.0134912085,0,25.2406580724h-183.7370183835c-10.3932329704.3712652754-14.8474959001-15.9610085339-8.537331382-22.6423675293Z"/>
  <path class="cls-2" d="M693.2772758978,773.8244851817c8.5372605839-2.5982905431,17.8169101224,3.7118031769,16.7033974885,12.9914527154-.3711236792,3.3406794977-33.4067949771,38.2321107878-38.9744997425,44.1710808286-8.5372605839,8.9085258593-60.8744783172,63.1016451811-66.813448358,64.5864230903-4.825457407,1.4847779093-10.7644274478-1.4847779093-14.4762306247-4.4541921315-8.1661369047-7.0524826746-36.0050855202-34.5203076109-42.6864445156-42.6864445156-6.6813589954-8.1661369047-5.9389700408-18.9304227562,4.825457407-21.8999785747,13.73384167-3.7118031769,41.5727902856,40.8304013309,50.8524398241,38.6033760633l90.5693285212-91.3117174758Z"/>
</svg>