<?xml version="1.0" encoding="UTF-8"?>
<svg id="Camada_1" data-name="Camada 1" xmlns="http://www.w3.org/2000/svg" viewBox="0 0 829.4779366636 1000">
  <defs>
    <style>
      .cls-1 {
        fill: #e27f50;
      }

      .cls-2 {
        fill: #444f75;
      }
    </style>
  </defs>
  <path class="cls-2" d="M750.7564277506,606.640819937c-1.0129667221-.8509192502-3.2313663165-2.4412225965-5.5814565309-4.1227819781-11.2945418553-8.1037337767-15.1640821528-11.3452396526-15.7921165744-14.6171023805l-.0709150897-.3646531816-.0101395595-.374792741c-.4052114195-48.6325422194-.1924661503-98.0754454512,0-145.8874870988.2026057097-47.8019020881.4152891524-97.2346657604,0-145.8469288609-.0911942087-11.6086208926-.0101395595-23.5616158479.0607755303-35.1296785026.0810546492-14.4550549086.1721870313-29.4064536188-.0506359708-43.8108107301-.5369020395-29.4064536188-37.8140650468-69.3071658134-50.0607980939-82.4250972297-43.0713648074-46.2318160342-79.3861970635-82.1313591379-107.941731432-106.6958021484-27.5729863249-23.7540819981-36.7808192057-23.9566877079-64.1107034096-24.5441638915-5.2572997607-.1215510605-11.2236885921-.243102121-18.0612139662-.5571193318C417.2877704759-.8656925128,343.2399278223-.0755487929,271.6231682057.6841762487c-15.3464087436.1620474718-30.6624606354.3240949437-45.9177369968.4557855637-12.2974308445.0810546492-24.817684691,0-38.0673067273-.0911323821-34.6839706718-.2228848287-70.5430173642-.4659869497-102.6135165816,2.431083037C38.9548393376,7.6128340049,2.8324732319,47.0476210763.999005938,95.2040986131c-1.9854370329,53.1098378196-.6178948621,108.6913169141.7090890708,162.4595460071.4558473903,18.4258671477.9217725134,37.479768717,1.2357897242,55.9360545432,1.4586745529,82.1212195784,1.8233277344,165.8023856512,2.1779031831,246.7383896497.2835985324,67.4129848158.5875380103,137.1253002221,1.5194500831,205.4195611401.0607755303,4.9230034309.0607755303,9.8662859808.0607755303,15.0931670631-.0202791189,46.5762519234-.0506359708,99.3720725322,47.0320374871,120.0872543641,17.2508529538,7.6681036788,60.8995543855,9.177476029,79.5381668024,9.81565001,52.5324393688,1.7321335257,106.645104351.7090272442,158.9749998367-.2735207995,22.0218866458-.4153509789,44.7933587737-.8407796908,67.0077115698-1.0636026929,4.9432825499-.0506977974,10.0385348387-.1621092984,15.4275252194-.2836603589,7.7086619167-.1721870313,15.5490144533-.3545136221,23.2171799587-.3545136221,7.3743655869,0,14.586683702.1620474718,21.3634335458.6583912734.4963438016.0304186784.9724703108.0506977974,1.4383954339.0709150897,2.4108657447.0911942087,5.4092694996.2127452692,8.2455639561,2.4007261852l.0405582379.0304186784c2.3298110955,1.8537464129,5.1863846709,5.7030075914,8.4987438101,10.1701636321,2.3095938031,3.1199548155,4.6900408694,6.331042013,6.3614606914,8.0429582464,75.9420854777,80.8550111758,201.6208741057,93.071387371,292.4029467926,28.4846192788,56.0373264848-39.8602157833,89.9413548227-102.2590029595,93.0004722813-171.1812364724,3.0895979636-69.6414621432-25.5166342023-135.5552141682-78.4947814019-180.8145598917ZM556.5504774698,72.6148912494l103.3631020637,97.4879692675-10.5652354921-.2532416805c-8.0024618351-.1823884174-16.2074675533-.0405582379-24.1390142987.1012719416-5.2572997607.0911323821-10.6260110224.1924661503-15.9947222841.1924661503-3.899958976,0-7.7998561253-.0506359708-11.6795359824-.1924661503-1.418116315-.0404964113-3.1503116673-.0404964113-4.8925847525-.0506359708-2.8160771641-.0101395595-5.4700450299-.0304186784-7.2731554719-.1621092984-13.0773731784-1.154735075-18.6284110309-3.7580669699-23.8755712321-16.1162733446-1.9043823836-4.4367991888-4.9432825499-15.9542258728-4.9432825499-21.1912465145v-59.8157344002ZM398.791050065,876.0393320401c-21.6775125832-.2532416805-43.831089849-.1013337682-65.2452211922.0506359708-13.1787069465.0911942087-26.6511519849.1924661503-40.1235970233.1924661503-8.4785265177,0-16.9570530354-.0404964113-25.3748040228-.1418301795-6.1588549817-.0709150897-12.3277876963-.1418301795-18.5271390893-.2026057097-37.9254765478-.4152891524-77.1577197361-.8508574237-115.3060192861-2.2588960057l-.13169062-.0101395595c-25.6787435007-.8914156616-68.64877454-2.3703075068-83.0024956805-26.6207333065-14.4044189378-24.3010617705-14.0498434892-64.2727508814-13.7662449568-96.3838083368.0709150897-8.4582473988.1418301795-16.4505696744-.0506359708-23.5616158479-2.3602297739-93.2232952834-1.7422730852-188.0572348586-1.1446573421-279.7712196184.4761265092-71.7180933847.9623307513-145.8773475393.0202791189-218.7400364395-.111411501-9.0863436469-.506483361-19.3679187801-.9116947805-30.2472333096-1.4687522858-38.766194412-3.2921418468-87.0239438904,6.6551987833-117.5851325842,14.1713945497-43.3853820182,54.8825295832-43.7500351998,90.7922122464-44.0741919701,4.5380711304-.0404964113,9.2281119998-.0810546492,13.6953298671-.2127452692,98.1665778333-2.7451002478,206.2602790043-2.6843247176,321.2826379314.2026057097,5.6118133828.13169062,11.365456945.0506359708,16.9165566241-.0303568518,7.1920389962-.1013337682,14.6272419399-.2127452692,22.0016075269.1417683529l2.0157938847.0911942087,3.7378496775,5.5004018817.0506359708,1.1446573421c.4356300979,9.6029047408.6685926595,19.4185547509.901555221,28.8999084312.3140172108,12.8646897358.6280344216,26.1649477428,1.4586745529,39.1106921278,1.7828313231,27.1069375486,5.5409601196,57.5466370084,19.914960379,77.6438621517,13.6243529507,19.0437620098,35.9805359263,28.4947588383,70.3707685063,29.7711068004,14.2727283178.52676248,28.8898306983.2836603589,43.0308065695.0506359708,13.2293429173-.2228230021,26.8943159325-.4457078308,40.3363422925-.0506359708l3.9505949468.1215510605-1.3776199037,350.9726900825-5.2978579986-1.7625522042c-14.2017514015-4.6900408694-29.3658953809-9.4813536803-45.0364608948-11.8517230137-75.0912280541-11.1932699137-149.9798503984,15.6706273404-200.3141692918,71.870001297-50.2127678328,56.0576056037-68.6689918324,133.2254030728-49.3619104091,206.4021091837,1.560008321,5.9258305935,3.6872137068,11.8415834542,5.7435658293,17.5547306051,2.187980916,6.0778003325,4.4570164812,12.3682841076,6.067660773,18.729744799l1.3067048139,5.1154695812-5.277517053-.0607755303ZM794.5469593618,846.8861201018c-13.553437861,35.8691862518-37.3277989781,67.2305963985-68.770263774,90.7010798643-31.280417324,23.3488705787-67.85863082,37.1657515063-105.7841073679,39.951409992-4.6596840175.3443740626-9.3294457679.5165610939-13.9890679589.5165610939-36.0110164313,0-71.6167596165-10.1904427511-103.7885926021-29.8014636522-39.1309094202-23.8452143802-67.99032144-57.7897391295-83.4380639518-98.1665778333-14.3132247291-37.4088536273-16.7443695928-78.4036490198-7.0198519648-118.5576647215,9.8865650998-40.8529033864,31.3614101467-76.9145557885,62.0948476983-104.2950141366,33.205017-29.5685010906,75.6078509746-47.0016806352,122.6094697833-50.4052339831,4.2949690094-.3140172108,8.6000775782-.4659869497,12.9051861471-.4659869497,40.2654272028,0,80.6017694953,13.5433601281,114.8501718958,38.7865353575,37.4291327463,27.5729244983,64.3538055306,66.562003739,75.8104566843,109.7751987259,10.9603073521,41.3087507767,9.066064528,83.4886999226-5.4801845894,121.9611562428Z"/>
  <path class="cls-1" d="M600.8981284127,307.9169706909c-.4152891524,8.670992668-7.3237296161,19.2665850119-25.3950831418,20.6138480637-37.9051974289,2.8565735755-78.6264720219,1.5498687615-118.0106231226.2836603589-35.0790425318-1.1244400497-71.3432388171-2.2893146842-105.5409434202-.506483361-33.7926168369-.9420516323-68.5981385692.0607755303-102.2590029595,1.023044455-39.8906344617,1.1345796092-81.1386715347,2.3095938031-121.2724081175.3241567703-16.0656373738-.8609969831-28.3225099804-3.7986252078-32.7998674071-7.8707093885-7.9314849188-7.4250633843-6.8678822259-21.8092032032-.6482517139-29.2544838799,6.2094909525-7.5263353259,13.7358262784-7.2832332048,23.2779554889-6.989495113,2.9477059576.0911942087,5.9866061238.1823265908,9.1369796177.0405582379,73.1159305807-3.6973532662,149.6050576574-2.8059376047,223.5819852212-1.9449406215,38.8472490612.4558473903,79.0114043224.9319738995,117.9397080328.7192286302,10.8488958511-.0709150897,21.9611111156-.5976775697,33.73177948-1.1547969016,26.0940326531-1.2459292837,53.0794809677-2.5324168052,76.793004728,1.6005047323,15.3869669815,2.6641074252,21.9206147042,13.8472377794,21.464767314,23.1159080171Z"/>
  <path class="cls-1" d="M600.715801822,501.7582677902c-1.3978990226,9.2686702377-9.045785409,16.3290186138-19.5097489596,18.0713535256-71.231827316.8609969831-143.7399407675.7191668037-213.8575294199.5874761837-46.8497108963-.0911323821-95.2897251389-.1823265908-142.9295797552.0202791189-11.3755965045.0709150897-23.1260475766.5166229205-34.4813649621.9623307513-25.0000112818.9623307513-50.8712209328,1.9651579139-75.4153848243-1.033245841-13.4420881865-1.6308615842-22.8525267771-8.8128228474-24.554303451-18.7398843585-1.5498687615-9.066064528,4.0315877694-18.0105161688,14.606962821-23.5311971695,82.2427706389-2.2285391539,166.379784102-2.2082600349,247.7412786388-2.1981823021h21.2723011637c26.6916483962,0,53.8492837422-.0202172924,80.6321263471-.1316287934,12.155600665-.0709150897,24.9290961921-.4356300979,37.2873025668-.79014372,24.8581811023-.7090890708,50.5571418954-1.4383954339,74.3719994238.0607755303,7.100906614.4659869497,15.2147799502,1.3776199037,21.596457934,4.5178538381,9.5320514777,4.6697617504,14.606962821,13.1787069465,13.2394824768,22.2042132366Z"/>
  <path class="cls-1" d="M598.2138036952,407.430811576c-3.3934756149,6.1284363033-9.2382515593,10.1904427511-15.660487781,10.858973584-8.9039552295.9724703108-19.6110209011.5976775697-29.9737125101.2228848287-6.5842836935-.2329625616-13.3913903892-.4761265092-19.5806022227-.3545754487-70.1378059447,1.4384572605-141.562099411,1.3269839329-210.6261631034,1.2155724318-34.5624196113-.0607755303-70.2999152431-.111411501-105.4397333052.0202791189-10.463901724.0404964113-21.1709673956.4152891524-31.5235194451.7800041605-15.5591540128.5469797724-31.6349309461,1.1040991042-47.2954187271.5571193318l-1.6410011436-.0607755303c-10.1600240727-.374792741-29.0822968485-1.0636026929-36.9327889447-5.2978579986-9.6434011521-5.2572997607-10.6867865527-15.7718374554-8.6405739895-23.1766217208,2.3500902144-8.4988056366,9.5826874485-16.8861997722,20.5530725335-16.8861997722.2937999184,0,.5773984508.0101395595.8711983692.0202791189h.1519079124c80.7638169671.39507186,162.8749588126,0,242.2813731684-.3849323005,24.70627319-.1215510605,49.4125463799-.2329625616,74.0884008915-.3342963297,14.6677383512-.0607755303,30.0243484809-.3950100334,44.8744134229-.7191668037,31.1082302927-.6787322189,63.2800014517-1.3776817302,93.3549859034.2025438831,17.0178903922.8813379287,27.1880540244,5.8651168899,31.9996459543,15.7212633112,2.6641074252,5.3788508212,2.3399506549,11.8010870429-.8609969831,17.6155061354Z"/>
  <g>
    <path class="cls-1" d="M657.9585611791,809.2138852345c-2.2588960057,15.8428143717-19.6008813417,28.2719358362-43.1624971895,30.9157641425l-3.6061590576.4052114195v22.6802779192h-8.9445134674v-23.0753497792l-4.1227819781.0709150897c-11.2034094732.1924661503-30.642243343-1.7524744713-39.2119640694-6.726113873.1215510605-1.5397292021,2.2183995944-4.8520883412,3.5555230868-6.8679440525,14.5664664097,6.8476649335,42.0381189664,11.9226381034,60.9299730639,4.5279933975,9.045785409-3.5453835273,15.1742217123-9.704238509,17.696498958-17.8181118451,7.2022403822-23.0956288982-23.4907007582-33.0531090877-41.8253736972-39.0092965331-4.1835575083-1.3574026113-7.7897165659-2.5324168052-10.3727693419-3.616298617-11.6693964229-4.9635616688-24.96965443-13.1685673871-27.269046847-21.3128594016-5.0851127294-17.696498958,7.7896547393-30.0749844517,20.3606063832-35.2917259745,2.8059376047-1.1750760205,5.7030075914-1.8841032647,8.7621868766-2.6337505734,3.9201762683-.9622689247,7.9821208896-1.9550183544,11.8213043353-4.001169091l2.1474845047-1.1446573421v-19.7326337882h8.0328186869c.0506359708.4963438016.0911942087.9826098702.1418301795,1.4789536718.5267006534,5.4092694996.9926876031,10.0891708095-.3444358892,15.3464705702l-1.286425695,5.0850509028,5.2471602012-.0404964113c10.2512182813-.0810546492,21.1507501032,1.7422730852,33.1138846179,5.5713169715l-3.0389001662,5.8549155038c-13.9587111071-4.771033692-41.8152959643-9.1976933214-58.1138958997-.8002214529-6.4526549001,3.3326382581-10.4538239911,8.2860603674-11.8922812516,14.7285138815-4.8318092223,21.4749068735,22.4575167437,29.9534333912,40.5186688833,35.5653086005,4.295030836,1.3269839329,8.3367581648,2.583052776,11.1730526213,3.7682065294,20.5834912119,8.5798602859,31.6855669169,22.0725226166,29.6900521512,36.071730135Z"/>
    <path class="cls-1" d="M631.3884638434,765.6664557445c-3.1908699052-1.3371234923-7.2224576746-2.583052776-11.8821416921-4.0315877694-20.1377833811-6.2601269233-37.9659729591-12.9558221179-35.0182670016-26.0636139747.901555221-4.0417891554,3.4136929073-7.0806893217,7.6884446243-9.2889493566,14.5461872907-7.485777088,43.3853820182-2.431083037,54.7711180822,2.3906484523l3.4440497591,1.4586127263,10.757763469-20.7151200053-4.3963027775-1.5498687615c-12.7633559676-4.4874351596-24.4124732715-6.9387973156-35.4639748324-7.4250633843.4963438016-4.6596221909.0810546492-8.9647307598-.3342963297-13.1685673871-.1519079124-1.6308615842-.3240949437-3.3123591391-.4355682713-5.014135813l-.2532416805-3.7784079154h-23.65274823v22.8221699253c-2.4108657447.9724084842-5.0445544915,1.6207220247-7.7897165659,2.2893146842-3.2313663165.7900818934-6.5741441341,1.6105824652-9.94734063,3.0186210473-20.6138480637,8.5595811669-30.4396376333,26.2257232731-25.0506472526,44.9959644834,3.7783460889,13.3306766855,23.5616158479,23.0146360755,31.9185913051,26.5600196028,2.9072095462,1.2256501647,6.6652765162,2.4412225965,11.0109433229,3.8594007381,21.8294204956,7.0806274951,41.0453695367,14.6272419399,36.598492615,28.8897688717-1.7929708826,5.7637831217-6.1385758628,10.0283952792-12.9153257065,12.682363145-17.4433191041,6.8375253741-45.1377946629,1.2560688431-57.2933953279-5.7435040028l-3.3833360555-1.944878795-2.076569415,3.2921418468c-.3038776513.4862042421-.6989495113,1.0737422523-1.1446573421,1.7219939663-2.7856584857,4.0721460073-6.594423253,9.6434629787-5.5510378525,14.5361095578.4254287118,2.0056543252,1.5903033463,3.6567950283,3.4035533478,4.771033692,9.3193062085,5.6523716207,27.4817921162,7.8302748038,39.7488042823,8.0733769248v23.0145742489h25.1519810207v-23.6122518187c25.4558586721-3.9505331202,44.0234941727-18.6588297093,46.6876015979-37.348078097,2.5526959242-17.8889651083-10.3829089013-34.6029160226-34.5927764632-44.6920868321ZM657.9585611791,809.2138852345c-2.2588960057,15.8428143717-19.6008813417,28.2719358362-43.1624971895,30.9157641425l-3.6061590576.4052114195v22.6802779192h-8.9445134674v-23.0753497792l-4.1227819781.0709150897c-11.2034094732.1924661503-30.642243343-1.7524744713-39.2119640694-6.726113873.1215510605-1.5397292021,2.2183995944-4.8520883412,3.5555230868-6.8679440525,14.5664664097,6.8476649335,42.0381189664,11.9226381034,60.9299730639,4.5279933975,9.045785409-3.5453835273,15.1742217123-9.704238509,17.696498958-17.8181118451,7.2022403822-23.0956288982-23.4907007582-33.0531090877-41.8253736972-39.0092965331-4.1835575083-1.3574026113-7.7897165659-2.5324168052-10.3727693419-3.616298617-11.6693964229-4.9635616688-24.96965443-13.1685673871-27.269046847-21.3128594016-5.0851127294-17.696498958,7.7896547393-30.0749844517,20.3606063832-35.2917259745,2.8059376047-1.1750760205,5.7030075914-1.8841032647,8.7621868766-2.6337505734,3.9201762683-.9622689247,7.9821208896-1.9550183544,11.8213043353-4.001169091l2.1474845047-1.1446573421v-19.7326337882h8.0328186869c.0506359708.4963438016.0911942087.9826098702.1418301795,1.4789536718.5267006534,5.4092694996.9926876031,10.0891708095-.3444358892,15.3464705702l-1.286425695,5.0850509028,5.2471602012-.0404964113c10.2512182813-.0810546492,21.1507501032,1.7422730852,33.1138846179,5.5713169715l-3.0389001662,5.8549155038c-13.9587111071-4.771033692-41.8152959643-9.1976933214-58.1138958997-.8002214529-6.4526549001,3.3326382581-10.4538239911,8.2860603674-11.8922812516,14.7285138815-4.8318092223,21.4749068735,22.4575167437,29.9534333912,40.5186688833,35.5653086005,4.295030836,1.3269839329,8.3367581648,2.583052776,11.1730526213,3.7682065294,20.5834912119,8.5798602859,31.6855669169,22.0725226166,29.6900521512,36.071730135Z"/>
  </g>
</svg>