<svg xmlns="http://www.w3.org/2000/svg" class="card-img-top mx-auto" width="83.242" height="95.121" viewBox="0 0 83.242 95.121">
	<g id="Grupo_482" data-name="Grupo 482" transform="translate(349.956 -488.502)">
		<path id="União_2" data-name="União 2" d="M0,20.813A20.812,20.812,0,1,1,20.813,41.624,20.812,20.812,0,0,1,0,20.813Zm3.164-.005a17.642,17.642,0,0,0,17.649,17.64v.028a17.656,17.656,0,0,0,0-35.312h0A17.642,17.642,0,0,0,3.164,20.807ZM19.392,31.382a1.591,1.591,0,0,1-.761-1.463V29a4.766,4.766,0,0,1-2.578-4.222,1.588,1.588,0,1,1,3.17,0,1.589,1.589,0,0,0,3.171,0v-.642a1.576,1.576,0,0,0-1.108-1.512l-1.9-.592a4.743,4.743,0,0,1-3.337-4.542v-.613a4.766,4.766,0,0,1,3.17-4.487v-.7a1.585,1.585,0,0,1,3.171,0v.7a4.772,4.772,0,0,1,3.177,4.487,1.589,1.589,0,1,1-3.177,0,1.589,1.589,0,1,0-3.171,0v.641a1.582,1.582,0,0,0,1.115,1.512l1.888.592a4.743,4.743,0,0,1,3.344,4.542V24.8A4.767,4.767,0,0,1,21.8,29.417v.5a1.589,1.589,0,0,1-2.409,1.463Z" transform="translate(-313.293 500.193)" fill="#ff804c"></path>
		<path class="b" id="Caminho_25" data-name="Caminho 25" d="M83.242,63.816V84.022a11.148,11.148,0,0,1-11.1,11.1H11.1A11.148,11.148,0,0,1,0,84.029V6.34A6.347,6.347,0,0,1,6.34,0H57.9a6.347,6.347,0,0,1,6.34,6.34,1.589,1.589,0,1,1-3.17,0A3.17,3.17,0,0,0,57.9,3.17H6.34A3.17,3.17,0,0,0,3.17,6.34V84.029A7.936,7.936,0,0,0,11.1,91.972H64.387a11.051,11.051,0,0,1-3.344-7.929V59.259a1.589,1.589,0,1,1,3.17,0v24.77a7.929,7.929,0,1,0,15.858,0V63.823a3.177,3.177,0,0,0-3.177-3.205H70.156a1.589,1.589,0,0,1,0-3.17h6.738a6.354,6.354,0,0,1,6.347,6.368Z" transform="translate(-349.956 488.502)" fill="#4f5c70"></path>
		<rect id="Retângulo_37" data-name="Retângulo 37" width="20.136" height="3.115" transform="translate(-337.972 535.387)" fill="#ff804c"></rect>
		<rect id="Retângulo_38" data-name="Retângulo 38" width="20.136" height="3.115" transform="translate(-337.972 519.821)" fill="#ff804c"></rect>
		<rect id="Retângulo_39" data-name="Retângulo 39" width="20.136" height="3.115" transform="translate(-337.972 550.952)" fill="#ff804c"></rect>
		<rect id="Retângulo_40" data-name="Retângulo 40" width="20.136" height="3.115" transform="translate(-337.972 566.518)" fill="#ff804c"></rect>
	</g>
</svg>