<svg xmlns="http://www.w3.org/2000/svg" class="card-img-top mx-auto" width="123.768" height="94.35" viewBox="0 0 123.768 94.35">
								<defs>
									<style>
										.a {
											fill: #ff804c;
										}

										.b {
											fill: #4f5c70;
										}
									</style>
								</defs>
								<g transform="translate(0 0)">
									<rect class="a" width="37.605" height="3.147" transform="translate(74.267 45.602)"></rect>
									<rect class="a" width="40.005" height="3.147" transform="translate(71.866 29.876)"></rect>
									<rect class="a" width="42.251" height="3.147" transform="translate(69.621 61.328)"></rect>
									<rect class="a" width="42.251" height="3.147" transform="translate(69.621 77.054)"></rect>
									<path class="b" d="M146.7,17.3a1.605,1.605,0,0,0-.451-1.112L130.527.458A1.556,1.556,0,0,0,129.415,0H82.251a4.716,4.716,0,0,0-4.723,4.716V29.875h3.147V4.716a1.57,1.57,0,0,1,1.577-1.57h45.588v11.01a4.716,4.716,0,0,0,4.716,4.716h11.01V89.633a1.577,1.577,0,0,1-1.577,1.577H82.243a1.577,1.577,0,0,1-1.57-1.577V65.108H77.52V89.633a4.716,4.716,0,0,0,4.723,4.716h59.751a4.716,4.716,0,0,0,4.724-4.716V17.3Zm-14.142-1.57a1.57,1.57,0,0,1-1.57-1.57V5.371l10.355,10.355Z" transform="translate(-22.95 0)"></path>
									<path class="a" d="M71.31,42.913a2.3,2.3,0,0,0-2.288-2.034H67.389c-.514-.324-2.224-1.837-6.385-5.357-.894-.767-1.225-.57-7.307-.275-.317-.127-1.45-.7-3.893-1.985a1.225,1.225,0,0,0-.387-.113,1.049,1.049,0,0,0-.359-.289l-3.245-1.619c-.2-.373-.7-1.844-1.8-4.66a2.3,2.3,0,0,0-4.02-.514l-.845,1.183a.07.07,0,0,1-.084,0l-3.309-.88a2.3,2.3,0,0,0-2.865,1.774c0,.049,0,.134-.077.148-3.259.76-3.175.788-3.21.7l-1.64-4.928A2.3,2.3,0,0,0,25.4,22.526l-5.793.964A2.3,2.3,0,0,0,17.8,26.475l.7,2.26c.035.1.077.035-2.422,1.443a.084.084,0,0,1-.1,0l-1.76-2.02a2.3,2.3,0,0,0-2.112-.76l-2.851.38a2.309,2.309,0,0,0-1.556.971,2.281,2.281,0,0,0-.345,1.8l.627,2.865c0,.345-.176,1.781-.627,6.188,0,.092.232,0-4.393.922A2.323,2.323,0,0,0,1.239,42L.134,45.088a2.3,2.3,0,0,0,.443,2.295l2.978,3.365a2.274,2.274,0,0,0,2.506.641.077.077,0,0,1,.106.07v.324A2.3,2.3,0,0,0,8.321,54c3.055.2,1.591.528,7.286-1.992a.077.077,0,0,1,.113.077c-.049.852-.289,2.182,1.049,3,2.379,1.45.929.838,7.194,2.893a.07.07,0,0,1,.056.049l1.028,3.379c.38,1.26,1.359,1.633,2.647,1.633.113,0,0-.458.915,8.63a2.309,2.309,0,0,0,2.217,2.112l1.373.042a.07.07,0,0,1,.07.056l.612,1.767a1.1,1.1,0,0,0,1.162.7c.113.4.218.8.225.824a.084.084,0,0,1,0,.092l-4.857,3.773a2.309,2.309,0,0,0-.2,3.463l4.78,4.7a2.3,2.3,0,0,0,3.252,0l6.744-6.835c.859-.866.605-1.746,1.246-5.273.267-.3,1.408-1.225,3.477-3.055.507-.092,2.52-.211,7.258-.577a2.274,2.274,0,0,0,1.711-.978l5.3-7.61c.331-.422.225-.211,2.323-9.771.232-.267,1.183-1.119,2.964-2.816a1.035,1.035,0,0,0,.225-.324A36.162,36.162,0,0,0,71.2,49.34a2.344,2.344,0,0,0,.7-1.64C71.866,47.538,71.894,47.861,71.31,42.913ZM69.62,47.784l-2.5,2.471a1.119,1.119,0,0,0-.225.324.845.845,0,0,0-.169.106c-3.287,3.062-3.428,3.055-3.618,3.928C61.7,60.948,61.257,63.13,61.124,63.6c0,.049-5.294,7.631-5.35,7.631-8.145.634-7.814.472-8.546,1.119-3.879,3.379-4.062,3.358-4.224,4.4-.373,2.443-.535,3.7-.627,4.041l-6.744,6.821a.07.07,0,0,1-.113,0l-4.773-4.7c-.113-.113-.246.07,4.864-3.9a2.323,2.323,0,0,0,.781-2.513l-.436-1.563a1.105,1.105,0,0,0-1.239-.788l-.324-.986a2.309,2.309,0,0,0-2.112-1.57c-1.352-.049-1.408,0-1.45-.12L30,62.891a2.3,2.3,0,0,0-2.415-2.077,1.45,1.45,0,0,1-.387,0L26.159,57.4a2.323,2.323,0,0,0-1.485-1.521c-5.878-1.922-4.625-1.408-6.737-2.675h0a.084.084,0,0,1-.035-.07l.049-.894a2.3,2.3,0,0,0-3.224-2.246c-2.816,1.253-4.041,1.809-4.379,1.929-1.894-.127-1.943-.084-1.943-.2V51.4a2.309,2.309,0,0,0-3.09-2.112.084.084,0,0,1-.084,0L2.245,45.911a.077.077,0,0,1,0-.077l1.105-3.1a.077.077,0,0,1,.063-.049l4.329-.831a2.3,2.3,0,0,0,1.851-2.027c.788-7.814.852-5.632-.049-9.743,0-.141,0-.084,2.978-.542a.084.084,0,0,1,.07,0l1.76,2.02a2.309,2.309,0,0,0,2.865.493L19.6,30.706a2.309,2.309,0,0,0,1.063-2.717l-.7-2.253c-.042-.141,0-.1,5.857-1.07.106,0,0-.275,1.725,4.963a2.3,2.3,0,0,0,2.71,1.513l3.118-.7a2.337,2.337,0,0,0,1.76-1.9c.056-.092-.084-.084,3.393.873a2.309,2.309,0,0,0,2.429-.929L41.8,27.3a.077.077,0,0,1,.134,0c1.95,5.09,1.88,5.343,2.886,5.85l3.245,1.668a1.176,1.176,0,0,0,.373.1,1.091,1.091,0,0,0,.352.289c4.315,2.217,4.224,2.267,5.012,2.232,3.682-.183,5.244-.3,5.765-.253,6.624,5.632,6.7,5.92,7.743,5.92,1.753,0,1.8-.042,1.816.07S69.691,47.742,69.62,47.784Z" transform="translate(0 -6.659)"></path>
								</g>
							</svg>