<?xml version="1.0" encoding="UTF-8"?>
<svg id="Camada_1" xmlns="http://www.w3.org/2000/svg" version="1.1" viewBox="0 0 1001.25 716.83">
  <!-- Generator: Adobe Illustrator 29.8.3, SVG Export Plug-In . SVG Version: 2.1.1 Build 3)  -->
  <defs>
    <style>
      .st0 {
        stroke-width: 26px;
      }

      .st0, .st1 {
        fill: none;
      }

      .st0, .st1, .st2, .st3 {
        stroke-miterlimit: 10;
      }

      .st0, .st3 {
        stroke: #e27f50;
      }

      .st1 {
        stroke-width: 30px;
      }

      .st1, .st2 {
        stroke: #495173;
      }

      .st2 {
        fill: #495173;
        stroke-width: 22px;
      }

      .st3 {
        fill: #e27f50;
        stroke-width: 15px;
      }
    </style>
  </defs>
  <g>
    <path class="st2" d="M985.52,461.25c-13.01-66.92-56.83-123.22-117.64-151.1v-5.84c.53-20.18.8-39.3-4.51-61.08-20.71-81.79-105.43-134.11-188.81-116.58-2.66.53-7.44,2.12-13.01,3.98-4.51,1.59-11.15,3.72-15.14,4.78C570.19,23.08,428.11-19.94,306.75,32.91c-94.01,40.9-156.68,134.64-160.4,239.53-28.41,15.4-57.63,33.46-80.46,60.28C10.39,397.25-3.42,483.29,28.72,563.23c32.66,80.46,105.69,135.17,190.67,143.14h586.35c24.17-2.92,47.53-9.83,68.78-20.18s40.36-23.9,56.56-40.36c48.07-48.86,67.72-116.05,54.44-184.56h0ZM920.99,635.99c-30.01,30.54-71.43,50.46-116.58,56.3H220.18c-79.67-7.44-148.18-58.95-178.45-134.37-30.27-74.89-17.26-155.62,34.79-215.9,21.24-24.7,47.27-41.43,80.2-58.95l3.72-1.86v-3.98c1.86-101.18,61.61-191.73,151.9-231.03,32.93-14.34,67.45-21.24,101.71-21.24,86.57,0,171.28,44.08,222.8,122.16l1.33,2.12,2.39.8c3.98,1.33,8.5,0,25.49-5.58,4.78-1.59,9.56-3.19,11.68-3.72,76.21-15.93,153.23,31.6,172.08,106.22,5.05,19.65,4.51,37.18,4.25,57.09,0,3.45-.27,7.17-.27,10.62v4.78l4.25,1.86c58.69,25.49,101.18,78.87,113.66,142.87,2.66,13.01,3.72,26.02,3.72,39.04,0,49.66-18.85,96.66-54.44,132.78h0Z"/>
    <path class="st0" d="M350.04,403.1c-11.95-2.12-15.4-15.4-8.76-24.96l130.92-150.57c6.64-2.92,15.14-1.06,20.45,3.98l128,150.04c4.51,7.97-1.86,21.51-10.62,21.51h-73.03v168.89c0,1.86-8.5,11.68-11.68,11.68-27.88-2.39-61.34,3.19-88.43,0-8.76-1.06-15.4-8.23-15.4-17.26v-163.32c-21.24-2.66-51.25,3.72-71.43,0h0Z"/>
  </g>
  <path class="st3" d="M2773.75,40.18c-.7-6.74-2.56-27.42-27.42-26.72-12.55.23-26.25,1.86-39.27,3.25-9.99,1.16-20.21,2.32-29.74,2.79-12.31.7-25.33.93-37.87,1.39-18.59.46-37.64.93-55.53,2.79-13.48,1.39-24.4,6.74-31.13,15.8-6.97,9.06-9.29,20.68-6.97,34.15,2.32,13.24,12.55,22.3,22.77,30.9,5.81,4.88,11.15,9.76,14.41,14.64-2.32,5.11-16.26,17.66-20.91,21.84-2.79,2.32-4.88,4.41-6.04,5.58-29.28,29.97-59.71,60.18-88.99,89.45-42.52,42.29-86.43,85.97-128.25,130.11l-37.17,32.76-133.6-128.95-.93-.93-1.16-.46c-42.98-17.19-59.71-1.16-82.71,21.14-2.09,2.09-4.41,4.18-6.74,6.51-54.83,52.04-109.2,106.88-161.71,159.85-35.78,36.01-72.72,73.19-109.43,109.43l-.93,1.16c-13.71,21.61-13.48,42.75,1.39,62.5,15.8,21.14,38.57,39.5,62.96,39.5,8.13,0,16.5-2.09,24.63-6.97l.7-.46.46-.7c66.91-68.08,136.39-135.69,203.53-200.98l7.2-6.97c4.18-3.95,7.67-8.36,11.15-12.78,5.81-7.43,11.38-14.41,16.96-15.1,3.25-.46,6.97,1.16,11.38,4.88,19.28,15.33,38.57,36.25,57.39,56.46,20.68,22.3,41.82,45.31,63.66,61.8,19.98,15.1,38.34,17.43,61.11,8.13,11.38-4.65,27.18-21.61,46.93-43.45,5.34-6.04,10.22-11.15,13.71-14.64,40.43-40.2,80.86-80.16,121.05-120.35,48.33-48.09,96.89-96.19,145.21-144.52,1.16-1.16,3.02-3.25,5.34-5.81,3.95-4.41,13.94-15.57,18.12-17.66,2.09,1.39,6.74,6.04,9.99,9.53,9.76,10.22,21.84,23,34.62,25.56,14.87,3.02,26.49,1.16,34.62-5.34,14.64-11.85,14.87-35.55,14.87-56.46,0-4.41,0-8.83.23-12.78.23-7.43.7-15.57,1.16-23.7,1.86-34.39,3.95-74.12.93-106.18h0ZM2760.74,146.36c-.46,8.13-.93,16.26-1.16,23.7-.23,4.18-.23,8.6-.23,13.24,0,18.12-.23,38.8-10.46,46.93-5.34,4.41-13.48,5.34-24.63,3.02-9.06-1.86-20.21-13.48-28.35-22.07-7.9-8.36-12.78-13.48-18.12-13.48-6.97-.23-14.41,6.97-27.65,21.84-2.09,2.32-3.72,4.18-4.88,5.34-48.56,48.33-96.89,96.42-145.21,144.52-40.43,40.2-80.62,80.16-121.05,120.35-3.72,3.72-8.6,9.06-14.17,15.1-13.01,14.41-32.99,36.25-42.52,40.2-19.05,7.67-32.76,5.81-49.49-6.74-20.91-15.8-41.82-38.34-62.04-60.18-19.05-20.45-38.8-41.82-58.55-57.62-7.2-5.58-13.71-8.13-20.21-7.43-10.69,1.16-17.89,10.46-25.09,19.52-3.25,3.95-6.51,8.13-9.99,11.62l-7.2,6.97c-66.91,65.29-136.15,132.67-203.07,200.51-32.99,18.59-65.06-21.38-71.33-29.51-11.62-15.57-12.08-31.13-1.16-48.33,36.71-36.01,73.42-72.96,109.2-108.97,52.51-52.97,106.65-107.57,161.48-159.39,2.32-2.32,4.65-4.41,6.74-6.51,22.54-21.61,33.92-32.76,68.77-19.05l140.57,135.92,45.77-40.43.46-.46c41.82-44.15,85.73-87.83,128.25-130.11,29.28-29.28,59.71-59.48,88.99-89.45,1.16-1.16,3.02-3.02,5.58-5.11,18.12-16.26,26.49-25.33,25.09-33.23l-.23-.93-.46-.93c-4.18-7.43-11.38-13.71-18.12-19.52-8.83-7.67-17.19-14.87-18.82-23.93-1.63-9.99,0-18.59,4.88-24.86s12.78-10.22,22.77-11.15c17.19-1.63,36.25-2.32,54.6-2.79,12.78-.23,25.79-.7,38.34-1.39,9.76-.7,20.21-1.86,30.44-3.02,12.78-1.39,26.25-3.02,38.1-3.25,10.46-.23,13.94,3.72,15.1,15.8,3.02,31.6.93,70.63-.93,105.25h0Z"/>
  <path class="st1" d="M2645.03,285.53c4.41-4.41,26.02-27.88,29.04-28.81,6.04-1.63,11.15,3.25,12.55,8.83v495.59c-5.81,14.87-14.64,9.29-25.09,9.06-36.48-.46-72.96.7-109.2,0-12.08-3.72-6.97-14.41-6.97-23.23-.7-118.03.23-236.06,0-354.09,2.09-13.71,18.36-22.77,26.95-31.6,24.16-25.09,48.33-50.65,72.72-75.74h0Z"/>
  <path class="st1" d="M2483.79,448.87c6.74-.93,10.46,7.2,10.69,12.78l-.93,300.65-3.95,6.04-131.27,1.39-7.67-10.69,1.16-177.28c2.32-9.29,8.83-10.46,14.17-16.03,31.6-32.53,64.36-63.66,96.19-96.19,5.34-5.11,13.94-19.52,21.61-20.68h0Z"/>
  <path class="st1" d="M2220.77,554.59c19.28,18.36,23.7,26.95,52.74,33.23,9.06,1.86,21.38-3.25,26.02,8.36l.93,163.1-7.67,10.69-133.36-1.39c-4.41-4.88-4.41-11.15-4.88-17.19-6.04-77.14,3.49-163.8,1.39-241.64,3.49-11.38,8.83-8.83,16.73-3.25,11.62,8.13,35.08,36.01,48.09,48.1Z"/>
  <path class="st1" d="M1971,625.45c3.25-3.95,13.01-9.99,17.43-13.94,35.55-35.08,70.86-70.86,106.41-106.18,6.74-5.34,14.17,3.95,13.48,11.15-5.58,76.91,6.97,163.34,0,239.08-.93,10.46-4.18,16.26-15.1,17.19-28.35,2.79-59.02-1.16-87.13-2.32-18.12-.7-41.82,9.06-41.82-17.19,0-33.46-.93-81.09,2.09-113.38.46-5.11,1.39-10.69,4.65-14.41h0Z"/>
</svg>