<?xml version="1.0" encoding="UTF-8"?>
<svg id="Camada_1" data-name="Camada 1" xmlns="http://www.w3.org/2000/svg" viewBox="0 0 994.245956989 693.0908326587">
  <defs>
    <style>
      .cls-1 {
        fill: #e27f50;
        stroke: #e27f50;
      }

      .cls-1, .cls-2 {
        stroke-miterlimit: 10;
        stroke-width: 8px;
      }

      .cls-2 {
        fill: #495173;
        stroke: #495173;
      }
    </style>
  </defs>
  <path class="cls-2" d="M584.7555852829,116.6888535899c3.1668713387-16.0984220376,23.2239580545-22.1683007172,37.4749294153-23.4878220523,42.7531154286-3.4307856731,115.32789626-3.1669216753,158.0810116886,0,16.3622860354,1.3195213351,33.780229408,5.2781860133,45.6561227695,17.1540290383,34.8358867452,51.1982231171,73.3664734978,101.0768745626,106.0911462416,153.3307046805,27.1825220597,43.2809440972,19.7931220449,47.767437444,19.2652933763,96.0626028837-.5278286686,43.544908768,3.6947000074,86.2980241966.2638639978,129.5789682939l2.9030073409,3.1668713387c13.987107363-.2638639978,25.5991367268.5278286686,32.1968440751,14.2510720339,4.222528676,8.7090220228,4.4863926738,45.1282941009,1.8473500037,54.892872788-2.1113146745,8.445057352-11.8758933616,16.6262507062-20.5848147114,17.9457720412h-114.2723395958c-7.9172286834-93.1595955428-122.1895682791-128.5233109566-181.5689344139-54.6290087902-13.7232433652,17.1540793748-16.890114704,34.3080580766-22.6961293859,54.892973461h-258.1021785774c-5.8059643454-21.3766080508-10.2924073557-41.1697300957-24.5434793895-58.8515374661-5.2781860133-6.3338433505-22.9600437202-17.6818073704-21.11264338-24.8073433874l3.6947000074-4.4863926738,235.1422858668-2.1113146745V116.6888535899h.2639646708ZM596.8953426423,120.6474679316v384.2504618713h-226.9611428491c15.5705933689,17.6818073704,28.2381793969,38.7945514234,30.6133580692,62.8102021443l239.8926935479.2638639978c24.2795147187-124.3007822806,199.7785704529-126.9399256237,225.1137425089-2.1113146745l2.3751786723,1.8473500037c30.0855294006-2.1113146745,65.7132094853,3.6947000074,95.0069455464.2638639978,12.1397573594-1.3195213351,14.2510720339-8.1811933542,15.3067293711-19.2652933763.7916926664-7.6533646856,1.0556573373-28.5021440677-1.5834860059-35.0998514161-7.1255360169-17.6818073704-34.0441940788-.2638639978-36.9472014197-15.8344573667v-186.5831557563l-3.1668713387-15.0427647003-114.5362035936-171.2764767217c-8.445057352-10.2924073557-20.0569860427-16.0984220376-33.2524007393-17.4179433726-55.9485301252-5.0142716789-119.550424936,3.9586143417-176.5546123985,0-5.2782866863-.7916423299-14.5150367047,9.5008153623-15.3067293711,13.1955153696Z"/>
  <path class="cls-2" d="M559.6842268882,471.6455290635c-5.0142716789,5.0142213424-15.5705933689,8.7090220228-22.4322150516,8.9728860206l-471.0763147365-1.5834860059c-14.5149611999-4.4863926738-22.4322150516-17.1540793748-22.6961042176-31.9328794043l1.5834608376-420.4059202881c3.6947251756-13.9871576996,18.2096612073-21.6404720486,31.9329045725-22.6961293859h458.4087035403c18.7374647077,1.5834356694,32.4607080729,11.8758933616,33.5163654102,31.4051010722l-1.5834860059,424.3645346298c-2.9029066679,3.4308360096-4.7503070081,9.2367500184-7.6533143491,11.8758933616ZM109.9845202025,16.9315003623c-15.8345077032,6.0698786797-48.5591301105-8.1811430177-52.2538301178,14.778850366l.7917178347,424.6284489641,13.1954146966,11.0841000221h470.5485112362c7.9172286834-2.6390426701,11.6119790272-7.1255360169,13.1954146966-15.0427647003l-.5278286686-421.4614769523c-1.8473500037-6.333793014-7.3894503513-11.3480646929-13.9871576996-12.4036716937-15.3066790346-2.3751786723-38.2667227548.5278286686-54.6290087902,0-125.3564396179-4.2225790125-250.97679357,1.3195213351-376.3332331879-1.5834860059Z"/>
  <path class="cls-1" d="M275.1217068642,501.175968768c125.0925252835-15.0427647003,146.4691333344,162.5675050354,33.5163654102,185.5274984191-129.3150539595,26.1269653954-157.8171476908-170.4847337188-33.5163654102-185.5274984191ZM279.0803212059,513.3157261274c-105.2994032386,12.1397573594-90.2566385383,174.443398397,21.6404720486,161.5118476982,100.8130105648-11.8758933616,87.0897671996-173.9155697283-21.6404720486-161.5118476982Z"/>
  <path class="cls-1" d="M739.3364502547,501.175968768c129.5789682939-17.6818073704,145.1495616628,172.3320837225,29.557700732,185.7914630899-131.1624542997,15.3066286981-144.885697665-170.220869721-29.557700732-185.7914630899ZM743.2950142598,513.3157261274c-103.9798315671,13.9871073631-86.5618881944,174.1794337261,21.6404720486,161.5118476982,102.9242749028-12.1397573594,86.5619888675-176.0267837298-21.6404720486-161.5118476982Z"/>
  <path class="cls-2" d="M229.534995475,493.2860011121c2.111264338,2.1113146745,3.1669216753,6.8615713461,1.5834356694,9.5007146892-25.5990863903,17.9457720412-44.3366014345,44.8644301031-43.8087727658,77.0611735052l-160.984069366-.2638639978c-24.8073685556-3.9586646782-23.7517363866-44.3366014345-20.8487542139-63.0740661422,5.0142465107-34.0441940788,43.0170549312-23.2239580545,69.4078843244-23.7517867231,24.8073685556-.2638639978,50.1425657798-2.1113146745,74.9499595037-2.1113146745,11.3480646929,0,75.213873838-1.8473500037,79.7003168483,2.6391433431ZM205.5192944175,504.8979298028H28.1729390161c-4.222528676,0-8.7089716863,6.5977073483-9.2368003549,11.0841000221-1.3195465033,9.764578687-2.3751786723,46.1839514382,6.5977073483,50.4064801142l148.3164330015,1.5834860059c4.7504076811-24.0156507209,15.5706437054-45.3921580987,31.6690154065-63.0740661421Z"/>
  <path class="cls-1" d="M673.4286874788,164.7201550317c15.8344573667-2.9030073409,77.8529668446-2.6390930066,94.7430815486-.5278286686,5.0142213424.5278286686,8.9728860206,2.3751786723,12.9315506988,5.2781860133l69.4079094927,96.8543458866c3.6947000074,8.7089716863,2.3751786723,22.1682503807-7.1255360169,26.3908797297l-175.762919732.5278286686c-4.4863926738-3.9586646782-8.9728860206-8.1811430177-10.0285433579-14.2510720339-2.6390426701-16.890114704-2.3751786723-79.436402514-.2638639978-97.1182602209,1.3195213351-9.5007650258,7.1254353439-15.5706437054,16.0983213645-17.1540793748ZM773.1860910429,178.443398397h-100.2851315597l-3.1668713387,3.1669216753v95.2709102173c0,.7917430029,2.6390426701,3.1669216753,2.1113146745,5.0142716789h165.2066483785l3.1668713387-5.0142716789-67.0328314934-98.4378318925Z"/>
  <path class="cls-1" d="M283.0389858841,549.7350988785c57.5320161311-7.1255360169,67.2965948181,81.0198381834,13.4593290309,88.4092381981-62.2823734757,8.7090220228-70.991345162-81.2837021812-13.4593290309-88.4092381981ZM280.9277215461,563.9860702393c-37.7388940862,7.9172286834-27.7103507283,68.3522521554,13.1954146966,62.0184088049,39.8501584242-6.3337426775,31.1411364013-71.2551588233-13.1954146966-62.0184088049Z"/>
  <path class="cls-1" d="M747.253678938,549.7350988785c48.0313014418-7.3894000147,72.0469521628,62.0184088049,26.9186580619,83.6589815265-64.3936881502,30.877222067-92.1040388785-73.6305388417-26.9186580619-83.6589815265ZM745.4063289343,563.9860702393c-34.0441940788,7.1255360169-27.4464867305,67.8244234868,13.1954146966,62.0184088049,39.8501080877-6.0697780067,32.9885367415-71.7829874919-13.1954146966-62.0184088049Z"/>
</svg>