<svg id="Camada_1" data-name="Camada 1" xmlns="http://www.w3.org/2000/svg" class="card-img-top mx-auto" viewBox="0 0 60 60">
  <defs>
    <style>
      .cls-1 {
        fill: none;
      }

      .cls-2 {
        fill: #445075;
      }

      .cls-3 {
        fill: #ff804c;
      }

      .cls-4 {
        fill: #fefefe;
      }

      .cls-5 {
        fill: #fdfdfd;
      }
    </style>
  </defs>
  <g>
    <rect class="cls-1" x="-1.53" y="1.2" width="60" height="31.17"></rect>
    <path class="cls-3" d="M30.02,4.85c17.01-1.1,18.62,24.15,2.42,25.76-17.67,1.76-19.43-24.66-2.42-25.76Z"></path>
    <path class="cls-4" d="M29.91,6.49c14.27-1.16,16.94,19.52,3.51,22.3-15.9,3.29-18.93-21.04-3.51-22.3Z"></path>
    <path class="cls-3" d="M31.82,11.22c.05.07,1.22.46,1.61.78,1.82,1.5,1.53,4.8.07,3.55-.61-.52-.1-1.77-1.38-2.48-2.87-1.59-4.63,2.6-2.27,3.78.72.36,1.64.24,2.42.51,2.51.85,3.28,4.12,1.58,6.13-.66.77-1.88,1.04-2.02,1.19s-.04,1.17-.88,1.11c-.97-.07-.67-.95-.79-1.12-.08-.12-1.68-.49-2.38-1.54-.38-.58-1.15-2.56-.22-2.89,1.46-.51,1.01,1.51,1.84,2.32,2.04,1.98,5.15-1.07,3.15-3.15-.96-1-2.92-.35-4.32-1.76-1.82-1.83-1.33-4.52.7-5.96.34-.24,1.18-.42,1.22-.48.13-.21-.23-1.18.49-1.44,1.3-.49,1.04,1.23,1.18,1.44Z"></path>
  </g>
  <g>
    <rect class="cls-1" y="30.7" width="60" height="28.48"></rect>
    <path class="cls-2" d="M47.79,32.01c1.05-.09,1.96.19,2.83.73.26.16.62.75.88.75.19,0,1.72-1.16,2.47-1.27,4.14-.61,5.99,3.89,2.55,6.74-6.93,5.73-15.39,10.64-22.57,16.15-1.32.55-2.17.51-3.53.2-5.84-1.3-12.05-4.48-17.91-5.86-2.25-.53-5.1-.47-7.11.8-.65.41-3.02,3.31-3.67,1.89l-.09-13.81c0-.33.3-.57.56-.72,1.76-1.04,8.13-3.09,10.37-3.79,2.48-.78,4.19-1.04,6.83-.9,6.51.35,13.38,1.87,19.93,2.33,2.52-.51,6.04-3.01,8.47-3.23Z"></path>
    <path class="cls-4" d="M3.28,39.04c3.4-1.21,7.01-2.96,10.46-3.94,6.96-1.99,17.83,1.7,25.2,1.7,2.09.4,2.31,3.04.21,3.65l-16.24.4c-.63.06-.98.86-.53,1.35.54.6,4.57-.07,5.75.22,1.36.34,4.42,3.06,6.01,3.7.19.08.36.24.6.21l19.09-12.39c1.76-.76,3.53.9,2.72,2.71-7.23,5.85-15.13,10.99-22.6,16.59-1.22.7-1.74.8-3.13.5-5.59-1.22-11.71-4.2-17.37-5.69-3.55-.94-7.43-.79-10.17,1.9v-10.91Z"></path>
    <path class="cls-4" d="M42.07,39.68c.37-1.32-.01-2.4-.7-3.5,1.89-.39,4.63-2.32,6.42-2.54.88-.11,1.61.17,2.25.73l-7.97,5.31Z"></path>
    <polygon class="cls-5" points="38.32 42.14 34.74 44.47 31.06 42.31 38.32 42.14"></polygon>
  </g>
</svg>