<svg xmlns="http://www.w3.org/2000/svg" class="card-img-top mx-auto" width="92.516" height="92.516" viewBox="0 0 92.516 92.516">
								<defs>
									<style>
										.a {
											fill: #4f5c70;
										}

										.b {
											fill: #ff804c;
										}
									</style>
								</defs>
								<g transform="translate(9.757 0)">
									<path class="b" d="M135.847.237a1.807,1.807,0,0,0-1.815.014L100.918,19.832a1.807,1.807,0,1,0,1.839,3.111L126.516,8.894,82.262,54.811l-22.01-6.734L88.977,31.092a1.807,1.807,0,0,0-1.839-3.111l-32.25,19.07a1.807,1.807,0,0,0,.391,3.283l26.286,8.042,11.6,21.108a.428.428,0,0,0,.037.057,1.8,1.8,0,0,0,2.809.365l13.334-13.032,25.082,7.673a1.807,1.807,0,0,0,2.336-1.728V1.807A1.807,1.807,0,0,0,135.847.237ZM93.259,59.49a1.808,1.808,0,0,0-.321,1.029V71.573L85.018,57.159,120.059,20.8Zm3.292,14.831V62.962L105.4,65.67Zm36.593-3.944L97.638,59.515,133.144,8.258Z" transform="translate(-53.999 0)"></path>
								</g>
								<g transform="translate(9.757 62.277)">
									<path class="a" d="M73.952,345.177a1.807,1.807,0,0,0-2.556,0L54.528,362.046a1.807,1.807,0,0,0,2.556,2.555l16.868-16.868A1.807,1.807,0,0,0,73.952,345.177Z" transform="translate(-53.999 -344.648)"></path>
								</g>
								<g transform="translate(0 84.747)">
									<g transform="translate(0)">
										<path class="a" d="M7.241,469.53a1.807,1.807,0,0,0-2.555,0L.529,473.686a1.807,1.807,0,1,0,2.555,2.555l4.156-4.156A1.807,1.807,0,0,0,7.241,469.53Z" transform="translate(0 -469.001)"></path>
									</g>
								</g>
								<g transform="translate(22.692 88.796)">
									<path class="a" d="M128.664,491.939a1.806,1.806,0,1,0,.53,1.277A1.82,1.82,0,0,0,128.664,491.939Z" transform="translate(-125.58 -491.41)"></path>
								</g>
								<g transform="translate(27.201 75.351)">
									<path class="a" d="M162.554,417.535a1.807,1.807,0,0,0-2.555,0l-8.935,8.935a1.807,1.807,0,1,0,2.555,2.555l8.935-8.935A1.807,1.807,0,0,0,162.554,417.535Z" transform="translate(-150.534 -417.006)"></path>
								</g>
								<g transform="translate(58.013 74.666)">
									<path class="a" d="M333.1,413.74a1.807,1.807,0,0,0-2.555,0l-8.959,8.959a1.807,1.807,0,1,0,2.555,2.556L333.1,416.3A1.807,1.807,0,0,0,333.1,413.74Z" transform="translate(-321.053 -413.211)"></path>
								</g>
								<g transform="translate(48.143 24.101)">
									<path class="b" d="M269.514,133.909a1.806,1.806,0,1,0,.529,1.279A1.821,1.821,0,0,0,269.514,133.909Z" transform="translate(-266.43 -133.38)"></path>
								</g>
							</svg>