<svg width="32" height="31" viewBox="0 0 32 31" fill="none" xmlns="http://www.w3.org/2000/svg">
  <path d="M12.6953 16.9094C13.3006 17.7185 14.0728 18.388 14.9595 18.8725C15.8463 19.357 16.8268 19.6451 17.8347 19.7173C18.8426 19.7895 19.8542 19.644 20.801 19.2909C21.7477 18.9377 22.6075 18.3851 23.3218 17.6704L27.5499 13.4423C28.8335 12.1133 29.5438 10.3332 29.5278 8.48558C29.5117 6.63793 28.7706 4.8705 27.4641 3.56397C26.1575 2.25743 24.3901 1.51632 22.5425 1.50027C20.6948 1.48421 18.9148 2.19449 17.5858 3.47813L15.1617 5.88814" stroke="#FF804C" stroke-width="3" stroke-linecap="round" stroke-linejoin="round"/>
  <path d="M18.3327 14.0903C17.7275 13.2812 16.9553 12.6117 16.0685 12.1272C15.1817 11.6427 14.2012 11.3546 13.1933 11.2824C12.1854 11.2102 11.1738 11.3556 10.227 11.7088C9.28028 12.062 8.42056 12.6146 7.70617 13.3293L3.47811 17.5574C2.19449 18.8864 1.48421 20.6665 1.50027 22.5141C1.51632 24.3618 2.25742 26.1292 3.56395 27.4357C4.87048 28.7423 6.6379 29.4834 8.48554 29.4994C10.3332 29.5155 12.1132 28.8052 13.4422 27.5216L15.8522 25.1116" stroke="#FF804C" stroke-width="3" stroke-linecap="round" stroke-linejoin="round"/>
  </svg>
  