<svg width="25" height="28" viewBox="0 0 25 28" fill="none" xmlns="http://www.w3.org/2000/svg">
  <path d="M14.6343 2.01311C14.6838 1.63661 14.6121 1.25411 14.4294 0.921168C14.2468 0.588229 13.9627 0.322188 13.6186 0.161687C13.2646 -0.00441297 12.8643 -0.0439644 12.4847 0.0496454C12.105 0.143255 11.769 0.364352 11.5329 0.675972L0.384322 14.9802C0.181974 15.2408 0.0538931 15.5513 0.0136533 15.8787C-0.0265865 16.2062 0.0225142 16.5384 0.155751 16.8402C0.401465 17.4016 0.970035 17.8988 1.75003 17.8988H11.2957L10.3671 25.8445C10.3176 26.221 10.3893 26.6035 10.572 26.9364C10.7547 27.2693 11.0387 27.5354 11.3829 27.6959C11.7368 27.862 12.1371 27.9015 12.5167 27.8079C12.8964 27.7143 13.2324 27.4932 13.4686 27.1816L24.6157 12.8774C24.818 12.6168 24.9461 12.3063 24.9863 11.9789C25.0266 11.6514 24.9775 11.3192 24.8442 11.0174C24.7107 10.7046 24.4887 10.4378 24.2054 10.2497C23.9221 10.0616 23.59 9.96048 23.25 9.9588H13.7043L14.6343 2.01311Z" fill="#FF804C"/>
  </svg>
  