<?xml version="1.0" encoding="UTF-8"?>
<svg id="Camada_1" xmlns="http://www.w3.org/2000/svg" version="1.1" viewBox="0 0 1000 1000">
  <!-- Generator: Adobe Illustrator 29.8.3, SVG Export Plug-In . SVG Version: 2.1.1 Build 3)  -->
  <defs>
    <style>
      .st0 {
        fill: #e27f50;
        stroke: #e27f50;
        stroke-width: 8px;
      }

      .st0, .st1 {
        stroke-miterlimit: 10;
      }

      .st1 {
        fill: #444f75;
        stroke: #444f75;
        stroke-width: 15px;
      }
    </style>
  </defs>
  <path class="st1" d="M946.81,255.53c.46,2.08.93,3.93,1.16,6.01,3.24,42.32-2.54,88.81,0,131.37-.23,5.78-6.94,12.03-10.87,16.42-5.09,5.32-12.49,12.03-18.04,16.88-29.6,25.44-63.14,46.26-92.97,71.23.93,69.38-21.05,158.66-84.42,196.82-12.72,7.63-24.28,8.09-37.7,12.49-58.05,19.2-63.83,77.48-81.87,127.2-18.5,50.65-53.89,97.14-94.13,132.29-4.63,3.93-24.28,21.51-28.91,21.05-1.62-.23-3.93-2.31-5.32-3.24-15.03-9.48-36.08-27.52-50.42-39.32-16.88-13.88-58.28-50.19-64.06-70.54-3.47-12.03,1.16-15.26,9.48-22.43,20.81-17.81,45.79-28.91,69.61-42.09,1.39-2.78,1.85-5.78,2.08-8.79.69-8.09,1.16-29.6,0-37.24-.46-2.54-1.62-3.7-3.24-5.55-14.57-16.65-36.77-32.15-52.04-48.57l-25.67-25.67-1.16-100.61c-.69-1.85-14.34-5.78-17.81-7.4-6.94-3.7-21.51-15.96-21.51-24.52v-51.34l-1.62-1.62h-51.34c-1.62,0-15.03-7.4-17.11-9.25-2.54-2.31-12.03-16.19-12.03-18.73v-51.34l-1.62-1.62h-124.66l-75.4-39.55c-4.86-6.48-4.39-47.64-3.93-57.36.23-5.55.46-15.73,1.39-20.58.46-2.54,2.08-4.86,3.47-6.94l78.4-58.05v-114.71c.46-10.64,15.26-17.35,23.82-23.36,10.64-7.63,21.97-14.34,32.61-22.2,3.47-2.31,5.55-.46,7.63,2.31,11.33,14.34,25.44,56.43,47.18,56.89,7.17.23,10.64-7.4,11.56-13.65,1.62-13.41.23-26.13,0-39.32,0-5.09-.69-27.06,1.16-29.6l101.53-38.62,6.71,2.54,53.19,77.02,2.08,1.16,37.7-.69,77.02-58.51,8.33-.46c15.96,12.26,37,21.74,52.5,34,3.24,2.54,5.09,4.63,5.55,8.56,1.85,15.5-2.08,34.92,0,50.42.23,1.16,0,2.54,1.16,3.24,92.05,30.53,185.72,64.06,262.04,125.35h80.48v.23h0ZM932.47,391.76v-122.11h-70.54c-19.66-12.49-38.16-27.06-58.28-39.09-67.3-40.24-141.08-64.76-214.86-90.43l-2.08-61.06-45.79-29.14-2.31.46-73.32,55.74c-2.31,1.16-4.63,1.39-7.17,1.62-9.02.69-34.23,1.16-42.56,0-2.54-.46-4.39-1.85-6.01-3.7-17.58-20.35-31.45-51.11-48.8-70.54-1.62-1.62-2.54-3.7-5.32-3.47l-84.42,31.69c-1.16,25.44,12.03,95.06-33.3,86.04-21.51-4.39-37-36.77-47.18-54.12l-40.47,26.6-1.16,3.24c-1.39,34.92,2.08,71.7,0,106.16-.23,4.16-1.62,8.33-1.62,12.72l-80.95,61.29-.46,64.3,69.38,35.15,130.9.23c2.54,1.16,3.7,2.78,4.16,5.78,2.78,21.74-10.87,70.77,20.35,74.93,16.42,2.31,36.77-1.62,53.43,0,2.31.23,5.55.69,6.94,2.78,3.24,4.63,0,47.87,1.16,57.82,1.16,11.33,11.8,17.58,21.74,21.05,3.93,1.39,12.03,2.08,14.8,3.7,3.24,1.62,3.93,13.88,4.16,18.04,1.62,29.37-1.16,60.59-.46,89.97l77.48,73.55c1.62,1.85,3.24,4.86,3.7,7.17,2.08,14.11,1.85,38.16,0,52.27-.23,2.08-2.08,7.4-3.24,8.79-18.73,11.33-38.85,19.43-57.13,31.45-3.7,2.54-20.35,13.65-20.58,16.65-.46,3.93,3.47,8.56,5.78,11.8,14.57,21.97,36.77,39.55,56.43,56.43l44.64,33.54c41.86-32.38,80.25-75.63,101.76-124.43,21.74-49.26,26.37-117.03,79.33-145.01,20.82-10.87,41.17-10.18,61.06-24.28,42.56-30.3,63.14-92.97,68-143.16,1.16-12.26-.23-26.83,1.16-38.39.23-1.85.46-3.47,1.62-4.86,39.32-32.84,84.65-59.21,120.03-97.14h0Z"/>
  <path class="st0" d="M548.08,459.52c-21.05-22.9-43.71-46.72-63.6-70.54-5.32-6.48-9.48-10.18-6.24-19.43,3.93-11.8,30.07-8.33,40.24-10.18,1.16-.23,2.31-.46,2.54-1.85-1.16-16.19-2.54-30.99-6.71-46.72-16.19-58.28-61.29-98.76-117.03-119.34-9.02-3.24-27.29-6.71-34-10.87-4.63-2.78-6.01-9.02-.69-11.33,4.86-2.08,34.92-.23,42.09.46,82.8,8.33,159.35,62.68,187.57,141.77,4.63,12.95,6.71,26.37,10.87,39.55l41.17-3.93c17.58,2.31,15.03,15.03,8.79,27.52-9.71,19.43-24.52,41.4-36.31,60.13-6.94,10.87-21.05,37.7-28.91,45.56-15.03,15.26-30.53-10.64-39.78-20.82h0ZM546.93,447.5c6.24,6.71,18.73,23.59,24.98,27.98,2.78,1.85,5.55,3.47,8.79,1.16,9.25-13.18,18.04-26.6,26.6-40.24,12.49-19.89,28.22-43.71,38.62-64.3,4.63-9.02,9.25-17.58-5.09-17.11-12.95.23-28.22,4.63-40.47,4.16-1.39,0-2.78-.69-3.7-1.39-3.93-14.34-6.01-28.68-10.87-42.79-30.07-86.5-120.73-142.24-211.16-138.3l26.6,9.02c40.94,15.96,79.33,42.32,101.99,80.72,17.35,29.37,25.44,63.37,24.52,97.6-.93,3.01-7.4,1.39-10.18,1.85-9.71,1.39-19.43,2.54-29.37,3.47-2.78,1.39-4.63,3.47-3.93,6.48.46,2.08,15.26,18.73,17.81,21.51,14.57,17.35,29.83,33.77,44.87,50.19h0Z"/>
  <path class="st0" d="M712.75,354.29c-9.25,14.8-27.06,39.09-35.85,8.79-5.32-18.27-9.02-38.85-13.65-57.36-2.78-10.87-9.25-27.52-10.41-37.7-.93-7.17,5.32-13.88,12.49-14.11,32.84,3.24,68,.23,100.61,3.93,9.94,1.16,15.5,8.09,11.33,17.81-2.31,5.55-20.58,22.2-20.58,25.44,17.58,19.43,33.07,39.32,41.63,64.53,17.35,50.42,10.41,128.13-24.05,170.68-4.86,5.78-14.11,7.63-13.88-1.16.23-3.24,6.71-19.2,8.09-24.28,13.65-55.28,2.31-109.39-41.17-147.32-2.78-2.08-12.49-10.64-14.57-9.25h0ZM771.73,524.74c5.78-8.33,11.56-19.43,15.26-28.91,21.74-54.58,18.04-121.42-18.27-169.06-6.94-9.02-15.96-15.73-22.2-24.98,1.39-7.86,26.37-27.29,24.75-33.54-.46-1.16-1.39-2.31-2.78-2.78-1.85-.46-11.1-1.16-14.11-1.39-24.05-1.62-50.19-2.54-74.24-3.24-4.39-.23-18.73-1.39-20.12,3.01l26.13,105.23h6.24c3.93-4.16,15.5-22.9,19.66-23.59,5.55.46,11.56,6.01,16.19,9.71,21.97,17.58,40.01,44.87,47.41,71.93,8.79,32.61,4.86,65.68-3.93,97.6h0Z"/>
  <path class="st0" d="M444.24,343.88c-2.31,1.85-6.94,1.62-9.94,1.16-3.7-.69-14.34-9.25-16.19-8.09-7.4,11.8-13.88,25.67-16.19,39.78-3.7,23.59,3.47,49.03,15.73,69.15,3.01,5.09,17.35,21.97,17.81,24.98.69,4.63-2.78,6.24-6.94,5.78-7.63-1.16-29.14-23.36-34.46-30.07-30.76-38.39-40.24-89.74-18.73-135.07-5.32-2.31-22.67-10.87-23.82-16.19-2.08-9.48,3.47-10.87,10.18-14.34,15.73-8.09,41.86-19.2,58.28-24.75,7.17-2.31,16.42-4.39,18.5,5.55,4.86,23.13,3.93,49.96,8.79,73.32.46,2.31-1.39,7.4-3.01,8.79h0ZM417.18,459.06c-4.16-9.02-10.18-16.65-14.11-25.9-12.72-30.07-11.8-63.37,3.93-92.05,1.62-2.78,7.17-12.72,9.71-13.41,3.93-.93,15.26,9.48,19.66,10.64,4.63,1.16,3.7-5.09,3.47-8.09-1.16-17.35-4.16-47.87-7.63-64.53-.46-2.31-1.16-4.86-3.7-5.09l-70.54,30.07c-1.16,4.86,24.28,13.18,25.21,18.73.69,3.93-4.16,10.87-5.55,15.26-15.26,46.02-3.24,89.27,28.68,124.43,1.39,1.85,9.94,10.87,10.87,9.94h0Z"/>
  <path class="st0" d="M254.82,297.63c6.01,6.01,6.71,13.18-1.62,17.58-21.74,4.39-43.71,12.49-65.45,16.65-10.64,2.08-18.73,3.47-19.89-9.94-.93-10.41,1.62-25.44,2.31-36.08.46-7.17-.46-14.57,0-21.97.23-3.93,1.16-14.34,2.54-17.11,2.54-5.32,8.09-6.24,13.18-3.93,3.93,1.85,15.5,14.8,18.73,13.88,1.62-.46,5.09-4.86,6.71-6.48,44.64-36.31,109.16-41.86,157.96-9.25,3.93,2.54,11.1,6.94,8.33,12.49-.69,1.16-1.85,2.08-3.24,2.08-3.93.46-18.27-5.55-23.59-6.94-31.22-7.17-64.06-1.85-89.04,18.96-3.01,2.54-16.65,15.73-17.58,18.73-1.62,3.47,8.09,8.79,10.64,11.33h0ZM354.73,242.35c-3.47-3.93-9.94-6.01-14.8-7.63-44.64-16.19-90.66-8.79-126.28,22.67-5.09,4.63-5.78,11.33-14.34,6.24-3.01-1.85-17.81-16.19-19.2-15.73-4.39.93-2.54,25.21-2.78,30.07-.46,7.63-4.39,43.48-1.85,47.64,1.16,1.85,7.17-.23,9.25-.69,21.51-4.16,43.71-12.03,65.22-16.88.46-.46,1.39-1.16,1.62-1.85.69-4.63-20.35-12.49-16.65-21.05,1.85-4.39,14.57-17.35,18.73-21.05,27.98-24.05,65.68-30.76,101.07-21.74h0Z"/>
  <path class="st0" d="M619.78,690.8c-4.39-3.93-2.08-20.35-5.32-21.51-2.78-.93-18.5,2.31-22.43,3.47-27.75,7.63-50.88,33.07-61.06,59.21-1.62,3.93-5.55,21.97-6.71,23.36-2.54,2.54-7.63,1.16-9.02-1.85-1.16-2.54-.93-12.49-.69-15.96,3.01-47.41,32.61-92.51,77.48-109.63,6.24-2.31,12.95-3.47,18.96-6.24,2.78-3.24-9.02-32.15,9.94-27.75,7.4,1.62,34.69,18.73,43.02,23.82,8.79,5.32,30.07,14.34,19.2,26.83-13.65,15.73-35.85,30.07-50.42,45.79-2.78,2.54-10.64,2.54-12.95.46h0ZM625.1,685.71l3.93-1.16c4.86-6.71,49.72-44.17,49.72-47.64,0-2.08-6.01-5.32-7.86-6.48-16.42-10.87-35.62-20.58-52.96-30.3-.93.69-1.62,1.16-1.62,2.54-.23,4.39,5.55,23.13,1.85,25.67-52.04,7.17-92.74,54.58-95.98,106.39l10.64-22.67c17.58-30.99,48.8-49.96,84.65-50.42,8.33,1.39,5.32,17.81,7.63,24.05h0Z"/>
  <path class="st0" d="M656.09,562.67c-.46-.46-2.08-3.01-2.31-3.7-1.62-7.17-1.16-39.55-.23-47.87,1.39-14.11,10.41-9.71,18.27-3.01h2.31c15.73-20.82,18.5-45.1,7.4-68.92-2.08-4.16-16.88-22.43-5.55-22.43,4.86,0,17.11,15.73,20.12,20.12,15.26,22.2,20.12,50.19,12.03,76.09-.93,3.24-6.48,13.88-6.24,15.5.46,4.39,24.05,11.56,8.33,21.51-14.11,2.08-31.92,12.03-45.1,13.88-3.24.46-6.71.69-9.02-1.16ZM660.02,556.43c1.85.23,3.7-.23,5.55-.46,8.79-1.85,29.37-8.09,37.7-11.56,8.33-3.47-9.71-8.33-10.41-13.65-.69-4.16,4.39-9.71,6.01-13.65,8.09-20.12,7.4-42.79-.93-62.68-1.62-3.93-4.39-8.33-6.71-11.8-.69,6.01,3.01,11.33,3.7,17.11,2.08,17.35-2.54,35.39-12.72,49.26-8.56,11.8-8.56,8.79-19.89.93l-2.08,1.16v45.33h-.23Z"/>
  <path class="st0" d="M494.89,566.37c1.16,7.17,12.72,14.11,2.31,20.35-12.03-.23-24.75,0-36.77-.69-3.24-.23-10.18-.69-12.95-1.39-4.86-1.16-5.55-5.55-4.86-9.94,1.16-7.86,9.25-30.53,12.49-38.85,1.62-4.16,2.54-6.94,7.4-6.94,8.09,0,10.18,11.8,14.34,12.26,26.37-12.72,57.59-11.8,82.57,3.93,4.16,2.54,26.83,20.12,19.89,25.21-3.93,2.78-18.5-8.33-23.59-10.41-21.97-9.25-40.94-5.09-60.83,6.48h0ZM464.13,536.77l-2.31.69-12.03,39.78,42.56,2.31c-.93-5.32-9.25-9.94-5.55-15.73.46-.93,15.26-9.48,17.35-10.18,16.42-7.17,33.77-7.4,50.65-1.39-14.57-12.26-40.01-14.8-58.28-10.64-5.09,1.16-18.73,8.56-21.97,8.33-2.54-.46-9.02-9.94-10.41-13.18Z"/>
</svg>