<svg xmlns="http://www.w3.org/2000/svg" class="card-img-top mx-auto" width="93.208" height="95.305" viewBox="0 0 93.208 95.305">
								<defs>
									<style>
										.a {
											fill: #ff804c;
										}

										.b {
											fill: #4f5c70;
										}
									</style>
								</defs>
								<g transform="translate(0 0)">
									<path class="a" d="M68.093,82.18a6.286,6.286,0,1,0,6.279,6.272A6.286,6.286,0,0,0,68.093,82.18Zm0,10.467a4.188,4.188,0,1,1,2.964-1.229,4.188,4.188,0,0,1-2.964,1.229Z" transform="translate(-17.856 -23.744)"></path>
									<path class="a" d="M78.791,67.86,69.369,53.226a1.045,1.045,0,0,0-.882-.476H56.975A1.045,1.045,0,0,0,55.93,53.8V79.949a1.045,1.045,0,0,0,1.045,1.045h4.188V78.91H58.021V54.841h9.9l8.945,13.916V78.91H71.623v2.1H77.9a1.045,1.045,0,0,0,1.052-1.06v-11.5A1.059,1.059,0,0,0,78.791,67.86Z" transform="translate(-16.16 -15.241)"></path>
									<path class="a" d="M40.816,42.44H1.045A1.045,1.045,0,0,0,0,43.492V76.97a1.045,1.045,0,0,0,1.045,1.045H9.422V75.932H2.091V44.538H39.777V75.932H19.91v2.1H40.816a1.045,1.045,0,0,0,1.045-1.06V43.492a1.045,1.045,0,0,0-1.045-1.052Z" transform="translate(0 -12.262)"></path>
									<rect class="a" width="16.113" height="3.178" transform="translate(65.077 46.063)"></rect>
									<rect class="a" width="20.55" height="3.178" transform="translate(60.64 30.178)"></rect>
									<rect class="a" width="16.113" height="3.178" transform="translate(65.077 61.949)"></rect>
									<rect class="a" width="20.55" height="3.178" transform="translate(60.64 77.834)"></rect>
									<path class="b" d="M102.667,17.471a1.586,1.586,0,0,0-.448-1.123L86.334.462A1.571,1.571,0,0,0,85.21,0H37.568A4.764,4.764,0,0,0,32.8,4.764V30.178h3.179V4.764a1.586,1.586,0,0,1,1.586-1.586h46.07V14.3A4.764,4.764,0,0,0,88.4,19.064H99.524V90.541a1.593,1.593,0,0,1-1.593,1.593H37.554a1.586,1.586,0,0,1-1.586-1.593V65.767H32.79V90.541a4.764,4.764,0,0,0,4.764,4.764H97.917a4.764,4.764,0,0,0,4.764-4.764V17.471ZM88.4,15.885A1.586,1.586,0,0,1,86.81,14.3V5.425l10.467,10.46Z" transform="translate(-9.474 0)"></path>
									<path class="a" d="M18.053,82.18a6.286,6.286,0,1,0,6.279,6.272A6.286,6.286,0,0,0,18.053,82.18Zm0,10.467a4.188,4.188,0,1,1,4.181-4.2A4.188,4.188,0,0,1,18.053,92.647Z" transform="translate(-3.398 -23.744)"></path>
								</g>
							</svg>