<svg xmlns="http://www.w3.org/2000/svg" class="card-img-top mx-auto" width="91.632" height="84.616" viewBox="0 0 91.632 84.616">
								<defs>
									<style>
										.a {
											fill: #4f5c70;
										}

										.b {
											fill: #ff804c;
										}
									</style>
								</defs>
								<g transform="translate(0 0)">
									<path class="b" d="M91.632,5.369A5.376,5.376,0,0,0,86.263,0H5.369A5.376,5.376,0,0,0,0,5.369V57.25A36.282,36.282,0,0,0,1.668,68.124l2.026,6.461v8.094a1.792,1.792,0,1,0,3.577,0V74.311a1.812,1.812,0,0,0-.082-.535L5.08,67.054a32.72,32.72,0,0,1-1.5-9.8V44.625a1.806,1.806,0,1,1,3.611,0v4.387a1.792,1.792,0,1,0,3.577,0V42a1.806,1.806,0,1,1,3.6,0v7.03a1.792,1.792,0,0,0,3.584,0V39.716a1.806,1.806,0,1,1,3.6,0v9.309a1.792,1.792,0,0,0,3.584,0V27.963a1.806,1.806,0,0,1,3.6,0v26.02a1.792,1.792,0,0,0,3.364.851l4.222-7.813a2,2,0,0,1,3.7,1.421L37.286,59.777a17.218,17.218,0,0,1-2.849,6.179l-5.362,7.339a1.8,1.8,0,0,0-.343,1.05v8.369a1.792,1.792,0,1,0,3.577,0V74.9l5.019-6.865a20.781,20.781,0,0,0,3.433-7.415l1.586-6.577h6.92l1.586,6.577a20.8,20.8,0,0,0,3.433,7.415L59.3,74.9v7.778a1.792,1.792,0,1,0,3.584,0V74.311a1.8,1.8,0,0,0-.343-1.05l-5.355-7.353a17.1,17.1,0,0,1-2.849-6.179L51.586,48.394a2,2,0,0,1,3.7-1.421l4.236,7.861a1.792,1.792,0,0,0,3.364-.851V27.963a1.806,1.806,0,0,1,3.6,0V49.025a1.792,1.792,0,1,0,3.577,0V39.716a1.806,1.806,0,0,1,3.611,0v9.309a1.792,1.792,0,1,0,3.577,0V42a1.806,1.806,0,0,1,3.611,0v7.03a1.792,1.792,0,1,0,3.577,0v-4.4a1.806,1.806,0,0,1,3.6,0V57.25a32.714,32.714,0,0,1-1.5,9.8l-2.108,6.721a1.812,1.812,0,0,0-.082.536v8.369a1.792,1.792,0,1,0,3.577,0V74.585l2-6.46A36.284,36.284,0,0,0,91.6,57.25V5.369ZM48.119,49.307l.288,1.188H43.252l.288-1.188a5.568,5.568,0,0,0-1.874-5.616h8.321a5.561,5.561,0,0,0-1.867,5.588ZM88.048,39.6a5.218,5.218,0,0,0-1.8-.316,5.41,5.41,0,0,0-2.286.508,5.382,5.382,0,0,0-7.339-2.575,5.382,5.382,0,0,0-4.751-2.89,5.451,5.451,0,0,0-1.806.309V27.963a5.382,5.382,0,0,0-10.765,0V46.9l-.851-1.593A5.582,5.582,0,0,0,54.71,42.5a1.867,1.867,0,0,0,.11-.625,1.785,1.785,0,0,0-1.785-1.792H40.622a1.785,1.785,0,0,0-1.785,1.8,1.744,1.744,0,0,0,.1.57,5.554,5.554,0,0,0-5.753,2.863L32.322,46.9V27.963a5.382,5.382,0,1,0-10.765,0v6.68A5.389,5.389,0,0,0,15,37.19a5.4,5.4,0,0,0-7.332,2.575,5.41,5.41,0,0,0-2.286-.508,5.259,5.259,0,0,0-1.806.316V5.369A1.792,1.792,0,0,1,5.369,3.577H86.263a1.792,1.792,0,0,1,1.785,1.792Z" transform="translate(0)"></path>
									<path class="a" d="M23.609,29.2h-7.7a1.792,1.792,0,0,0,0,3.577h7.7a1.792,1.792,0,1,0,0-3.577Z" transform="translate(-4.461 -9.152)"></path>
									<path class="a" d="M51.846,29.2H49.031a1.792,1.792,0,1,0,0,3.577h2.815a1.792,1.792,0,1,0,0-3.577Z" transform="translate(-14.773 -9.152)"></path>
									<path class="a" d="M18.958,43.79h-3.1a1.792,1.792,0,0,0,0,3.584h3.1a1.792,1.792,0,1,0,0-3.584Z" transform="translate(-4.41 -13.727)"></path>
									<path class="a" d="M58.658,43.79H55.322a1.792,1.792,0,1,0,0,3.584h3.337a1.792,1.792,0,1,0,0-3.584Z" transform="translate(-16.78 -13.727)"></path>
									<path class="a" d="M22.1,14.6H15.922a1.792,1.792,0,0,0,0,3.577H22.1a1.792,1.792,0,1,0,0-3.577Z" transform="translate(-4.464 -4.575)"></path>
									<path class="a" d="M50.551,14.6H44.9a1.792,1.792,0,1,0,0,3.577h5.65a1.792,1.792,0,1,0,0-3.577Z" transform="translate(-13.479 -4.575)"></path>
									<path class="a" d="M36.306,15.117a1.8,1.8,0,1,0,.522,1.263A1.826,1.826,0,0,0,36.306,15.117Z" transform="translate(-10.416 -4.572)"></path>
									<path class="a" d="M67.348,29.2H62.611a1.792,1.792,0,1,0,0,3.577h4.737a1.792,1.792,0,1,0,0-3.577Z" transform="translate(-19.03 -9.152)"></path>
									<path class="a" d="M83.215,29.762a1.792,1.792,0,1,0,.289,2.166A1.792,1.792,0,0,0,83.215,29.762Z" transform="translate(-25.127 -9.166)"></path>
									<path class="a" d="M113.027,29.2h-6.735a1.792,1.792,0,0,0,0,3.577h6.735a1.792,1.792,0,1,0,0-3.577Z" transform="translate(-32.792 -9.152)"></path>
									<path class="a" d="M77.043,43.79H73.432a1.792,1.792,0,1,0,0,3.584h3.611a1.792,1.792,0,1,0,0-3.584Z" transform="translate(-22.457 -13.727)"></path>
									<path class="a" d="M114.028,43.79h-3.337a1.792,1.792,0,1,0,0,3.584h3.337a1.792,1.792,0,1,0,0-3.584Z" transform="translate(-34.136 -13.727)"></path>
									<path class="a" d="M70.706,14.6H65.962a1.792,1.792,0,0,0,0,3.577h4.744a1.792,1.792,0,1,0,0-3.577Z" transform="translate(-20.15 -4.575)"></path>
									<path class="a" d="M113.246,14.6h-5.925a1.792,1.792,0,1,0,0,3.577h5.925a1.792,1.792,0,0,0,0-3.577Z" transform="translate(-33.045 -4.575)"></path>
									<path class="a" d="M92.1,14.6h-3.92a1.792,1.792,0,1,0,0,3.577H92.1a1.792,1.792,0,0,0,0-3.577Z" transform="translate(-27.045 -4.575)"></path>
								</g>
							</svg>