<?xml version="1.0" encoding="UTF-8"?>
<svg id="Camada_1" xmlns="http://www.w3.org/2000/svg" version="1.1" viewBox="0 0 1000 1000">
  <!-- Generator: Adobe Illustrator 29.8.3, SVG Export Plug-In . SVG Version: 2.1.1 Build 3)  -->
  <defs>
    <style>
      .st0 {
        fill: #495173;
        stroke: #495173;
        stroke-miterlimit: 10;
        stroke-width: 22px;
      }
    </style>
  </defs>
  <path class="st0" d="M977.24,562.03c.77-120.24,1.15-245.07-1.91-366.84-1.91-6.51-10.34-20.3-16.08-25.27-9.96-8.81-28.72-14.17-42.12-14.93H80.81c-32.17,2.68-53.61,21.44-58.59,52.08l.38,586.64c2.3,27.95,24.12,49.4,53.61,51.31h851.62c23.74-2.68,49.01-22.21,49.78-49.78-.77-77.73-.38-156.62-.38-233.2ZM913.29,183.7l4.6,9.19-387.9,334.29c-8.04,7.28-20.68,12.64-31.02,12.64-.38,0-.77-.38-.77-.38-12.64-.38-30.63-14.93-49.78-31.78-2.68-1.91-4.98-4.21-6.89-5.74-59.35-49.4-118.71-101.48-176.15-152.02-57.44-50.16-116.79-102.24-176.15-151.64l-1.15-1.53-7.66-13.02h832.86ZM50.94,792.55V205.53l342.72,295.24L50.94,792.55ZM88.47,816.3c-2.3-.38-5.36-3.06-5.74-6.51-.38-2.68,1.15-5.36,3.83-6.51l331.23-282.98,3.06,1.91c7.28,4.98,14.17,11.1,20.68,17.23,12.64,11.49,25.66,23.74,40.59,26.8,5.74,1.15,16.85,1.91,22.98,1.91,23.74-.77,41.74-16.85,58.97-32.17,5.36-4.98,10.72-9.57,16.08-13.79l3.06-2.68,3.06,2.68,337.74,294.47-835.54-.38h0ZM950.43,780.3c0,1.15-1.91,6.51-4.98,8.04l-1.91,1.15-3.45-1.91-330.08-284.51v-2.3c.38-5.36,6.51-11.49,18.38-21.83l2.68-2.3c74.29-67.01,152.4-132.87,227.84-196.82l44.04-37.14c3.83-3.06,7.66-6.51,11.49-9.57,8.04-6.51,16.47-13.02,23.74-20.3l2.68-2.68,9.57,5.74v564.43h0Z"/>
</svg>