<?xml version="1.0" encoding="UTF-8"?>
<svg id="Camada_1" data-name="Camada 1" xmlns="http://www.w3.org/2000/svg" viewBox="0 0 989.8525624487 999.7466007395">
  <defs>
    <style>
      .cls-1 {
        fill: #e27f50;
      }

      .cls-2 {
        fill: #495173;
      }
    </style>
  </defs>
  <path class="cls-2" d="M817.9745197818,892.5580659399c-2.4454207897,61.5416128903-30.1595678518,96.5918668495-83.9575814494,107.1885347996H83.1423634501c-47.2770469637-6.9284590295-79.8819578692-43.2015011196-83.1423634501-91.7011807421V94.5540161914C4.0756235802,45.6466887012,41.1636504615,7.3360291611,86.402846767,5.298178503l308.1159455274-.4075701316c2.0377729221.4075701316,4.0756235802,2.0377729221,4.4831937118,3.2604833169.8151402633,4.4831937118.4075701316,23.2309533502,0,28.9367797209-.4075701316,3.2604833169-.8151402632,5.298256239-2.4453430537,6.9285367655l-310.1537961855.8151402632c-24.4536637451,3.2604833169-44.4241337784,23.6385234819-46.8694768321,48.092187227-2.4453430537,21.6007505598-1.6302805265,47.6846170953-.8151402633,72.9533433676.4075701316,13.4495033994.8151402633,25.6762964039.8151402633,37.4955970129-.4075701316,99.4448577709-.4075701316,200.5199183322-.4075701316,298.7420657082,0,120.637960463.4075701316,245.3516222422-.8151402633,367.6198632317v.8151402633c-.4075701316,38.3106595401-.8151402632,81.9196530552,50.9451004123,90.0709002156h642.3159130624c25.2687262723-4.8906861074,43.2015011196-23.2309533502,47.6845393593-49.7224677535l.4074923956-277.1413151484c.4074923956-1.2226326588.8151402633-1.6302805265.8151402633-1.6302805265,2.4454207897-1.2226326588,14.6722137943-.8151402633,19.1554075061-.8151402633h4.4831937118c1.6302805265,0,3.260561053-.4074923956,4.4831937118-.8151402632,1.2226326588-.4074923956,2.0377729221-.4074923956,2.8529131853-.4074923956,3.260561053.4074923956,6.5209666339,3.260561053,6.5209666339,6.1134742383-1.2226326588,40.7560803298-.4074923956,82.7347933185.4074923956,123.4908736483.4076478677,43.6091489872,1.2227881309,88.8484230289-.4074923956,132.8649089396Z"/>
  <path class="cls-1" d="M939.0199726404,113.7094236975C886.4445917016,39.9409400666,806.1552191729,0,710.7859849822,0c-7.7435992927,0-15.0797061898.4075701316-22.8234609547.8151402632-90.8860404789,6.1133965023-186.6628448012,76.2139044206-222.120668892,164.2470317142-36.272886618,88.8482675568-26.4914366672,187.885555196,25.6762964039,264.9144444078,50.9451004123,75.3986864213,133.6799714668,118.6001875409,226.1962924722,118.6001875409h2.0377729221c102.7053410878-.8151402633,191.9611010402-56.2434343874,239.2381480039-148.7596776567,47.2772024358-92.5163210054,39.9410955387-202.1501988587-19.9703922972-286.107702572ZM874.2179541692,433.2370219661c-42.3863608563,42.3863608563-97.4070071127,65.2096663389-155.2807220266,65.2096663389-21.6006728237,0-44.0166413828-3.260561053-66.0248066021-9.7815276869-80.2894502648-23.6386012179-138.1630874426-85.5877842398-154.8730741589-165.8772345046-13.857073531-66.0248843382,1.6302805265-134.0875415984,42.7938532519-187.4779850644,39.1257998033-50.9451004123,95.7767265862-81.104590528,158.9487754752-84.365073845,4.8906861074-.4075701316,9.7815276869-.4075701316,14.6722137943-.4075701316,45.2392740416,0,85.9953543715,11.4117304773,120.637960463,33.4199734327,57.8735594417,36.6804567496,95.3692341907,96.9995147172,103.1128334834,165.469664373,7.7435992927,68.0628904684-15.4873540575,135.3104074654-63.9870336801,183.8100870879Z"/>
  <path class="cls-2" d="M262.0615312225,800.0417449345c-.4075701316,4.0755458441-1.2227103949,6.1134742383-3.6680534486,8.1512471604-4.0756235802,2.8529131853-16.3024165847,3.260561053-21.1931804282,1.2226326588-2.8529131853-1.2226326588-8.1512471604-8.9663874236-15.4872763215-23.2309533502l-.8151402632-1.2226326588c-4.8907638434-8.9663874236-8.9663096876-18.3402672428-13.0419332678-27.3064991944-3.6680534486-7.7435992927-7.3361068971-15.8948464531-11.4117304773-23.6386012179-1.2227103949-2.0377729221-2.4453430537-3.6680534486-4.0756235802-4.8906861074-1.6302805265-2.0377729221-2.8529131853-2.8529131853-2.8529131853-4.8906861074l-.4075701316-4.0755458441-4.0756235802,1.2226326588c-8.558739556,2.4454207897-7.3361068971,11.819300609-6.5209666339,16.7099867163.4075701316,1.6302805265.4075701316,2.8529131853.4075701316,3.6680534486,0,4.4831937118.4075701316,9.3738798192.4075701316,14.6722137943.4075701316,16.3024943208,1.2227103949,34.6426060915-.4075701316,47.2770469637-.8151402632,6.1134742383-6.5209666339,6.9284590295-8.9663096876,6.9284590295h-.4075701316c-5.298256239,0-10.1890200825-2.8529131853-10.5965902141-5.7058263706l.4075701316-119.4153278042c2.4453430537-2.0377729221,15.0797839259-3.260561053,26.0838665356-2.0377729221,6.1133965023.8151402632,8.9663096876,5.7058263706,12.6343631362,13.857073531.8151402632,2.4454207897,2.0377729221,4.4831937118,3.2604833169,6.5209666339,1.2227103949,2.4454207897,3.2604833169,5.2983339751,4.8907638434,7.7435992927,2.0377729221,3.260561053,4.0756235802,6.5209666339,5.7058263706,9.3738798192,2.4453430537,4.4831937118,4.4831937118,9.3738798192,6.5209666339,14.2645659266,2.8529131853,6.9284590295,6.1133965023,14.2645659266,9.7814499508,19.9705477693,2.4453430537,3.6680534486,5.7058263706,5.7058263706,8.9663096876,4.8906861074,5.298256239-.8151402633,5.7058263706-15.8948464531,5.7058263706-15.8948464531,0-2.4454207897-.4075701316-4.4831937118-.8151402632-6.1134742383-.4075701316-1.2226326588-.4075701316-2.4454207897-.4075701316-3.6680534486,0-17.9326193752,0-33.8276213004.4075701316-49.3148198858.8151402632-1.6302805265,6.1133965023-3.260561053,11.819300609-2.8529131853,3.6680534486.4074923956,7.7436770288,2.0377729221,7.7436770288,3.6680534486-1.2227103949,17.9326193752-.4075701316,37.0880268813,0,55.8357865197,1.2227881309,19.5630553738,2.0379283942,39.9410955387.4076478677,58.2812073094Z"/>
  <path class="cls-2" d="M469.9175564518,795.1510588272c-10.1890200825,12.2267930045-28.5292873253,19.1554075061-46.8694768321,17.1174791119-4.0756235802-.4074923956-20.3780401649-6.9284590295-22.415813087-8.9663874236-2.8529131853-2.4454207897-3.6680534486-11.0041603457-2.0377729221-15.4873540575.4075701316-1.2226326588,1.2227103949-2.0377729221,1.6302805265-2.0377729221,1.2227103949,0,5.298256239,2.0377729221,8.558739556,3.260561053,6.5209666339,2.8529131853,13.0419332678,5.7058263706,17.117556848,6.1134742383,7.3361068971.8151402632,24.0460936135-2.8529131853,27.714147062-11.819300609,7.3361068971-17.5251269796-13.4495033994-26.8990067988-27.3065769304-33.0124810371-3.6680534486-1.6302805265-7.3361068971-3.260561053-9.3738798192-4.4831937118-14.2646436626-8.558739556-21.1931804282-22.415813087-18.3402672428-36.272886618,1.6302805265-7.7435992927,5.7058263706-14.2645659266,11.4117304773-19.1554075061,6.1133965023-4.8906861074,13.4495033994-8.558739556,22.415813087-10.1890200825,8.9663096876-1.2226326588,35.8653164864,1.6302805265,38.3107372761,6.1134742383,1.6302805265,2.4454207897,2.0377729221,13.857073531.8151402632,15.8948464531-1.6302805265.4074923956-7.7436770288-1.2226326588-11.0041603457-2.4454207897-3.6680534486-1.2226326588-6.5209666339-2.0377729221-8.558739556-2.0377729221-6.5209666339-.4074923956-25.6762964039-2.4454207897-29.3443498525,11.4116527413-2.4453430537,8.9663874236,2.0377729221,14.2645659266,6.9285367655,17.9326193752,5.7058263706,4.0755458441,12.2267930045,7.3361068971,18.7477596384,9.7815276869,12.2267930045,4.8906861074,23.6385234819,9.7815276869,27.714147062,23.6386012179,4.8906083713,16.3024943208-.8152179993,27.7143025342-6.1135519744,34.6427615636Z"/>
  <path class="cls-2" d="M321.5654489268,718.9372321426c0,6.9284590295.8151402633,15.8948464531,4.4831937118,18.3402672428,3.2604833169,2.4454207897,10.5965902141,2.0377729221,22.0083206914,1.6302805265,6.5209666339-.4074923956,13.857073531-.8151402632,16.7099867163,0,0,0,.8151402632.4074923956,1.2227103949,2.0377729221,1.6302805265,4.4831937118.8151402633,11.819300609-.4075701316,13.0419332678-1.2227103949.8151402632-5.7058263706,1.6302805265-20.7856102965,1.2226326588h-2.4453430537c-1.2227103949,0-2.4453430537-.4074923956-3.6680534486-.4074923956-4.4831937118-.8151402632-10.1890200825-1.6302805265-14.2646436626,2.4454207897-3.2604833169,3.6680534486-3.2604833169,11.4116527413-2.8529131853,24.4535860091.4075701316,9.3738798192,1.2227103949,23.2309533502-2.0377729221,26.0838665355-2.4453430537,2.0377729221-12.2267930045,3.260561053-18.3402672428.8151402633-3.6680534486-1.6302805265-3.6680534486-3.6680534486-3.6680534486-4.0755458441v-116.5624146188c0-2.8529131853,2.4453430537-4.8906861074,4.4831937118-6.1134742383l63.1718934168-.4074923956c2.8529131853.4074923956,4.4831937118,4.0755458441,4.4831937118,7.3361068971.4075701316,4.0755458441-1.2227103949,8.1512471604-3.2604833169,8.9663874236-3.2604833169,1.2226326588-11.4117304773.8151402632-18.3402672428.4074923956-11.4117304773-.4074923956-18.7477596384-.8151402633-22.0083206914,1.6302805265-3.6680534486,3.2604055809-4.4831937118,12.2266375324-4.4831937118,19.155252034Z"/>
  <path class="cls-2" d="M600.3370446017,767.8445596328l1.2226326588-.4074923956,50.129960149-1.2226326588c1.2226326588-.8151402632,3.260561053-4.4831937118,3.260561053-5.7058263706,0-4.0755458441-1.2226326588-15.4873540575-2.0377729221-20.3780401649-3.260561053-16.3024943208-24.0460936135-25.67637414-40.7560803298-24.4535860091-13.0419332678.8151402633-23.2309533502,5.2983339751-30.1594901157,13.4495811355-8.558739556,9.7815276869-12.2267930045,25.2687262723-10.5965902141,44.0166413828.8151402632,11.819300609,6.1133965023,21.6006728237,14.6722137943,28.5292873253,11.0041603457,8.1512471604,27.3064991944,11.4116527413,43.2015011196,8.558739556,10.1890200825-2.0377729221,20.7855325605-4.4831937118,20.3780401649-13.4495811355,0-1.2226326588-.4074923956-3.6680534486-1.2226326588-4.4831937118-2.0377729221-1.6302805265-8.1512471604.4074923956-12.6344408722,1.6302805265-3.260561053,1.2226326588-6.1134742383,2.0377729221-8.558739556,2.0377729221-8.1512471604.8151402632-14.6722137943.4074923956-22.415813087-4.4831937118-5.7058263706-3.260561053-12.2267930045-9.3738798192-11.819300609-15.4873540575.4074146595-2.0380838663,1.6300473183-5.7061373149,7.335951425-8.1514026325ZM594.631140495,749.0966445223c-.8151402633-10.596512478,9.7814499508-19.5628999017,19.5629776377-20.3780401649h1.2226326588c6.5209666339,0,14.2645659266,4.8906861074,17.5251269796,11.0041603457,2.4454207897,4.4831937118,2.0377729221,9.3738798192-.8151402632,13.0419332678-2.4454207897,2.8529131853-8.1512471604,3.6680534486-13.857073531,3.6680534486-8.9663874236,0-18.7477596384-2.0377729221-19.1554075061-2.0377729221l-1.2226326588-.4074923956-2.8529131853-4.0755458441-.4075701316-.8152957354Z"/>
  <path class="cls-2" d="M548.1692337945,760.9159451312c0,2.8529131853-1.6302805265,6.1134742383-4.8907638434,6.9284590295-6.9285367655,1.2226326588-23.2309533502,1.6302805265-30.1594901157,1.2226326588h-.8151402632c-5.7058263706-.4074923956-8.1512471604-1.2226326588-8.558739556-3.6680534486-1.2227103949-4.4831937118-.8151402633-7.3361068971,0-8.9663874236.8151402632-1.2226326588,2.8529131853-2.0377729221,5.298256239-2.4454207897,6.5209666339-.8151402633,29.7519199841-1.2226326588,34.6426838276.4074923956,3.6680534486.4079588119,4.4831937118,3.6683643928,4.4831937118,6.5212775781Z"/>
  <path class="cls-1" d="M840.3903328688,202.5576912543c-33.8276213004,38.3107372761-67.2475947331,75.806334289-99.4447800348,114.1169938291-6.9284590295,8.558739556-14.2645659266,17.5251269796-21.1931804282,26.4914366672-10.1890200825,13.0419332678-20.3780401649,26.4914366672-30.9745526429,37.9031671445l-.8151402633.8151402632c-3.260561053,3.2604833169-4.0755458441,4.0756235802-6.5209666339,2.8529131853-1.2226326588-.8151402632-5.7058263706-4.4831937118-13.4495811355-11.4117304773l-1.2226326588-1.2227103949c-9.3738798192-8.558739556-18.7477596384-17.9326971112-27.714147062-26.8990067988-6.1134742383-6.1133965023-12.6344408722-12.6343631362-18.7477596384-18.3402672428-6.1134742383-6.1133965023-12.6344408722-11.819300609-18.7477596384-17.117556848-8.9663096876-7.7436770288-17.9326971112-15.8948464531-26.0838665355-24.4536637451-2.4453430537-2.4453430537-5.7058263706-6.5209666339-6.9285367655-8.558739556.4075701316-.4075701316.8151402633-1.2227103949,1.2227103949-1.6302805265.8151402632-.8151402632,1.2227103949-1.6302805265,2.0377729221-2.4453430537,2.8529131853-3.2604833169,18.7477596384-20.3780401649,20.7856102965-21.6007505598,2.8529131853-1.2227103949,3.2604833169-1.2227103949,6.5210443699.8151402632,3.6680534486,2.4453430537,7.3361068971,6.5209666339,10.596512478,10.5965902141,2.4454207897,2.8529131853,4.8906861074,5.298256239,7.3361068971,7.7436770288,5.7058263706,5.298256239,11.4116527413,10.5965902141,17.5251269796,15.8948464531,8.1512471604,7.3361068971,16.3024943208,14.6722137943,24.4535860091,22.415813087.8151402632.8151402632,2.0377729221,2.4453430537,3.6680534486,3.6680534486,6.1134742383,7.3361068971,15.4873540575,17.9326971112,23.2309533502,12.2267930045l.8151402633-.8151402632c2.8529131853-3.6680534486,5.7058263706-7.3361068971,8.558739556-11.4117304773,3.260561053-4.4831937118,6.9284590295-9.3738798192,10.596512478-13.857073531,1.2226326588-1.2227103949,2.0377729221-2.4453430537,3.260561053-3.6680534486,1.2226326588-1.2227103949,2.4454207897-2.8529131853,3.6680534486-4.0756235802,6.9284590295-8.1512471604,13.857073531-16.3024165847,20.7855325605-24.8612338767,24.0460936135-28.5292873253,48.4996796225-57.8736371778,73.7685613669-85.5877842398l.4074923956-.4075701316c3.260561053-3.6680534486,5.7058263706-6.1133965023,6.5209666339-6.1133965023.4074923956,0,1.2226326588.4075701316,2.4454207897,1.2227103949,2.0377729221,1.6302805265,22.0083206914,19.9704700333,23.6386012179,21.6007505598-.4076478677.0001554721,2.03761745,3.6682089207-.0001554721,6.1136297104Z"/>
</svg>