<svg width="30" height="30" viewBox="0 0 30 30" fill="none" xmlns="http://www.w3.org/2000/svg">
  <path d="M19.7456 4.34609C19.9216 4.52225 20.1413 4.64829 20.3822 4.71121C20.6231 4.77413 20.8765 4.77165 21.1161 4.70404C21.3557 4.63642 21.573 4.50612 21.7455 4.32655C21.918 4.14699 22.0395 3.92466 22.0974 3.6825C22.2427 3.07756 22.5466 2.5223 22.9779 2.07388C23.4091 1.62547 23.9521 1.30012 24.5509 1.13133C25.1496 0.962551 25.7826 0.956437 26.3845 1.11362C26.9864 1.27081 27.5355 1.58561 27.9754 2.0256C28.4152 2.4656 28.7298 3.01489 28.8868 3.61691C29.0437 4.21893 29.0374 4.85191 28.8684 5.45067C28.6995 6.04943 28.374 6.59233 27.9254 7.02345C27.4769 7.45457 26.9216 7.75834 26.3166 7.90346C26.0745 7.96142 25.8522 8.08291 25.6726 8.25542C25.4931 8.42793 25.3628 8.6452 25.2952 8.88485C25.2276 9.12449 25.2251 9.37784 25.288 9.61876C25.3509 9.85968 25.477 10.0795 25.6531 10.2554L28.0091 12.6102C28.3229 12.924 28.5719 13.2966 28.7417 13.7067C28.9115 14.1167 28.9989 14.5562 28.9989 15C28.9989 15.4438 28.9115 15.8833 28.7417 16.2933C28.5719 16.7034 28.3229 17.076 28.0091 17.3898L25.6531 19.746C25.4771 19.9221 25.2574 20.0482 25.0165 20.1111C24.7756 20.174 24.5222 20.1715 24.2826 20.1039C24.043 20.0363 23.8257 19.906 23.6532 19.7264C23.4807 19.5469 23.3593 19.3245 23.3013 19.0824C23.156 18.4774 22.8521 17.9222 22.4208 17.4737C21.9896 17.0253 21.4466 16.7 20.8479 16.5312C20.2491 16.3624 19.6161 16.3563 19.0142 16.5135C18.4123 16.6707 17.8632 16.9855 17.4233 17.4255C16.9835 17.8655 16.6689 18.4148 16.5119 19.0168C16.355 19.6188 16.3613 20.2518 16.5303 20.8505C16.6992 21.4493 17.0247 21.9922 17.4733 22.4233C17.9218 22.8544 18.4771 23.1582 19.0821 23.3033C19.3242 23.3613 19.5465 23.4828 19.7261 23.6553C19.9056 23.8278 20.0359 24.0451 20.1035 24.2847C20.1711 24.5244 20.1736 24.7777 20.1107 25.0186C20.0478 25.2595 19.9217 25.4793 19.7456 25.6553L17.3896 28.0101C17.0758 28.3239 16.7033 28.5729 16.2932 28.7427C15.8832 28.9126 15.4438 29 15 29C14.5562 29 14.1168 28.9126 13.7068 28.7427C13.2967 28.5729 12.9242 28.3239 12.6104 28.0101L10.2544 25.6539C10.0784 25.4777 9.85867 25.3517 9.61776 25.2888C9.37686 25.2259 9.12353 25.2283 8.88391 25.296C8.64428 25.3636 8.42702 25.4939 8.25453 25.6734C8.08203 25.853 7.96055 26.0753 7.9026 26.3175C7.75728 26.9224 7.45336 27.4777 7.02212 27.9261C6.59088 28.3745 6.04792 28.6999 5.44914 28.8687C4.85037 29.0374 4.21744 29.0436 3.61552 28.8864C3.0136 28.7292 2.46445 28.4144 2.02463 27.9744C1.58481 27.5344 1.27022 26.9851 1.11324 26.3831C0.95627 25.7811 0.962594 25.1481 1.13156 24.5493C1.30053 23.9506 1.62604 23.4077 2.07456 22.9766C2.52308 22.5454 3.07841 22.2417 3.68335 22.0965C3.9255 22.0386 4.1478 21.9171 4.32735 21.7446C4.50691 21.5721 4.6372 21.3548 4.70481 21.1152C4.77242 20.8755 4.7749 20.6222 4.71198 20.3812C4.64907 20.1403 4.52304 19.9205 4.34689 19.7446L1.99089 17.3898C1.67708 17.076 1.42814 16.7034 1.2583 16.2933C1.08847 15.8833 1.00105 15.4438 1.00105 15C1.00105 14.5562 1.08847 14.1167 1.2583 13.7067C1.42814 13.2966 1.67708 12.924 1.99089 12.6102L4.34689 10.254C4.52286 10.0779 4.74263 9.95185 4.98353 9.88893C5.22443 9.82601 5.47776 9.82848 5.71739 9.8961C5.95702 9.96371 6.17428 10.094 6.34677 10.2736C6.51926 10.4531 6.64075 10.6755 6.6987 10.9176C6.84401 11.5226 7.14794 12.0778 7.57918 12.5263C8.01042 12.9747 8.55338 13.3 9.15215 13.4688C9.75092 13.6376 10.3839 13.6437 10.9858 13.4865C11.5877 13.3293 12.1368 13.0145 12.5767 12.5745C13.0165 12.1345 13.3311 11.5852 13.4881 10.9832C13.645 10.3812 13.6387 9.74823 13.4697 9.14946C13.3008 8.5507 12.9753 8.00781 12.5267 7.57669C12.0782 7.14556 11.5229 6.8418 10.9179 6.69667C10.6758 6.63872 10.4535 6.51722 10.2739 6.34472C10.0944 6.17221 9.96409 5.95494 9.89648 5.71529C9.82887 5.47564 9.8264 5.2223 9.88931 4.98138C9.95223 4.74046 10.0783 4.52068 10.2544 4.34469L12.6104 1.98992C12.9242 1.67607 13.2967 1.42712 13.7068 1.25727C14.1168 1.08742 14.5562 1 15 1C15.4438 1 15.8832 1.08742 16.2932 1.25727C16.7033 1.42712 17.0758 1.67607 17.3896 1.98992L19.7456 4.34609Z" stroke="#FF804C" stroke-width="2" stroke-linecap="round" stroke-linejoin="round"/>
  </svg>
  