<?xml version="1.0" encoding="UTF-8"?>
<svg id="Camada_1" data-name="Camada 1" xmlns="http://www.w3.org/2000/svg" viewBox="0 0 985.3734380403 1000">
  <defs>
    <style>
      .cls-1 {
        fill: #e27f50;
      }

      .cls-2 {
        fill: #495173;
      }
    </style>
  </defs>
  <path class="cls-2" d="M983.4156495996,513.899520481c-3.0937891314-33.6441454445-44.858909766-73.8625190334-76.5695107634-73.8625190334h-64.581299159V17.7445213247c0-7.3476016672-10.8279669201-15.4685768573-18.1756423473-16.2420241401-24.3630730902-2.3202680886-53.3666823575-1.5468945657-81.596844342-.3867236414-14.308405933.3867236414-28.2301619845.3867236414-40.9918208717.3867236414h-348.816684731c-111.3738271322,0-223.5211753072.3867236414-334.8950024394,0C7.7342515486,2.6626681089,0,11.9438142232,0,23.1585047847v763.3749133052c1.5468945657,44.4722598846,37.8980317403,83.5303887891,81.9835679834,87.3974776835,29.0036092673,2.3203418486,61.874381189,1.5468945657,92.8115349035.3866498814,23.5896258073-.3866498814,47.9526251375-1.5468945657,70.3820800205-.3866498814,3.4804390129,0,6.9608780258.3866498814,10.8280406801.3866498814,5.41398346.3866498814,11.2147643215,1.5468945657,16.6287477815,1.1600971643l6.5740806243-.3865023615v110.2136562079c1.1601709243,2.3203418486,5.0272598186,7.7343253086,5.8007071015,9.2812198743,3.4804390129,3.0937891314,8.8944224729,5.0273335786,13.1483087687,5.41398346l671.723623086-1.1600971643c10.0545196372-3.8670888943,14.308405933-10.8279669201,15.4686506172-23.2028284059-.3866498814-58.7806658175-.3866498814-118.3347789179,0-177.5020946169-.00014752-93.1982585449.3866498814-189.4903062213-1.9336919671-284.2354593319ZM279.2080519933,835.6462141517h-102.0926810178l1.9335444472-316.7193600922c5.0272598186-22.0427312416,21.6560076001-37.1245844574,43.3120889603-39.8315761874,21.6560076002-1.9335444472,41.3784707531,8.5077725915,50.6596168675,27.0700648202.3867236414,1.1600971643,5.8007071015,14.6952033344,5.8007071015,17.7888449458v311.6920265136h.3867236414ZM214.6266790743,439.6503515661c-5.41398346,0-27.4567147016,9.2812198743-35.1910400102,14.308405933-21.2692839587,13.1483087687-37.5113080988,39.8315761874-39.444926306,64.1946492776-2.3202680886,41.7652681546-1.1601709243,87.010827802.3867236414,130.3228430023,1.5468945657,45.2455596475,3.4804390129,92.4248112621,0,136.1236238638-3.0937153714,34.4175927274-28.2301619845,50.2728932261-50.6596168675,50.2728932261-23.5896258073-.3866498814-48.7260724203-17.4021950644-51.4330641504-54.9134294032-1.9335444472-34.0309428459-1.5468945657-71.5421771848-.3867236414-107.5066644779,0-15.8553004987.3867236414-31.7106009974.3867236414-46.4058043317,0-49.4994459432.3867236414-98.612242005,1.1601709243-148.4984853496,1.5468945657-131.0962902852,2.3202680886-267.6066377904-1.1601709243-400.2498226413v-5.0272598186c-.3867236414-7.3476016672-.3867236414-16.2420241401,0-22.0427312416.3867236414-3.0937153714.3867236414-6.9608780258,5.0272598186-9.2811461144l1.5468945657-1.1601709243h757.5742062038v399.8630989999H214.6266790743ZM945.5176178593,959.7817739311H317.1060837336v-480.686496059h588.1931605369c14.308405933,0,39.8315761874,27.0700648202,39.8315761874,41.3784707531v439.3080253059h.3867974014Z"/>
  <path class="cls-1" d="M484.5535849533,190.9927296459c-20.1091867944-39.8316499474-61.1009339061-48.3393487789-89.717819532-43.3120889603-35.9644872931,6.5741543843-62.2611048304,32.4840482802-66.1282674847,66.5149173662-2.3202680886,19.722463153-1.5468945657,41.7651943946-.3867236414,63.8079256362,1.1601709243,15.4685768573,1.5468945657,30.9371537145,1.1601709243,46.0190806903,3.0937153714,5.8007071015,7.7343253086,10.4413170386,13.9217560515,11.9881378444,5.0272598186,1.1601709243,10.8280406801,0,16.2420241401-3.4804390129,1.9335444472-1.5468945657,6.9608780258-7.7343253086,7.3476016672-10.0545933972v-35.1910400102h87.3975514435v35.5777636517c.3867236414,1.1601709243,5.41398346,7.3476016672,6.9608780258,8.8944224729,6.5741543843,5.0272598186,13.1483087687,5.8007071015,19.722463153,3.0937153714,7.3476016672-3.4804390129,12.3748614858-10.8280406801,13.1483087687-19.3357395116,2.3202680886-30.5503563131,2.70691797-100.1590628107-9.6679435158-124.5220621409ZM454.0031548803,242.0390701548l-.3867236414,5.41398346h-86.2373805192l-.3867236414-5.41398346c-2.3202680886-22.0427312416,5.0272598186-40.6050234703,20.1091867944-50.2728932261,14.308479693-8.8944224729,32.4840482802-8.8944224729,46.7924542132,0,15.0818532158,9.6678697558,22.429454883,27.8434383431,20.1091867944,50.2728932261Z"/>
  <path class="cls-1" d="M710.3951021091,291.1518662166c5.0273335786,5.41398346,10.8279669201,11.9881378444,11.2147643215,18.1755685873,1.1600971643,8.5076988315-3.8670888943,15.4685768573-9.2812198743,18.5622922287-5.8007808615,3.8671626543-12.7616588872,4.2538862957-18.5622922287,1.9335444472l-51.4331379103-55.6869504461h-2.3203418486c-5.0273335786-1.5468945657-8.5077725915,1.9335444472-34.4175927274,32.4840482802-3.8670888943,4.2538862957-6.9608780258,7.7343253086-7.7343253086,9.2811461144l-2.3203418486,2.3202680886c-11.2147643215,11.9881378444-16.6287477815,16.6287477815-29.0036092673,10.4413170386-9.2811461144-4.2538862957-12.7615851272-13.1483087687-10.4413170386-23.5896258073l55.3002268047-64.1946492776.3866498814-1.9335444472c0-3.8671626543-1.1600971643-5.8007071015-33.2574955631-40.6050234703-5.8007071015-6.9608780258-11.2147643215-12.3748614858-12.7615851272-14.3084796929l-3.0937153714-3.4804390129c-6.5741543843-7.7343253086-8.8944224729-10.4413170386-7.3476016672-20.8826340773,1.1601709243-6.9608780258,8.8944224729-14.308479693,16.2420241401-15.4685768573,5.41398346-1.1601709243,10.0545933972,0,12.7615851272,1.9335444472l53.7534059989,59.5541131004,56.0736740875-60.3274866233c8.5077725915-4.2538862957,16.2419503801-1.1601709243,21.2692839587,4.2538862957,5.8007808615,5.8007071015,9.2812198743,15.8553004987,3.8670888943,23.5896258073l-53.3663873175,61.874381189v1.9335444472c-1.1600971643,3.8671626543-1.1600971643,5.0272598186,31.7106009974,39.8316499474,4.2538862957,5.0272598186,7.7343253086,8.5076988315,9.2812198743,10.4413170386l3.4804390129,3.8671626543Z"/>
  <path class="cls-1" d="M277.2745075462,182.8716806958c-1.1601709243.3867236414-3.4804390129,2.3202680886-5.0272598186,3.4804390129h-48.7260724203v132.6431848509c-1.1601709243,1.9335444472-3.0937153714,6.9608780258-3.4804390129,7.3476016672-3.4804390129,5.41398346-9.2811461143,8.8944224729-16.2420241401,8.8944224729s-12.7615851272-3.4804390129-16.2420241401-8.5076988315c-.3867236414-1.1601709243-3.0937153714-5.8007071015-3.4804390129-7.7343253086v-127.2291276309l-5.8007071015-5.41398346h-37.5113080988c-12.3748614858,0-19.3357395116-9.2811461144-19.3357395116-18.5622922287-.3867236414-8.8944224729,5.41398346-19.722463153,22.8161785244-21.2692839587,20.1091867944-1.5468945657,41.3784707531-1.1601709243,62.2611048304,0,19.722463153.3867236414,39.8316499474,1.1601709243,58.7806658175,0,10.8280406801.3867236414,17.4021950644,8.5076988315,19.3357395116,15.4685768573,1.9334706872,7.7342515486-.3868711614,15.8552267387-7.3476754272,20.8824865573Z"/>
  <path class="cls-1" d="M658.1885169159,793.1076462343c.3866498814,7.3475279072-3.4804390129,16.2419503801-15.4686506172,20.1091867944h-219.2672890115c-11.9881378444-3.8670888943-15.4685768572-13.9217560515-14.6951295744-21.2692839587.3867236414-7.3475279072,5.41398346-15.8553004987,17.4021950644-18.1756423473l213.0797845086-.3866498814c13.5351061701,3.0936416115,18.5624397487,12.3748614858,18.9490896301,19.722389393Z"/>
  <path class="cls-1" d="M658.1885169159,650.4099417462c0,7.3475279072-3.8670888943,16.2419503801-15.4686506172,19.722389393h-216.9470209229c-12.7615851272-3.0937891314-16.6287477815-12.3748614858-16.6287477815-20.1091867944.3867236414-7.3475279072,5.0272598186-16.6287477815,17.4021950644-19.3357395116l213.0799320286-.3866498814c11.9882116044,2.3201943286,18.1756423473,11.9880640844,18.5622922287,20.1091867944Z"/>
  <path class="cls-1" d="M880.1628714175,650.0231443447c.3866498814,7.3475279072-3.0937891314,16.6287477815-13.9217560515,19.722389393h-105.5731200307c-10.8279669201-3.4804390129-14.308405933-13.1483087687-13.9217560515-20.8826340773.3866498814-7.7343253086,5.41398346-16.2419503801,16.6287477815-18.1756423473,14.308405933-2.3203418486,85.4639332363-2.3203418486,99.7723391693,0,11.6015617229,1.9336919671,17.015545183,10.8282619601,17.015545183,19.3358870315Z"/>
  <path class="cls-1" d="M880.9363187003,793.1076462343c0,7.7343253086-3.8670888943,17.4021950644-14.308405933,20.1091867944l-105.5731200307-.3866498814c-10.8279669201-4.2538862957-14.6952033344-13.9217560515-13.9217560515-21.6560813601.3866498814-7.3475279072,5.8007808615-15.8553004987,17.7888449458-17.4021950644,15.4686506172-1.9335444472,86.2373805192-2.3203418486,99.7723391693,0,11.6014142029,2.70699173,15.4686506172,12.3748614858,16.2420979001,19.3357395116Z"/>
</svg>