<svg width="26" height="26" viewBox="0 0 26 26" fill="none" xmlns="http://www.w3.org/2000/svg">
  <path d="M0.8125 13C0.8125 15.3969 1.50312 17.6313 2.68125 19.5H23.2781C24.4562 17.6313 25.1469 15.3969 25.1469 13C25.1469 10.6031 24.4562 8.36875 23.2781 6.5H2.68125C1.50312 8.36875 0.8125 10.6031 0.8125 13Z" fill="#F9F9F9"/>
  <path d="M23.3191 6.5C21.166 3.0875 17.3473 0.8125 13.0004 0.8125C8.65352 0.8125 4.83477 3.0875 2.68164 6.5H23.3191ZM2.68164 19.5C4.83477 22.9125 8.65352 25.1875 13.0004 25.1875C17.3473 25.1875 21.166 22.9125 23.3191 19.5H2.68164Z" fill="#B4D7EE"/>
  <path d="M18.5652 12.9187L15.234 12.7969V12.7562C15.7621 12.675 16.1684 12.35 16.7371 12.3906C17.4277 12.4719 17.834 12.0656 18.0777 11.9844C18.3621 11.9031 18.5246 12.0656 18.5246 11.9844C18.5652 11.9031 18.3621 11.7406 17.9559 11.7812C17.5902 11.8219 17.4684 12.1469 16.6152 12.0656C15.884 12.025 15.6402 12.3094 15.1121 12.3094V12.2688L18.1184 10.8875C18.1184 10.8875 18.1996 10.8469 18.1996 10.7656C18.159 10.6844 18.0777 10.725 18.0777 10.725L15.0309 11.9437V11.9031C15.4777 11.6187 15.7215 11.1719 16.2902 11.0094C16.9402 10.8063 17.184 10.3187 17.3871 10.1156C17.5902 9.9125 17.834 10.0344 17.834 9.95312C17.834 9.87188 17.5902 9.79063 17.2652 9.99375C16.9402 10.1969 16.9402 10.5219 16.1277 10.7656C15.4371 10.9688 15.3152 11.3344 14.8277 11.5781L14.7871 11.5375L17.0621 9.1C17.0621 9.1 17.1434 9.01875 17.1027 8.97813C17.0621 8.9375 16.9809 9.01875 16.9809 9.01875L14.5434 11.2937L14.5027 11.2531C14.8277 10.8063 14.8684 10.3187 15.3152 9.95312C15.8434 9.50625 15.8434 8.97812 15.9652 8.73438C16.0871 8.49063 16.3309 8.49063 16.2902 8.40938C16.2496 8.32813 16.0059 8.36875 15.7621 8.65312C15.5184 8.97812 15.6402 9.2625 15.0309 9.79063C14.5027 10.2375 14.5027 10.6438 14.1777 11.0094C14.1777 11.0094 14.1371 11.0094 14.1371 10.9688L15.2746 7.84062C15.2746 7.84062 15.3152 7.75938 15.234 7.71875C15.1527 7.67812 15.1121 7.8 15.1121 7.8L13.7309 10.8063H13.6902C13.8121 10.2781 13.6902 9.79062 13.934 9.30312C14.259 8.69375 14.0559 8.16563 14.0559 7.92188C14.0965 7.6375 14.2996 7.55625 14.259 7.51562C14.2184 7.43437 13.9746 7.59688 13.8527 7.9625C13.7715 8.32813 13.9746 8.57187 13.609 9.30312C13.284 9.95312 13.4465 10.2781 13.284 10.7656H13.2434L13.1215 7.43437C13.1215 7.43437 13.1215 7.3125 13.0402 7.3125C12.959 7.3125 12.959 7.43437 12.959 7.43437L12.8371 10.7656H12.7965C12.7152 10.2375 12.3902 9.83125 12.4309 9.2625C12.5121 8.57187 12.1059 8.16563 12.0246 7.92188C11.9434 7.67812 12.1059 7.475 12.0246 7.475C11.9434 7.43437 11.7809 7.6375 11.8215 8.04375C11.8621 8.40937 12.1871 8.53125 12.1059 9.38438C12.0652 10.1156 12.3496 10.3594 12.3496 10.8875H12.309L10.9277 7.88125C10.9277 7.88125 10.8871 7.8 10.8059 7.8C10.7246 7.84063 10.7652 7.92188 10.7652 7.92188L11.9027 11.05H11.8621C11.5777 10.6031 11.1309 10.3594 10.9684 9.79063C10.7652 9.14063 10.2777 8.89687 10.0746 8.69375C9.87148 8.49062 9.99336 8.24687 9.91211 8.24687C9.83086 8.24687 9.74961 8.49063 9.95273 8.81563C10.1559 9.14063 10.4809 9.14062 10.7246 9.95312C10.9277 10.6437 11.2934 10.7656 11.5371 11.2531L11.4965 11.2937L9.05898 9.01875C9.05898 9.01875 8.97773 8.9375 8.93711 8.97813C8.89648 9.01875 8.97773 9.1 8.97773 9.1L11.2527 11.5375L11.2121 11.5781C10.7652 11.2531 10.2777 11.2125 9.91211 10.7656C9.46523 10.2375 8.93711 10.2375 8.69336 10.1156C8.44961 9.99375 8.44961 9.75 8.36836 9.79063C8.28711 9.83125 8.32773 10.075 8.61211 10.3187C8.93711 10.5625 9.22148 10.4406 9.74961 11.05C10.1965 11.5781 10.6027 11.5781 10.9684 11.9031C10.9684 11.9031 10.9684 11.9437 10.9277 11.9437L7.79961 10.8063C7.79961 10.8063 7.71836 10.7656 7.67773 10.8469C7.63711 10.9281 7.75898 10.9688 7.75898 10.9688L10.7652 12.35V12.3906C10.2371 12.2688 9.74961 12.3906 9.26211 12.1469C8.65273 11.8219 8.12461 12.025 7.88086 12.025C7.59648 11.9844 7.51523 11.7812 7.47461 11.8219C7.39336 11.8625 7.55586 12.1063 7.92148 12.2281C8.28711 12.3094 8.53086 12.1063 9.26211 12.4719C9.91211 12.7969 10.2371 12.6344 10.7246 12.7969V12.8375L7.39336 12.9594C7.39336 12.9594 7.27148 12.9594 7.27148 13.0406C7.27148 13.1219 7.39336 13.1219 7.39336 13.1219L10.7246 13.2437V13.2844C10.1965 13.3656 9.79023 13.6906 9.22148 13.65C8.53086 13.5687 8.12461 13.975 7.88086 14.0562C7.59648 14.1375 7.43398 13.975 7.43398 14.0562C7.39336 14.1375 7.59648 14.3 8.00273 14.2594C8.40898 14.2187 8.49023 13.9344 9.34336 13.975C10.0746 14.0156 10.3184 13.7312 10.8465 13.7312V13.7719L7.84023 15.1531C7.84023 15.1531 7.75898 15.1937 7.75898 15.275C7.75898 15.3562 7.88086 15.3156 7.88086 15.3156L11.009 14.1781V14.2188C10.5621 14.5031 10.3184 14.95 9.74961 15.1125C9.09961 15.3156 8.85586 15.8031 8.65273 16.0063C8.44961 16.2094 8.20586 16.0875 8.20586 16.1687C8.20586 16.25 8.44961 16.3313 8.77461 16.1281C9.09961 15.925 9.09961 15.6 9.91211 15.3562C10.6027 15.1531 10.7246 14.7875 11.2121 14.5437L11.2527 14.5844L8.97773 17.0219C8.97773 17.0219 8.89648 17.1031 8.93711 17.1438C8.97773 17.1844 9.05898 17.1031 9.05898 17.1031L11.4965 14.8281L11.5371 14.8687C11.2121 15.3156 11.1715 15.8031 10.7246 16.1687C10.1965 16.6156 10.1965 17.1437 10.0746 17.3875C9.95273 17.6312 9.70898 17.6312 9.74961 17.7125C9.79023 17.7937 10.034 17.7531 10.2777 17.4688C10.5215 17.1844 10.3996 16.8594 11.009 16.3313C11.5371 15.8844 11.5371 15.4781 11.8621 15.1125C11.8621 15.1125 11.9027 15.1125 11.9027 15.1531L10.7652 18.2812C10.7652 18.2812 10.7246 18.3625 10.8059 18.4031C10.8871 18.4437 10.9277 18.3219 10.9277 18.3219L12.309 15.3156H12.3496C12.2277 15.8438 12.3496 16.3313 12.1059 16.8188C11.7809 17.4281 11.984 17.9562 11.9434 18.2C11.9027 18.4844 11.6996 18.5656 11.7402 18.6062C11.7809 18.6875 12.0246 18.525 12.1465 18.1594C12.2277 17.7938 12.0246 17.5906 12.3902 16.8188C12.7152 16.1688 12.5527 15.8438 12.7152 15.3562H12.7559L12.8777 18.6875C12.8777 18.6875 12.8777 18.8094 12.959 18.8094C13.0402 18.8094 13.0402 18.6875 13.0402 18.6875L13.1621 15.3562H13.2027C13.284 15.8844 13.609 16.2906 13.5684 16.8594C13.4871 17.55 13.8934 17.9562 13.9746 18.2C14.0559 18.4844 13.8934 18.6469 13.9746 18.6469C14.0559 18.6875 14.2184 18.4844 14.1777 18.0781C14.1371 17.7125 13.8121 17.5906 13.8934 16.7375C13.934 16.0063 13.6496 15.7625 13.6496 15.2344H13.6902L15.0715 18.2406C15.0715 18.2406 15.1121 18.3219 15.1934 18.3219C15.2746 18.2812 15.234 18.2 15.234 18.2L14.0559 15.0312H14.0965C14.3809 15.4781 14.8277 15.7219 14.9902 16.2906C15.1934 16.9406 15.6809 17.1844 15.884 17.3875C16.0871 17.5906 15.9652 17.8344 16.0465 17.8344C16.1277 17.8344 16.209 17.5906 16.0059 17.2656C15.8027 16.9406 15.4777 16.9406 15.234 16.1281C15.0309 15.4375 14.6652 15.3156 14.4215 14.8281L14.4621 14.7875L16.8996 17.0625C16.8996 17.0625 16.9809 17.1437 17.0215 17.1031C17.0621 17.0625 16.9809 16.9812 16.9809 16.9812L14.7059 14.5437L14.7465 14.5031C15.1934 14.8281 15.6809 14.8688 16.0465 15.3156C16.4934 15.8438 17.0215 15.8438 17.2652 15.9656C17.509 16.0875 17.509 16.3312 17.5902 16.2906C17.6715 16.25 17.6309 16.0062 17.3465 15.7625C17.0215 15.5187 16.7371 15.6406 16.209 15.0312C15.7621 14.5031 15.3559 14.5031 14.9902 14.1375C14.9902 14.1375 14.9902 14.0969 15.0309 14.0969L18.159 15.2344C18.159 15.2344 18.2402 15.275 18.2809 15.1938C18.3215 15.1125 18.1996 15.0719 18.1996 15.0719L15.1934 13.6906V13.65C15.7215 13.7719 16.209 13.65 16.6965 13.8938C17.3059 14.2188 17.834 14.0156 18.0777 14.0156C18.3621 14.0563 18.4434 14.2594 18.484 14.2188C18.5652 14.1781 18.4027 13.9344 18.0371 13.8125C17.6715 13.7312 17.4277 13.9344 16.6965 13.5688C16.0465 13.2438 15.7215 13.4062 15.234 13.2437V13.2031L18.5652 13.0813C18.5652 13.0813 18.6871 13.0813 18.6871 13C18.6871 12.9187 18.5652 12.9187 18.5652 12.9187Z" fill="#F6B40E"/>
  <path d="M14.2184 12.7156C14.0965 12.5937 13.934 12.5125 13.7715 12.5125C13.609 12.5125 13.4871 12.5937 13.3652 12.7156C13.5684 12.8781 13.934 12.8781 14.2184 12.7156ZM14.0965 12.675C14.0152 12.7562 13.934 12.7968 13.8527 12.7968C13.8934 12.7562 13.934 12.7156 13.934 12.675C13.934 12.6343 13.8934 12.5937 13.8527 12.5531C13.9746 12.5937 14.0559 12.6343 14.0965 12.675ZM13.6496 12.5531C13.609 12.5937 13.609 12.6343 13.609 12.675C13.609 12.7156 13.6496 12.7968 13.6902 12.7968C13.609 12.7968 13.5277 12.7562 13.4465 12.675C13.5277 12.6343 13.5684 12.5937 13.6496 12.5531Z" fill="#85340A"/>
  <path d="M13.8133 12.3906C13.5695 12.3906 13.5289 12.4312 13.4477 12.5125C13.3258 12.5937 13.2852 12.5938 13.2852 12.5938C13.2852 12.5938 13.2852 12.675 13.3258 12.6344C13.3664 12.6344 13.4477 12.5937 13.5289 12.5125C13.6508 12.4312 13.732 12.4313 13.8539 12.4313C14.1789 12.4313 14.3414 12.675 14.382 12.675C14.4227 12.675 14.1383 12.3906 13.8133 12.3906Z" fill="#85340A"/>
  <path d="M13.1217 12.3499C13.0811 12.4312 13.0811 12.4718 13.0811 12.5531C13.0404 12.7968 13.0811 13.0812 13.2436 13.3656C13.2436 13.3656 13.2842 13.3249 13.3248 13.3249C13.1623 13.1218 13.1217 12.8781 13.1217 12.6749C13.1217 12.5531 13.2029 12.4718 13.2436 12.3906C13.5279 12.1468 14.0154 12.1874 14.4217 12.5124C14.0561 11.9843 13.5279 12.0249 13.1217 12.3499Z" fill="#85340A"/>
  <path d="M13.5285 12.878C13.4066 12.7967 13.366 12.7561 13.3254 12.7561C13.2848 12.7561 13.2848 12.7967 13.4473 12.878C13.6098 12.9592 13.9348 12.9999 14.2191 12.7561C13.8941 12.9186 13.6504 12.9186 13.5285 12.878ZM13.3254 13.528C13.2848 13.528 13.2441 13.4874 13.2035 13.4467C13.2035 13.4874 13.1223 13.5686 13.0004 13.5686C12.8785 13.5686 12.7973 13.4467 12.7973 13.4467C12.7973 13.4874 12.7566 13.528 12.6754 13.528C12.6348 13.528 12.5535 13.4874 12.5535 13.4061C12.5535 13.3655 12.5941 13.3249 12.6348 13.3249C12.5535 13.3249 12.5129 13.4061 12.5129 13.4874C12.5129 13.5686 12.5941 13.6499 12.6754 13.6499C12.716 13.6499 12.7566 13.6092 12.7973 13.5686C12.8379 13.6092 12.9598 13.6092 13.0004 13.6092H13.041C13.0816 13.6092 13.1629 13.6092 13.2441 13.5686C13.2848 13.6092 13.3254 13.6499 13.366 13.6499C13.4473 13.6499 13.5285 13.5686 13.5285 13.4874C13.5285 13.4061 13.4879 13.3655 13.4066 13.3249C13.4473 13.3249 13.4879 13.3655 13.4879 13.4061C13.4473 13.4874 13.4066 13.528 13.3254 13.528ZM13.0004 13.8936C13.0816 13.8936 13.1629 13.8124 13.2848 13.8936C13.4066 13.9749 13.4879 14.0155 13.5691 14.0561C13.4066 13.9342 13.3254 13.8124 13.1629 13.8124C13.1223 13.8124 13.041 13.8124 13.0004 13.853C12.9191 13.8124 12.8785 13.8124 12.8379 13.8124C12.6754 13.8124 12.5941 13.9749 12.4316 14.0561C12.5129 14.0155 12.5941 13.9342 12.716 13.8936C12.8379 13.853 12.9191 13.8936 13.0004 13.8936Z" fill="#85340A"/>
  <path d="M13 14.0156C12.9188 14.0156 12.8781 13.9749 12.7562 14.0156C12.675 14.0156 12.5938 14.0156 12.4719 14.0562H12.4313C12.7969 14.0968 12.6344 14.2999 13 14.2999C13.3656 14.2999 13.2031 14.0968 13.5688 14.0562H13.4875C13.1625 13.9343 13.1219 14.0156 13 14.0156ZM13 14.2187C12.7156 14.2187 12.7969 14.0156 12.4719 14.0156C12.7969 13.9343 12.8375 14.0562 13 14.0562C13.1219 14.0562 13.2031 13.9749 13.5281 14.0156C13.2031 14.0562 13.2844 14.2187 13 14.2187ZM13 14.2999C12.8375 14.2999 12.675 14.4218 12.675 14.6249C12.7156 14.4624 12.8375 14.3812 13 14.3812C13.1625 14.3812 13.2844 14.5031 13.325 14.6249C13.325 14.4218 13.1625 14.2999 13 14.2999ZM12.7562 12.3906C12.8375 12.4718 12.8781 12.5937 12.8781 12.6749C12.9188 12.8781 12.8375 13.0812 12.675 13.3249C12.675 13.3249 12.7156 13.3249 12.7562 13.3656C12.8781 13.0812 12.9594 12.8374 12.9187 12.5531C12.9187 12.4718 12.8781 12.4312 12.8781 12.3499C12.5125 12.0249 11.9844 11.9843 11.5781 12.5124C11.9844 12.1468 12.5125 12.1062 12.7562 12.3906Z" fill="#85340A"/>
  <path d="M12.5129 12.553C12.6348 12.6343 12.6754 12.6749 12.7161 12.6749C12.7567 12.6749 12.7567 12.6343 12.7567 12.6343C12.7567 12.6343 12.6754 12.6343 12.5942 12.553C12.4723 12.4718 12.4317 12.4312 12.2286 12.4312C11.8629 12.4312 11.6598 12.7155 11.7004 12.7155C11.7411 12.7155 11.9036 12.4718 12.2286 12.4718C12.3098 12.4718 12.4317 12.4718 12.5129 12.553Z" fill="#85340A"/>
  <path d="M11.8223 12.7156C11.9035 12.7968 12.066 12.8375 12.2285 12.8375C12.3504 12.8375 12.5129 12.7968 12.6348 12.7156C12.5129 12.5937 12.3504 12.5125 12.1879 12.5125C12.066 12.5125 11.9035 12.5937 11.8223 12.7156ZM11.9035 12.7156C11.9848 12.6343 12.066 12.5531 12.1473 12.5531C12.1066 12.5937 12.066 12.6343 12.066 12.675C12.066 12.7562 12.1066 12.7968 12.1473 12.7968C12.066 12.8375 11.9441 12.7968 11.9035 12.7156ZM12.5129 12.675C12.4723 12.7156 12.391 12.7562 12.3098 12.7968C12.3504 12.7562 12.3504 12.7156 12.3504 12.675C12.3504 12.6343 12.3098 12.5937 12.3098 12.5531C12.4316 12.5937 12.5129 12.6343 12.5129 12.675Z" fill="#85340A"/>
  <path d="M12.716 12.7561C12.6754 12.7561 12.6348 12.7967 12.5129 12.878C12.391 12.9592 12.1473 12.9592 11.8223 12.7967C12.1066 13.0405 12.4316 12.9999 12.5941 12.9186C12.7566 12.7967 12.7566 12.7561 12.716 12.7561Z" fill="#85340A"/>
</svg>
  