<svg width="32" height="32" viewBox="0 0 32 32" fill="none" xmlns="http://www.w3.org/2000/svg">
  <path d="M30.75 13.4C29.55 6.35 23.4 1 16 1C8.6 1 2.45 6.35 1.25 13.4L16 6L30.75 13.4ZM1.25 18.6C2.45 25.65 8.6 31 16 31C23.4 31 29.55 25.65 30.75 18.6L16 26L1.25 18.6Z" fill="#699635"/>
  <path d="M16 6L1.25 13.4C1.1 14.25 1 15.1 1 16C1 16.9 1.1 17.75 1.25 18.6L16 26L30.75 18.6C30.9 17.75 31 16.9 31 16C31 15.1 30.9 14.25 30.75 13.4L16 6Z" fill="#FFE62E"/>
  <path d="M13 14.2C11.4 14.2 9.9 14.55 8.55 15.15C8.5 15.45 8.5 15.7 8.5 16C8.5 20.15 11.85 23.5 16 23.5C18.8 23.5 21.25 21.95 22.55 19.7C20.7 16.45 17.1 14.2 13 14.2Z" fill="#428BC1"/>
  <path d="M23.4 17.2C23.45 16.8 23.5 16.4 23.5 16C23.5 11.85 20.15 8.5 16 8.5C13.05 8.5 10.5 10.2 9.25 12.7C10.45 12.35 11.7 12.15 13 12.15C17.25 12.15 21 14.15 23.4 17.2Z" fill="#428BC1"/>
  <path d="M13.0008 12.1499C11.7008 12.1499 10.4508 12.3499 9.25078 12.6999C8.90078 13.4499 8.65078 14.2499 8.55078 15.1499C9.90078 14.5499 11.4008 14.1999 13.0008 14.1999C17.1008 14.1999 20.7008 16.3999 22.5508 19.6499C23.0008 18.8999 23.2508 18.0499 23.4008 17.1999C21.0008 14.1499 17.2508 12.1499 13.0008 12.1499Z" fill="white"/>
  <path d="M11 16.5C11.2761 16.5 11.5 16.2761 11.5 16C11.5 15.7239 11.2761 15.5 11 15.5C10.7239 15.5 10.5 15.7239 10.5 16C10.5 16.2761 10.7239 16.5 11 16.5Z" fill="white"/>
  <path d="M13 19.5C13.2761 19.5 13.5 19.2761 13.5 19C13.5 18.7239 13.2761 18.5 13 18.5C12.7239 18.5 12.5 18.7239 12.5 19C12.5 19.2761 12.7239 19.5 13 19.5Z" fill="white"/>
  <path d="M16 19.5C16.2761 19.5 16.5 19.2761 16.5 19C16.5 18.7239 16.2761 18.5 16 18.5C15.7239 18.5 15.5 18.7239 15.5 19C15.5 19.2761 15.7239 19.5 16 19.5Z" fill="white"/>
  <path d="M16 21.5C16.2761 21.5 16.5 21.2761 16.5 21C16.5 20.7239 16.2761 20.5 16 20.5C15.7239 20.5 15.5 20.7239 15.5 21C15.5 21.2761 15.7239 21.5 16 21.5Z" fill="white"/>
  <path d="M20 19.5C20.2761 19.5 20.5 19.2761 20.5 19C20.5 18.7239 20.2761 18.5 20 18.5C19.7239 18.5 19.5 18.7239 19.5 19C19.5 19.2761 19.7239 19.5 20 19.5Z" fill="white"/>
  <path d="M20 21.5C20.2761 21.5 20.5 21.2761 20.5 21C20.5 20.7239 20.2761 20.5 20 20.5C19.7239 20.5 19.5 20.7239 19.5 21C19.5 21.2761 19.7239 21.5 20 21.5Z" fill="white"/>
  <path d="M18 20.5C18.2761 20.5 18.5 20.2761 18.5 20C18.5 19.7239 18.2761 19.5 18 19.5C17.7239 19.5 17.5 19.7239 17.5 20C17.5 20.2761 17.7239 20.5 18 20.5Z" fill="white"/>
  <path d="M11 18.5C11.2761 18.5 11.5 18.2761 11.5 18C11.5 17.7239 11.2761 17.5 11 17.5C10.7239 17.5 10.5 17.7239 10.5 18C10.5 18.2761 10.7239 18.5 11 18.5Z" fill="white"/>
  </svg>
  