<svg width="106" height="45" viewBox="0 0 106 45" fill="none" xmlns="http://www.w3.org/2000/svg">
  <mask id="mask0_1456_84712" style="mask-type:luminance" maskUnits="userSpaceOnUse" x="0" y="0"
    width="38" height="45">
    <path d="M0 0.5H37.9709V44.5H0V0.5Z" fill="white" />
  </mask>
  <g mask="url(#mask0_1456_84712)">
    <path
      d="M24.5208 42.0213C12.7994 42.0213 3.29782 33.2814 3.29782 22.5C3.29782 11.7186 12.7994 2.97923 24.5208 2.97923C29.6259 2.97923 34.3096 4.63743 37.9709 7.40017C33.9628 3.1519 28.2828 0.5 21.9838 0.5C9.84282 0.5 0 10.3501 0 22.5C0 34.6505 9.84282 44.5 21.9838 44.5C28.2828 44.5 33.9628 41.8487 37.9709 37.6004C34.3096 40.3626 29.6259 42.0213 24.5208 42.0213Z"
      fill="black" />
  </g>
  <mask id="mask1_1456_84712" style="mask-type:luminance" maskUnits="userSpaceOnUse" x="12" y="4"
    width="32" height="37">
    <path d="M12.0527 4.11646H43.9965V40.8836H12.0527V4.11646Z" fill="white" />
  </mask>
  <g mask="url(#mask1_1456_84712)">
    <path
      d="M23.3681 38.812C33.2283 38.812 41.2219 31.5091 41.2219 22.5C41.2219 13.4909 33.2283 6.18801 23.3681 6.18801C19.0734 6.18801 15.1328 7.57372 12.0527 9.88212C15.4242 6.33225 20.2027 4.11646 25.5018 4.11646C35.7161 4.11646 43.9965 12.3471 43.9965 22.5C43.9965 32.6529 35.7161 40.8836 25.5018 40.8836C20.2027 40.8836 15.4242 38.6678 12.0527 35.1179C15.1328 37.4263 19.0734 38.812 23.3681 38.812Z"
      fill="#074B7F" />
  </g>
  <path
    d="M25.8322 14.0545V30.1502C27.1472 29.6842 28.3934 29.0746 29.533 28.3333V10.7468L25.8322 14.0545ZM13.2598 30.2021C14.4499 30.615 15.69 30.9095 16.96 31.0772V18.4765L13.2598 20.738V30.2021ZM19.5462 31.24C20.7952 31.234 22.0375 31.1061 23.2465 30.8631V14.7624L19.5462 17.5265V31.24Z"
    fill="black" />
  <path
    d="M39.1757 20.3904L33.4884 22.8254L34.9236 23.8938C33.7812 25.5016 32.2087 26.8403 30.3731 27.9917C23.0914 32.5594 12.0331 32.0164 5.42383 25.0535C6.91337 27.0856 8.77193 28.7982 10.9479 30.1446C13.0488 31.4438 15.3549 32.3478 17.8017 32.8306C20.2491 33.3135 22.7145 33.3519 25.13 32.9437C27.6318 32.521 29.9687 31.6362 32.0763 30.3142C34.1048 29.0419 35.8052 27.4362 37.1338 25.54L38.5235 26.5752L39.1757 20.3904Z"
    fill="#074B7F" />
  <path
    d="M68.377 35.0715C68.377 32.531 70.3239 30.3572 73.191 30.3572C74.2979 30.3572 76.2449 30.8286 76.2449 31.981C76.2449 32.6619 75.6981 33.0548 75.1247 33.0548C74.898 33.0548 74.6979 33.0024 74.5246 32.8977C74.1512 32.675 73.6845 32.5179 73.2177 32.5179C71.7108 32.5179 70.7373 33.6965 70.7373 35.0715C70.7373 36.4596 71.7108 37.625 73.2177 37.625C73.8445 37.625 74.2845 37.4155 74.6713 37.1536C74.8713 37.0096 75.0847 36.931 75.3247 36.931C75.9381 36.931 76.4582 37.3762 76.4582 38.031C76.4582 39.1834 74.4712 39.7857 73.2177 39.7857C70.2839 39.7857 68.377 37.625 68.377 35.0715Z"
    fill="black" />
  <path
    d="M78.0293 35.0846C78.0293 32.4786 80.1302 30.3572 82.7369 30.3572C85.3436 30.3572 87.4574 32.4786 87.4574 35.0846C87.4574 37.6774 85.3436 39.7857 82.7369 39.7857C80.1302 39.7857 78.0293 37.6774 78.0293 35.0846ZM80.3247 35.0846C80.3247 36.4727 81.3752 37.6119 82.7369 37.6119C84.0986 37.6119 85.162 36.4727 85.162 35.0846C85.162 33.6834 84.0986 32.531 82.7369 32.531C81.3752 32.531 80.3247 33.6834 80.3247 35.0846Z"
    fill="black" />
  <path
    d="M91.3869 32.5483V34.5536H93.0614C93.624 34.5536 94.0795 34.1153 94.0795 33.5576C94.0795 32.9866 93.624 32.5483 93.0614 32.5483H91.3869ZM90.2081 30.3572H93.0882C94.9368 30.3572 96.4371 31.8179 96.4371 33.6373C96.4371 34.7926 95.8209 35.7089 94.91 36.2799L96.1826 37.9266C96.3434 38.1391 96.3969 38.3781 96.3969 38.6171C96.3969 39.2014 95.9013 39.7857 95.2181 39.7857C94.8564 39.7857 94.4814 39.6131 94.267 39.321L92.338 36.7314H91.3869V38.6171C91.3869 39.2546 90.8913 39.7857 90.2081 39.7857C89.5517 39.7857 89.0293 39.2546 89.0293 38.6171V31.4992C89.0293 30.8618 89.4446 30.3572 90.2081 30.3572Z"
    fill="black" />
  <path
    d="M104.21 32.5796H100.424V33.8592H103.497C104.334 33.8592 104.718 34.4249 104.718 34.9502C104.718 35.4755 104.334 36.0278 103.497 36.0278H100.424V37.5498H104.21C105.047 37.5498 105.418 38.1425 105.418 38.6678C105.418 39.1931 105.047 39.7857 104.21 39.7857H99.217C98.435 39.7857 98.0098 39.3008 98.0098 38.587V31.5155C98.0098 30.869 98.435 30.3572 99.217 30.3572H104.21C105.047 30.3572 105.418 30.9498 105.418 31.4751C105.418 32.0004 105.047 32.5796 104.21 32.5796Z"
    fill="black" />
  <path fill-rule="evenodd" clip-rule="evenodd"
    d="M51.6956 6.06128C52.9104 6.06128 53.8952 7.04609 53.8952 8.26092V19.6719C54.3528 19.6725 54.8483 19.6693 55.352 19.6637C56.114 19.6552 56.9 19.6408 57.5048 19.6297C57.9606 19.6214 58.3135 19.6149 58.4757 19.6142C58.4789 19.6132 58.5391 19.6057 58.6452 19.561C58.7743 19.5065 58.9195 19.418 59.0515 19.2961C59.2916 19.0743 59.494 18.7444 59.494 18.2122C59.494 17.8471 59.3454 17.569 58.9908 17.3083C58.5789 17.0054 58.0382 16.8595 57.6944 16.8595C56.4796 16.8595 55.4948 15.8747 55.4948 14.6599C55.4948 13.445 56.4796 12.4602 57.6944 12.4602C58.9502 12.4602 60.4091 12.8907 61.5968 13.764C62.8419 14.6796 63.8931 16.1777 63.8931 18.2122C63.8931 20.0796 63.0956 21.5494 62.0361 22.528C61.0418 23.4462 59.7276 24.0112 58.4983 24.0135C58.3463 24.0138 58.0387 24.0196 57.6214 24.0275C57.0485 24.0383 56.2689 24.053 55.4011 24.0627C54.0119 24.0782 52.3655 24.0812 51.4965 24.0022C50.3636 23.8992 49.4961 22.9493 49.4961 21.8116V8.26092C49.4961 7.04609 50.4809 6.06128 51.6956 6.06128Z"
    fill="#074B7F" />
  <path fill-rule="evenodd" clip-rule="evenodd"
    d="M55.7348 14.6129C55.7348 15.8277 56.7196 16.8125 57.9343 16.8125C59.0528 16.8125 60.4489 16.381 61.5942 15.5295C62.8159 14.6211 63.8931 13.1146 63.8931 11.0135C63.8931 8.94856 62.8766 7.43706 61.6481 6.50777C60.4942 5.63498 59.0875 5.21311 57.9318 5.21441C57.3272 5.2151 54.6755 5.21502 52.8126 5.21497C52.3882 5.21496 52.0046 5.21495 51.6956 5.21495C50.4809 5.21495 49.4961 6.19977 49.4961 7.41459C49.4961 8.62942 50.4809 9.61423 51.6956 9.61423C52.0037 9.61423 52.3862 9.61424 52.8099 9.61425C54.6725 9.6143 57.3293 9.61437 57.9368 9.61369C58.1338 9.61346 58.6066 9.72315 58.9943 10.0164C59.3072 10.2531 59.494 10.5421 59.494 11.0135C59.494 11.4486 59.3154 11.7418 58.9694 11.9991C58.7817 12.1386 58.5603 12.2499 58.342 12.3239C58.2351 12.3601 58.1398 12.3838 58.0626 12.3977C58.0245 12.4046 57.9936 12.4086 57.9705 12.4109C57.9591 12.412 57.9502 12.4126 57.9439 12.4129L57.9368 12.4132C57.9351 12.4132 57.9343 12.4132 57.9343 12.4132C56.7196 12.4132 55.7348 13.398 55.7348 14.6129Z"
    fill="#074B7F" />
  <path fill-rule="evenodd" clip-rule="evenodd"
    d="M51.0957 14.6127C51.0957 13.3979 52.0805 12.4131 53.2952 12.4131H57.2944C58.5092 12.4131 59.4939 13.3979 59.4939 14.6127C59.4939 15.8276 58.5092 16.8124 57.2944 16.8124H53.2952C52.0805 16.8124 51.0957 15.8276 51.0957 14.6127Z"
    fill="#074B7F" />
  <path fill-rule="evenodd" clip-rule="evenodd"
    d="M85.1913 5.34109C86.0724 5.65316 86.6612 6.48646 86.6612 7.42115V21.8648C86.6612 23.0835 85.6733 24.0715 84.4546 24.0715C83.236 24.0715 82.2481 23.0835 82.2481 21.8648V13.6514L79.473 17.0775C79.0584 17.5895 78.4368 17.8893 77.7781 17.8952C77.1194 17.9011 76.4925 17.6124 76.0688 17.1079L73.0206 13.479V21.8648C73.0206 23.0835 72.0327 24.0715 70.814 24.0715C69.5953 24.0715 68.6074 23.0835 68.6074 21.8648V7.42115C68.6074 6.49368 69.1873 5.6652 70.0588 5.34775C70.9302 5.03031 71.9071 5.29167 72.5036 6.00184L77.7274 12.221L82.74 6.03223C83.3283 5.30591 84.3103 5.02903 85.1913 5.34109Z"
    fill="#074B7F" />
  <path fill-rule="evenodd" clip-rule="evenodd"
    d="M94.7325 6.04212C96.1319 5.32562 97.6374 5.21436 98.396 5.21436C100.705 5.21436 102.703 6.28363 104.01 7.13129C105.032 7.79452 105.324 9.16104 104.66 10.1835C103.997 11.2059 102.631 11.4971 101.608 10.8339C100.508 10.12 99.4002 9.62773 98.396 9.62773C97.951 9.62773 97.2498 9.7114 96.7436 9.97058C96.5185 10.0859 96.3997 10.2014 96.3345 10.2984C96.2805 10.3788 96.1894 10.5522 96.1894 10.934C96.1894 10.9376 96.1894 10.9414 96.1893 10.9452C96.1887 11.1022 96.1876 11.3865 97.2177 11.7912C97.7134 11.9859 98.2836 12.1339 98.9081 12.2796C98.9918 12.2991 99.0821 12.3197 99.177 12.3413C99.6729 12.4543 100.294 12.5958 100.757 12.7648C102.752 13.4926 104.006 14.5672 104.712 15.7699C105.409 16.9563 105.417 18.0124 105.417 18.3513C105.417 20.3927 104.328 21.8966 103.005 22.8054C101.735 23.6777 100.182 24.0715 98.7972 24.0715C96.4036 24.0715 94.1766 23.5713 92.0428 21.495C91.1694 20.6451 91.1502 19.248 92.0001 18.3746C92.85 17.5011 94.247 17.482 95.1204 18.3319C96.1962 19.3787 97.1788 19.6581 98.7972 19.6581C99.4185 19.6581 100.072 19.4664 100.507 19.1675C100.889 18.9052 101.004 18.6523 101.004 18.3513C101.004 18.3481 101.004 18.3446 101.004 18.3408C101.004 18.2851 101.005 18.1734 100.906 18.0049C100.81 17.8412 100.46 17.3542 99.2444 16.9108C99.0658 16.8457 98.7964 16.7835 98.3086 16.6709C98.1883 16.6432 98.0547 16.6123 97.9059 16.5776C97.2569 16.4263 96.4194 16.2192 95.6042 15.899C94.0377 15.2837 91.7762 13.9025 91.7762 10.934C91.7762 9.75419 92.0863 8.70771 92.6717 7.83664C93.2459 6.98221 94.0047 6.4147 94.7325 6.04212Z"
    fill="#074B7F" />
</svg>
  