<svg width="20" height="20" viewBox="0 0 20 20" id="icon-plus"
  xmlns="http://www.w3.org/2000/svg">
  <path fill-rule="evenodd" clip-rule="evenodd"
    d="M1.66602 10.0003C1.66602 5.39783 5.39685 1.66699 9.99935 1.66699C14.6018 1.66699 18.3327 5.39783 18.3327 10.0003C18.3327 14.6028 14.6018 18.3337 9.99935 18.3337C5.39685 18.3337 1.66602 14.6028 1.66602 10.0003ZM9.99935 3.33366C8.23124 3.33366 6.53555 4.03604 5.2853 5.28628C4.03506 6.53652 3.33268 8.23222 3.33268 10.0003C3.33268 11.7684 4.03506 13.4641 5.2853 14.7144C6.53555 15.9646 8.23124 16.667 9.99935 16.667C11.7675 16.667 13.4632 15.9646 14.7134 14.7144C15.9636 13.4641 16.666 11.7684 16.666 10.0003C16.666 8.23222 15.9636 6.53652 14.7134 5.28628C13.4632 4.03604 11.7675 3.33366 9.99935 3.33366Z"
  />
  <path fill-rule="evenodd" clip-rule="evenodd"
    d="M10.8333 5.83333C10.8333 5.61232 10.7455 5.40036 10.5893 5.24408C10.433 5.0878 10.221 5 10 5C9.77899 5 9.56702 5.0878 9.41074 5.24408C9.25446 5.40036 9.16667 5.61232 9.16667 5.83333V9.16667H5.83333C5.61232 9.16667 5.40036 9.25446 5.24408 9.41074C5.0878 9.56702 5 9.77899 5 10C5 10.221 5.0878 10.433 5.24408 10.5893C5.40036 10.7455 5.61232 10.8333 5.83333 10.8333H9.16667V14.1667C9.16667 14.3877 9.25446 14.5996 9.41074 14.7559C9.56702 14.9122 9.77899 15 10 15C10.221 15 10.433 14.9122 10.5893 14.7559C10.7455 14.5996 10.8333 14.3877 10.8333 14.1667V10.8333H14.1667C14.3877 10.8333 14.5996 10.7455 14.7559 10.5893C14.9122 10.433 15 10.221 15 10C15 9.77899 14.9122 9.56702 14.7559 9.41074C14.5996 9.25446 14.3877 9.16667 14.1667 9.16667H10.8333V5.83333Z"
  />
</svg>