<?xml version="1.0" encoding="UTF-8"?>
<svg xmlns="http://www.w3.org/2000/svg" xmlns:xlink="http://www.w3.org/1999/xlink" viewBox="0 0 841.889831543 383.3333333333">
  <defs>
    <style>
      .cls-1 {
        fill: #468c48;
      }

      .cls-2 {
        fill: #449d49;
      }

      .cls-2, .cls-3, .cls-4, .cls-5, .cls-6 {
        mix-blend-mode: overlay;
        opacity: .5;
      }

      .cls-7 {
        fill: #fff;
      }

      .cls-8 {
        mask: url(#mask);
      }

      .cls-9, .cls-6 {
        fill: #ad3a2c;
      }

      .cls-10 {
        isolation: isolate;
      }

      .cls-3, .cls-11 {
        fill: #a3a738;
      }

      .cls-12, .cls-13 {
        fill: #004a80;
      }

      .cls-13 {
        fill-rule: evenodd;
      }

      .cls-4, .cls-14 {
        fill: #cc802d;
      }

      .cls-5, .cls-15 {
        fill: #e0ad2b;
      }
    </style>
    <mask id="mask" x="226.7458574186" y="11.2270777294" width="393.8707442065" height="126.8202665998" maskUnits="userSpaceOnUse">
      <g>
        <path class="cls-7" d="M462.2877035045,103.8332152662c-25.0084486084-8.6440103497-52.1917630316-18.7669457232-71.257259626-20.9329987284,6.3064465125,2.4852122925,12.4055886281,5.3954731686,18.2612260368,8.6849560186,8.3964381922,1.7563251521,18.806671157,5.0154377046,30.0027355701,9.6317229275-1.7662226151,1.1387505753-5.2379272503,2.2621804201-9.9408491701,3.8563498765h0c2.1713406909,1.7212094956,4.2925161583,3.4921774696,6.3526798672,5.3344614102,1.8616721216-.5057196864,4.1601884334-1.1485124566,7.5047174477-2.0289799213,9.3741177253-2.3892204593,19.1376260509-4.479212139,19.0767498742-4.5455115831Z"/>
        <path class="cls-7" d="M516.3906259729,94.6729098587c-25.8213963938,13.2906658701-68.2648362485-7.2477901539-104.2442836723-18.1142554899-35.5954800909-12.0910391181-65.0872082889-15.0774969014-82.5936510834-4.1097520464,1.9582062815-.0808066845,3.9170904715-.1060248779,5.8860077062-.1060248779,15.2694805678,0,30.0080232558,2.2621804201,43.9058239129,6.4733475672,5.8813979289.1614777872,13.6805987972,1.0525206234,23.4487169001,3.6993462848,20.3002390029,4.580491658,49.5839848955,17.2184672948,73.3810111453,21.5408114238-4.8486722316,1.7152439014-12.8538216799,3.4921774696-22.3551150261,5.3344614102-5.4206913621,1.0526562051-11.4026909016,2.1966944661-15.5415930103,3.3504946084,2.2270647636,2.0596213822,4.3878300831,4.1953040899,6.4771438544,6.387253197,6.8373843923-2.7838987454,17.6547691582-4.6665860282,28.797956714-7.5973197387,19.5480318125-4.3925754421,43.0008161632-16.5598114673,42.8379825591-16.8583623385Z"/>
        <path class="cls-7" d="M537.9962454423,79.8177669213c-7.9098355235,4.1806612679-16.7913849859,7.1113949785-25.9431487473,7.7846936279-34.4807274739,5.4200134537-76.5189136711-17.906951093-115.98131901-30.4687298226-36.9115715106-13.6906318419-71.4789356815-16.813349219-99.2752149042-4.3475623225-26.9964828608,10.977642318-47.6660463745,36.5117411205-60.9468147816,57.0145391613,21.4845450244-18.8378549446,48.3545301727-31.6882870824,78.0130238437-35.929824527,15.6998168371-12.0606688206,49.9335144804-18.3664374247,93.8393383933-1.8165234204,23.5341333619,7.5158351459,49.6958397859,19.2375497531,71.7172882844,22.5218804991,22.1419806167,4.0343686294,40.109129978-.3588847211,50.1109909065-7.5006499971-.1563256832.9923223551-31.5360288498,20.8879856089-51.0470468622,25.2911364224-14.0242983696,4.0945668977-25.2918143308,6.6552981889-31.5068787874,9.2516874634,1.5200062745,1.6603333188,3.0029987489,3.3557822942,4.4435541558,5.0763138813,10.4121311084-4.7777630102,37.8781333455-4.6055742697,68.1297968899-30.6706109521,5.956781346-4.37793262,12.4538557081-10.0971748533,18.4411429333-16.0943595415,26.8092445533-12.1368657278,40.4997408135-33.970940337,47.5251770034-56.2247758441-2.0337252803,4.0031848417-21.7619451527,37.3054363066-47.5198893177,56.112785372Z"/>
      </g>
    </mask>
  </defs>
  <g class="cls-10">
    <g id="Camada_1" data-name="Camada 1">
      <g>
        <path class="cls-15" d="M582.894527292,23.2495626682c-.0610117584.1515803242-.1113125637.3031606485-.1563256832.4554188811.1456147301-.2939410939.196051117-.4554188811.1563256832-.4554188811Z"/>
        <g>
          <polygon class="cls-13" points="81.0886774362 215.7714884189 26.5189472252 136.8474912313 1.6787554883 136.8474912313 1.6787554883 320.0065525367 34.6572378885 320.0065525367 34.6572378885 206.8077764552 49.1726131224 227.9023885525 72.7836212999 262.1725576691 89.4247817785 262.1725576691 128.522336802 207.6432308003 128.522336802 320.0065525367 162.5183597508 320.0065525367 162.5183597508 136.8474912313 135.6483746025 136.8474912313 81.0886774362 215.7714884189"/>
          <path class="cls-13" d="M453.7449726738,179.8271566516l-2.7433598214-1.0777388169c-5.4921429103-2.1462580792-10.8267399022-2.3382417456-15.3959782803-2.3382417456l-1.4180488471.0145072403c-13.9990801761.0814845929-25.3871282556,6.4382319107-33.2062596316,12.7194602297v-6.6302155771h-31.9769404905v137.4916245546h32.0272412958l.009897463-4.2872284725c0-.4197608979.1118548904-41.3033334626.0052876857-59.7221054178-.0052876857-1.6497579474-.0303702975-3.2836528376-.0608761767-4.9042607226-.111176982-6.0177931044-.2170662783-11.7256464761.9010758808-16.6351948844,3.6238272861-15.948066903,18.7973160207-27.5333863348,36.0713718065-27.5333863348,3.4359110702,0,6.9446295055.4554188811,10.4056231875,1.3358863458l5.3809659283,1.3716799107v-29.8047863095Z"/>
          <path class="cls-13" d="M360.9721198175,182.5149279821h-31.535893268v7.6569756803c-9.3126992219-7.6827362005-22.0519543776-12.0248752556-36.9519748529-12.4453140619-.8905005094-.0252181935-1.7861531228-.0351156565-2.6719082733-.0351156565-22.5934676289,0-43.2226278004,7.7940487642-55.1873047878,20.8662925392-11.7165625032,12.7955215552-18.57441973,28.277458624-19.8400747628,44.7670387783-1.5690868446,20.3147462432,4.7777630102,39.2644560783,17.8360418716,53.3694255506,13.8217393316,14.9112737551,34.4157838466,23.4686474079,56.5027182991,23.4686474079,1.7564607337,0,3.5477659606-.0503008053,5.3095143801-.1563256832,12.7842682753-.7692904827,25.6751037553-5.9872872252,34.7447050153-12.0301629414-1.2346068268,23.6354128809-10.6942765956,34.1271304385-38.3434496896,35.4935226635-39.0724724118-.1721887404-37.2956744252-16.8629721158-37.2956744252-16.8629721158h-32.8930659384l.2177441867,4.5242252585c1.9590197717,26.2769508566,36.536959314,40.9750902024,65.8716839204,40.9750902024h.009897463c24.4604274362,0,47.1603266881-7.627825618,59.2110980457-19.9002730311,9.7423575827-9.9104788726,15.1629133631-22.8569028436,15.2641928821-36.481370823.1363951755-16.898630099-.0204728345-35.8430522484-.1873738892-55.8955835121-.2071688152-24.7847388276-.0608761767-77.3141002557-.0608761767-77.3141002557ZM319.5264255853,275.6101940862c-4.4336566927,5.860247186-12.3288493942,13.1384076374-24.7946362906,14.4902926221-1.9186164294.2119141742-3.8318095915.3085839159-5.6993117255.3085839159h0c-12.7440005148,0-24.0353788527-4.965272481-31.7888886929-13.9739975643-8.0322657854-9.3331720563-11.5039704205-22.1578436739-9.5304434085-35.1810068788.5718835488-3.8265219057,2.0853819024-8.0726691276,4.5095824365-12.6420430874l.1113125637-.1972713522c4.0183699905-7.6423328583,12.2076393675-17.3250344995,28.3628750857-20.0883248287,3.3961856364-.5718835488,6.7367827818-.8711123284,9.9502043064-.8711123284,20.1995018106,0,34.6996918958,11.4344170159,37.8377300033,29.8266149608,2.2978384034,13.5184431015-1.0526562051,27.8511898052-8.958424278,38.3282645409Z"/>
          <rect class="cls-12" x="173.1669453185" y="181.4973874335" width="32.9786179819" height="138.5091651032"/>
          <path class="cls-13" d="M814.5114320144,270.0068741939c-3.8926857682,0-8.7625087427.0052876857-13.6323317172.0158630572-4.8486722316.014642822-10.7273585268.0252181935-14.6041812378.0252181935h-2.6480458966l-1.199626752,2.3580366717c-5.9422741057,11.6158253109-17.7050699635,18.5445917592-33.1672121062,18.5445917592-13.1476271921,0-25.7047961444-4.9294789161-33.5643308626-13.2047070816-4.9095484083-5.1624082515-7.7297830454-11.4489242563-8.2752281655-18.3471848254h111.2907350235l.2780780367-4.0185055722c1.565019394-23.1150503724-4.6817711769-42.8935710501-18.0493118626-57.1918800057-13.1742012024-14.0844966378-31.9967354166-21.5348458297-54.4577397389-21.5348458297-.9824248921,0-1.9728491036.0105753715-2.9552739956.045691028-26.2768152749.7692904827-42.5440414653,13.5237307872-51.5686296057,24.0855440762-11.4794301355,13.4483473702-17.8904101274,31.4154967315-17.5674545529,49.30197499.2622149795,15.0517363812,4.6659081197,28.8733401311,12.1229008142,40.2666758964h-32.1237754557c-1.4777047887-.5070755032-2.4998551145-1.0777388169-3.0664509776-1.6404028111-1.6869073292-1.6644007694-2.9102608761-2.8599600708-2.9102608761-5.6232504,0-3.8860422656-.1880517976-57.859213061-.2436402886-74.0137708709h30.4078536459l.055588491-31.1315886824h-30.1562140379l-.0557240727-38.5659392353-34.7242321808,7.2020991259.0503008053,31.3638401094h-.0397254338v-.3845096596h-46.7756814468s-33.6412056782-.0100330447-39.9012832543-.0100330447c-.5665958631,0-1.114752617.0100330447-1.6709086903.0199305077-8.3705420903.15686801-30.6197678201.5773068162-51.8361322709,18.4881897781-21.5871803602,18.2360078434-23.4236342883,39.28953869-24.0365990878,46.2183051383-1.7000587527,19.5971123826,3.8316740098,39.7052321373,14.8093163277,53.7506812498,12.3943353482,15.8766153549,35.7637369624,25.7354376053,60.9919634828,25.7354376053,16.4551424062,0,31.0671873818-4.1748312554,41.5933426876-11.686056624v9.9302737986h32.9791603087v-110.9306300672h13.7965211382l-.0397254338,3.1829156453c-.2250655977,23.3627581116-.476569624,49.863418749.1853401639,72.4461754248.2992287796,10.2441454002,4.6077435767,19.6527008736,12.1229008142,26.4953729517,6.2495022047,5.6933461313,15.456854457,9.0948194535,27.4315644891,10.1619828989,33.2969637791.5072110849,84.7225547068.5072110849,95.0898082773.5072110849,33.3022514648,0,53.4966011714-16.1666245798,65.3890131205-45.7840370001l2.399253504-6.0786692811h-1.7239211293ZM717.295160584,217.5219835585c6.8266734392-6.9234787625,17.5726066569-10.8915479478,29.4704418734-10.8915479478,16.7570828195,0,34.1071999308,8.1692032876,37.6264937375,23.8485472902h-74.3341503934c1.784797306-5.0565189552,3.7946602097-9.4695672318,7.2372147825-12.9569993425ZM557.1445824464,277.360553644c-8.4024037864,9.6879893269-21.1767745986,15.4820726505-34.1987175684,15.4820726505h0c-10.6385525229,0-20.3106787926-3.7192767926-27.9888052159-10.7645079086-10.6241808643-9.7580850582-12.9014108515-22.0465311102-12.9411362853-30.6501381177-.0357935649-6.5195809219,1.9436990412-21.2071448962,9.652195762-30.1404865624,7.5258681906-8.7253593609,20.3955529277-12.4393484678,23.4275661572-12.961066793,3.3405971454-.5613081774,6.6546202805-.8605369569,9.848246879-.8605369569,4.3931177688,0,8.4472813242.5362255656,12.1679139337,1.477569207v.1324633066h.4951443149c17.5383044905,4.6711958055,27.3917034736,18.8172465285,29.3142517719,32.1437059635,2.5421566004,17.607044405-3.9165481448,29.3751279486-9.7766597491,36.1409252111Z"/>
          <path class="cls-13" d="M189.7122495455,137.1414323252c-10.0819897045,0-18.2711234999,8.1938791543-18.2711234999,18.2704455914,0,10.0666689741,8.1891337953,18.2711234999,18.2711234999,18.2711234999,10.0765664371,0,18.2657002324-8.2044545258,18.2657002324-18.2711234999,0-10.0765664371-8.1891337953-18.2704455914-18.2657002324-18.2704455914Z"/>
        </g>
        <g class="cls-8">
          <g>
            <path class="cls-1" d="M331.986924796,137.7028760842c43.8449477362,1.6451481701,96.410645056-2.6574010329,147.7013322068-13.3562874058,89.9976313388-18.7517605744,146.5871219165-51.0470468622,140.4673713847-77.1935681374-90.1089439025,25.8479704041-188.2361886768,56.1035658174-288.1687035915,90.5498555433Z"/>
            <path class="cls-11" d="M365.1527810853,137.8498466311c94.3517015823-31.1467738311,180.6499866362-57.0549425035,253.1861883001-77.6133290353,4.2872284726-8.8372142513,2.6321828395-17.3654378417-5.9025486718-24.9515043006-4.1760514906-3.7000241933-9.7872351206-6.984897266-16.6113325078-9.8593645772-101.6836879628,28.6210226147-214.9520174489,63.143373666-330.3168465356,103.2280989406,25.0428863565,7.0955319213,60.1676268359,10.2334344471,99.6445394151,9.1960989724Z"/>
            <path class="cls-15" d="M234.9334869697,113.9859786105c10.9577118102,9.7277147607,31.7795335567,16.5855719876,58.7502558972,20.427279042,123.9433534823-41.3802082782,234.9859740217-73.9184569461,320.5243237292-97.4327953819-.5614437591-.5720191305-1.1573252662-1.1340052163-1.7716458825-1.6954489753-11.6303325513-10.31491904-34.3641272245-17.4210263327-63.7762689732-21.1005776915-97.2084076927,27.2745608974-205.2447755226,60.0056067219-315.7358497659,97.8631316512.6274720398.652825815,1.2954830035,1.300906271,2.0091849952,1.9384113555Z"/>
            <path class="cls-14" d="M234.9334869697,113.9859786105c2.7182772097,2.4144386528,6.0481634019,4.6514008794,9.9454589474,6.7115645884,134.5211654102-44.240168349,252.3051785087-77.7350813888,336.5087265239-100.2165585456-29.1420630315-8.1488660348-71.7576916266-11.0081481972-118.943778835-8.1991668401-71.6511244219,20.2499381976-148.904755246,43.3941386324-228.4967633973,69.3326776024-9.5914551669,11.4384844665-9.935697066,22.6795619991.9863567609,32.3714831949Z"/>
            <path class="cls-9" d="M226.8713932135,96.0340143979C338.5713137635,60.0286708722,437.1587227778,31.7822604542,512.3416145215,11.4615486168c-43.2272375777-1.3358863458-94.5522268949,3.0215734398-144.6480326526,13.4575669248-83.1602469465,17.3396773215-137.7961410199,46.2036623163-140.8221886553,71.1148988563Z"/>
            <path class="cls-2" d="M235.6524766471,114.6036887689c14.6822762886,12.3897255709,47.1450059577,21.0243807843,94.168259562,23.0130929451,82.5075567132,3.4921774696,182.8705434789-14.5961819184,242.1212313767-41.9979184366-99.3148047563,3.4921774696-212.45745002,9.3788630843-336.2894909387,18.9848254916Z"/>
            <path class="cls-3" d="M249.3629034151,122.8835267118c113.6541949626-7.6979213493,211.4868207346-12.1771334883,290.8709821623-14.763082973,22.7152199824-7.703209035,42.1945118804-16.550456331,56.4994643386-26.1564187383,7.0041498653-4.6916686399,12.3982672171-9.3224611032,16.2856652996-13.8321791214-110.76915228,3.3961856364-240.4310700871,9.8138091309-384.1231162763,21.201179302-6.1746611144,13.1643037394,1.2750101691,24.9012034953,20.4670044758,33.5505015307Z"/>
            <path class="cls-5" d="M250.6385914926,67.3069669053c-18.3724030188,12.3241040352-25.78167096,24.2279048458-23.4434292144,34.643561078,150.4082205549-10.5830996136,274.4482437789-15.5734547064,366.2889725484-17.8706152013,1.112176565-.7038045287,2.2059140207-1.4074734756,3.2492150895-2.1158877816,19.500442641-13.0681763244,26.6502072364-25.6856791268,22.9164232034-36.5467211953-105.7284963819,3.1730181823-228.917880112,9.0849219905-365.2966501933,19.4852574922-1.2802978548.7996607802-2.5096169959,1.5947117831-3.7145314336,2.4044056081Z"/>
            <path class="cls-4" d="M250.6385914926,67.3069669053c-4.5653065092,3.0618412003-8.4421292202,6.0885667441-11.6714138019,9.0849219904,161.6394006244-10.810876845,290.7962766537-15.0974274091,379.6287189886-16.7074599227,6.9405620549-15.2138920768-4.350816283-28.504557947-30.9825844101-37.3107239923-78.2718492811,2.4852122925-165.759863624,6.4679242998-260.8140139181,12.6226549064-31.1367407864,8.9882522488-57.8697884325,20.0320584292-76.1607068584,32.3106070182Z"/>
            <path class="cls-6" d="M289.6805580251,47.5529865127c132.5019473703-8.2600430168,241.0784726347-12.0507713575,320.9949277591-13.7310351841-15.1364749345-11.9394587939-47.1860872084-20.2194323184-93.1143831217-22.1577080922-76.2421914513-3.2393176264-167.7028847568,11.9546439426-227.8805446374,35.8887432763Z"/>
          </g>
        </g>
        <g>
          <path class="cls-12" d="M831.6206204708,303.613642124c0-2.5262935432-1.7184978619-5.0670943267-5.1822031776-5.0670943267h-5.7782202664v15.892478412h2.2720778831v-13.5793192782h3.5061423832c1.9436990412,0,2.8863984995,1.3875429679,2.8863984995,2.7539351929,0,1.3863227327-.9426994583,2.7632903292-2.8863984995,2.7632903292h-2.6719082732v1.0883141883l5.7966593756,6.9737795678h2.9711370528l-5.020860972-5.971424168c2.7329200317-.4767052057,4.1071759944-2.6071002277,4.1071759944-4.8539599173Z"/>
          <path class="cls-12" d="M825.5988954975,292.3831399629c-8.0527386199,0-14.6067572898,6.5487309842-14.6067572898,14.6108247404,0,8.0474509341,6.55401867,14.6014696041,14.6067572898,14.6014696041,8.0581618873,0,14.6121805572-6.55401867,14.6121805572-14.6014696041,0-8.0620937562-6.55401867-14.6108247404-14.6121805572-14.6108247404ZM825.5988954975,319.6014344608c-6.9485613743,0-12.6127574433-5.6629758338-12.6127574433-12.6074697576,0-6.9591367458,5.664196069-12.6221125796,12.6127574433-12.6221125796,6.9538490601,0,12.6181807108,5.6629758338,12.6181807108,12.6221125796,0,6.9444939238-5.6643316507,12.6074697576-12.6181807108,12.6074697576Z"/>
        </g>
      </g>
    </g>
  </g>
</svg>