<svg width="28" height="28" viewBox="0 0 28 28" fill="none" xmlns="http://www.w3.org/2000/svg">
  <path d="M13.9999 27.125C19.7312 27.125 24.5874 23.4938 26.3812 18.375H1.61865C3.4124 23.4938 8.26865 27.125 13.9999 27.125Z" fill="#428BC1"/>
  <path d="M13.9999 0.875C8.26865 0.875 3.4124 4.55 1.61865 9.625H26.3812C24.5874 4.55 19.7312 0.875 13.9999 0.875Z" fill="#ED4C5C"/>
  <path d="M26.3813 18.375C26.8625 17.0188 27.125 15.5312 27.125 14C27.125 12.4688 26.8625 10.9812 26.3813 9.625H1.61875C1.1375 10.9812 0.875 12.4688 0.875 14C0.875 15.5312 1.1375 17.0188 1.61875 18.375H26.3813Z" fill="#F9F9F9"/>
  <path d="M14 17.9375C11.8125 17.9375 10.0625 16.1875 10.0625 14C10.0625 11.8125 11.8125 10.0625 14 10.0625C16.1875 10.0625 17.9375 11.8125 17.9375 14C17.9375 16.1875 16.1875 17.9375 14 17.9375ZM14 10.1937C11.9 10.1937 10.1937 11.9 10.1937 14C10.1937 16.1 11.9 17.8063 14 17.8063C16.1 17.8063 17.8063 16.1 17.8063 14C17.8063 11.9 16.1 10.1937 14 10.1937Z" fill="#3E4347"/>
  <path d="M14 10.675C12.1625 10.675 10.675 12.1625 10.675 14C10.675 15.8375 12.1625 17.325 14 17.325C15.8375 17.325 17.325 15.8375 17.325 14C17.325 12.1625 15.8375 10.675 14 10.675ZM14 16.4937C12.6438 16.4937 11.5063 15.3562 11.5063 14C11.5063 12.6437 12.6438 11.5062 14 11.5062C15.3563 11.5062 16.4938 12.6437 16.4938 14C16.4938 15.3562 15.3563 16.4937 14 16.4937Z" fill="#ED4C5C"/>
  <path d="M11.3749 14C11.3749 12.5563 12.5562 11.375 13.9999 11.375C15.4437 11.375 16.6249 12.5563 16.6249 14H17.1937C17.1937 12.25 15.7499 10.8063 13.9999 10.8063C12.2499 10.8063 10.8062 12.25 10.8062 14H11.3749Z" fill="#FFCE31"/>
  <path d="M15.2687 13.8687C15.2687 14.5687 14.7 15.1375 14 15.1375C13.3 15.1375 12.7312 14.5687 12.7312 13.8687C12.7312 13.1687 13.3 12.6 14 12.6C14.7 12.6 15.2687 13.1687 15.2687 13.8687Z" fill="#428BC1"/>
  <path d="M14.7 14.7L14 14.2188L13.3 14.7L13.5625 13.9563L12.95 13.475H13.6937L13.9562 12.7313L14.2187 13.475H14.9625L14.4375 13.9563L14.7 14.7Z" fill="#FFCE31"/>
  <path d="M12.8625 12.9062C12.8625 12.9062 12.6875 12.8625 12.6 12.8625C12.6875 12.7312 12.7312 12.425 12.7312 12.425C12.7312 12.425 12.4687 12.5562 12.3812 12.7312C12.3375 12.6437 12.25 12.5125 12.25 12.5125C12.25 12.5125 12.1187 12.6437 12.1625 12.775C12.1625 12.9062 12.3375 13.0812 12.3375 13.0812C12.3375 13.0812 12.5562 13.1687 12.6875 13.125C12.775 13.0375 12.8625 12.9062 12.8625 12.9062Z" fill="#699635"/>
  <path d="M12.6437 13.2562C12.6437 13.2562 12.4687 13.2562 12.3812 13.3C12.425 13.125 12.3812 12.8625 12.3812 12.8625C12.3812 12.8625 12.1625 13.0812 12.1187 13.2125C12.0312 13.125 11.9 13.0375 11.9 13.0375C11.9 13.0375 11.8125 13.2125 11.8562 13.3C11.9 13.3875 12.1187 13.5625 12.1187 13.5625C12.1187 13.5625 12.3812 13.5625 12.4687 13.5187C12.5562 13.475 12.6437 13.2562 12.6437 13.2562Z" fill="#83BF4F"/>
  <path d="M12.5125 13.65C12.5125 13.65 12.3375 13.6937 12.25 13.7375C12.25 13.5625 12.1625 13.3 12.1625 13.3C12.1625 13.3 12.0312 13.5625 12.0312 13.7375C11.9437 13.65 11.8125 13.6062 11.8125 13.6062C11.8125 13.6062 11.7687 13.7812 11.8562 13.8687C11.9437 13.9562 12.1625 14.0437 12.1625 14.0437C12.1625 14.0437 12.3812 14 12.4687 13.9125C12.5562 13.825 12.5125 13.65 12.5125 13.65Z" fill="#699635"/>
  <path d="M12.5125 14.0875C12.5125 14.0875 12.3813 14.175 12.2938 14.2625C12.25 14.0875 12.075 13.8688 12.075 13.8688C12.075 13.8688 11.9875 14.1313 12.0313 14.3063C11.9 14.2625 11.7688 14.2625 11.7688 14.2625C11.7688 14.2625 11.7688 14.4375 11.9 14.525C11.9875 14.6125 12.25 14.6125 12.25 14.6125C12.25 14.6125 12.4688 14.4813 12.5125 14.3938C12.5563 14.3063 12.5125 14.0875 12.5125 14.0875Z" fill="#83BF4F"/>
  <path d="M12.6001 14.4813C12.6001 14.4813 12.4688 14.6125 12.4251 14.7C12.3376 14.525 12.1188 14.3938 12.1188 14.3938C12.1188 14.3938 12.1188 14.6563 12.2063 14.8313H11.9438C11.9438 14.8313 11.9876 15.0063 12.1188 15.05C12.2501 15.0938 12.4688 15.05 12.4688 15.05C12.4688 15.05 12.6438 14.875 12.6876 14.7438C12.7313 14.6125 12.6001 14.4813 12.6001 14.4813Z" fill="#699635"/>
  <path d="M12.8188 14.875C12.8188 14.875 12.7313 15.0062 12.6875 15.1375C12.5563 15.0062 12.2938 14.9187 12.2938 14.9187C12.2938 14.9187 12.3813 15.1813 12.4688 15.3125C12.3375 15.3125 12.2063 15.4 12.2063 15.4C12.2063 15.4 12.2938 15.5312 12.425 15.575C12.5563 15.575 12.775 15.4875 12.775 15.4875C12.775 15.4875 12.9063 15.2687 12.9063 15.1375C12.95 14.9625 12.8188 14.875 12.8188 14.875Z" fill="#83BF4F"/>
  <path d="M13.0813 15.1813C13.0813 15.1813 13.0376 15.3563 13.0376 15.4438C12.9063 15.3563 12.6001 15.3125 12.6001 15.3125C12.6001 15.3125 12.7313 15.5313 12.9063 15.6625C12.8188 15.7063 12.6876 15.7938 12.6876 15.7938C12.6876 15.7938 12.8188 15.925 12.9501 15.8813C13.0813 15.8813 13.2563 15.7063 13.2563 15.7063C13.2563 15.7063 13.3438 15.4875 13.3001 15.3563C13.2563 15.2688 13.0813 15.1813 13.0813 15.1813Z" fill="#699635"/>
  <path d="M13.475 15.4C13.475 15.4 13.475 15.575 13.5188 15.6625C13.3438 15.6188 13.0813 15.6625 13.0813 15.6625C13.0813 15.6625 13.3 15.8375 13.4313 15.925L13.2563 16.1C13.2563 16.1 13.4313 16.1875 13.5188 16.1438C13.65 16.1 13.7813 15.8813 13.7813 15.8813C13.7813 15.8813 13.7813 15.6188 13.7375 15.5313C13.6063 15.4438 13.475 15.4 13.475 15.4Z" fill="#83BF4F"/>
  <path d="M15.1375 12.9062C15.1375 12.9062 15.3125 12.8625 15.4 12.8625C15.3125 12.7312 15.2687 12.425 15.2687 12.425C15.2687 12.425 15.5312 12.5562 15.6187 12.7312C15.6625 12.6437 15.75 12.5125 15.75 12.5125C15.75 12.5125 15.8812 12.6437 15.8375 12.775C15.8375 12.9062 15.6625 13.0812 15.6625 13.0812C15.6625 13.0812 15.4437 13.125 15.3125 13.0812C15.225 13.0375 15.1375 12.9062 15.1375 12.9062Z" fill="#699635"/>
  <path d="M15.3562 13.2562C15.3562 13.2562 15.5312 13.2562 15.6187 13.3C15.575 13.125 15.6187 12.8625 15.6187 12.8625C15.6187 12.8625 15.8375 13.0812 15.8812 13.2125C15.9687 13.125 16.1 13.0375 16.1 13.0375C16.1 13.0375 16.1875 13.2125 16.1437 13.3C16.1 13.3875 15.8375 13.5625 15.8375 13.5625C15.8375 13.5625 15.575 13.5625 15.4875 13.5187C15.4 13.475 15.3562 13.2562 15.3562 13.2562Z" fill="#83BF4F"/>
  <path d="M15.4875 13.65C15.4875 13.65 15.6625 13.6937 15.75 13.7375C15.75 13.5625 15.8375 13.3 15.8375 13.3C15.8375 13.3 15.9687 13.5625 15.9687 13.7375C16.0562 13.65 16.1875 13.6062 16.1875 13.6062C16.1875 13.6062 16.2313 13.7812 16.1438 13.8687C16.0563 13.9562 15.8375 14.0437 15.8375 14.0437C15.8375 14.0437 15.6187 14 15.5312 13.9125C15.4437 13.825 15.4875 13.65 15.4875 13.65Z" fill="#699635"/>
  <path d="M15.4875 14.0875C15.4875 14.0875 15.6187 14.175 15.7062 14.2625C15.75 14.0875 15.925 13.8688 15.925 13.8688C15.925 13.8688 16.0125 14.1313 15.9687 14.3063C16.1 14.2625 16.2312 14.2625 16.2312 14.2625C16.2312 14.2625 16.2312 14.4375 16.1 14.525C16.0125 14.6125 15.75 14.6125 15.75 14.6125C15.75 14.6125 15.5312 14.4813 15.4875 14.3938C15.4437 14.2625 15.4875 14.0875 15.4875 14.0875Z" fill="#83BF4F"/>
  <path d="M15.3999 14.4813C15.3999 14.4813 15.5311 14.6125 15.5749 14.7C15.6624 14.525 15.8811 14.3938 15.8811 14.3938C15.8811 14.3938 15.8811 14.6563 15.7936 14.8313H16.0561C16.0561 14.8313 16.0124 15.0063 15.8811 15.05C15.7499 15.0938 15.5311 15.05 15.5311 15.05C15.5311 15.05 15.3561 14.875 15.3124 14.7438C15.2686 14.6125 15.3999 14.4813 15.3999 14.4813Z" fill="#699635"/>
  <path d="M15.1811 14.875C15.1811 14.875 15.2686 15.0062 15.3124 15.1375C15.4436 15.0062 15.7061 14.9187 15.7061 14.9187C15.7061 14.9187 15.6186 15.1813 15.5311 15.3125C15.6624 15.3125 15.7936 15.4 15.7936 15.4C15.7936 15.4 15.7061 15.5312 15.5749 15.575C15.4436 15.575 15.2249 15.4875 15.2249 15.4875C15.2249 15.4875 15.0936 15.2687 15.0936 15.1375C15.0499 14.9625 15.1811 14.875 15.1811 14.875Z" fill="#83BF4F"/>
  <path d="M14.9187 15.1813C14.9187 15.1813 14.9625 15.3563 14.9625 15.4438C15.0937 15.3563 15.4 15.3125 15.4 15.3125C15.4 15.3125 15.2687 15.5313 15.0937 15.6625C15.1812 15.7063 15.3125 15.7938 15.3125 15.7938C15.3125 15.7938 15.1812 15.925 15.05 15.8813C14.9187 15.8813 14.7437 15.7063 14.7437 15.7063C14.7437 15.7063 14.6562 15.4875 14.7 15.3563C14.7437 15.2688 14.9187 15.1813 14.9187 15.1813Z" fill="#699635"/>
  <path d="M14.525 15.4C14.525 15.4 14.525 15.575 14.4812 15.6625C14.6562 15.6188 14.9187 15.6625 14.9187 15.6625C14.9187 15.6625 14.7 15.8375 14.5687 15.925L14.7438 16.1C14.7438 16.1 14.5687 16.1875 14.4812 16.1438C14.35 16.1 14.2188 15.8813 14.2188 15.8813C14.2188 15.8813 14.2187 15.6188 14.2625 15.5313C14.3937 15.4438 14.525 15.4 14.525 15.4Z" fill="#83BF4F"/>
  </svg>
  