<svg width="28" height="28" viewBox="0 0 28 28" fill="none" xmlns="http://www.w3.org/2000/svg">
  <path d="M26.9937 12.25H26.3813V9.625C25.9438 8.35625 25.2875 7.175 24.5 6.125H21.875V3.5C19.6875 1.8375 16.975 0.875 14 0.875C6.7375 0.875 0.875 6.7375 0.875 14C0.875 14.6125 0.91875 15.1812 1.00625 15.75H1.61875V18.375C2.05625 19.6437 2.7125 20.825 3.5 21.875H6.125V24.5C8.3125 26.1625 11.025 27.125 14 27.125C16.975 27.125 19.6875 26.1625 21.875 24.5V21.875H24.5C25.2875 20.825 25.9438 19.6437 26.3813 18.375V15.75H26.9937C27.0813 15.1812 27.125 14.6125 27.125 14C27.125 13.3875 27.0813 12.8188 26.9937 12.25Z" fill="#F9F9F9"/>
  <path d="M1.61885 18.375H26.3813C26.6876 17.5437 26.9063 16.6687 26.9938 15.75H1.00635C1.09385 16.6687 1.3126 17.5437 1.61885 18.375ZM3.5001 21.875C4.24385 22.8813 5.11885 23.7563 6.1251 24.5H21.8751C22.8813 23.7563 23.7563 22.8813 24.5001 21.875H3.5001ZM14.0001 6.125H24.5001C23.7563 5.11875 22.8813 4.24375 21.8751 3.5H14.0001V6.125ZM14.0001 12.25H26.9938C26.8626 11.3313 26.6438 10.4563 26.3813 9.625H14.0001V12.25Z" fill="#428BC1"/>
  <path d="M7.30625 10.85L6.69375 11.2875C6.34375 12.1187 6.475 12.4687 6.51875 12.775L6.2125 13.5187C7.39375 13.125 6.3875 12.425 8.00625 11.2437L7.6125 10.6312L7.30625 10.85ZM6.95625 10.1937L6.60625 10.15L5.90625 10.0187C5.075 10.3687 4.9 10.7187 4.725 10.9375L3.9375 11.2C5.03125 11.7687 4.8125 10.5437 6.825 10.85L6.95625 10.1937ZM6.2125 9.75625L6.825 9.3625L6.60625 9.05625H6.65C6.65 9.05625 6.60625 9.05625 6.60625 9.0125L6.2125 8.4C5.38125 8.05 5.03125 8.18125 4.725 8.225L3.9375 7.9625C4.33125 9.1 5.03125 8.09375 6.2125 9.75625ZM6.60625 8.4875L7.30625 8.61875L7.35 8.26875L7.48125 7.56875C7.13125 6.7375 6.78125 6.5625 6.5625 6.3875L6.25625 5.64375C5.6875 6.7375 6.9125 6.51875 6.60625 8.4875ZM9.5375 5.6875C8.35625 6.08125 9.3625 6.78125 7.74375 7.9625L8.1375 8.575L9.05625 7.9625C9.66875 6.475 8.8375 6.3875 9.5375 5.6875ZM8.88125 9.05625L9.23125 9.1L9.93125 9.23125C10.7625 8.88125 10.9375 8.53125 11.1125 8.3125L11.8563 8.00625C10.7625 7.4375 10.9812 8.6625 8.96875 8.35625L8.88125 9.05625ZM9.58125 9.49375L8.96875 9.8875L9.1875 10.1937H9.14375C9.14375 10.1937 9.1875 10.1937 9.1875 10.2375L9.58125 10.85C10.4125 11.2 10.7625 11.0687 11.0687 11.025L11.8125 11.3312C11.4625 10.15 10.7625 11.1562 9.58125 9.49375ZM9.1 10.7187L8.4 10.5875L8.3125 10.9375L8.18125 11.6375C8.53125 12.4687 8.88125 12.6437 9.1 12.8187L9.40625 13.5625C9.975 12.4687 8.75 12.6875 9.1 10.7187Z" fill="#FCD116"/>
  <path d="M9.23125 9.1L8.88125 9.05625L8.96875 8.35625C10.9812 8.6625 10.7625 7.4375 11.8563 8.00625L11.1125 8.3125C10.9375 8.53125 10.7625 8.88125 9.93125 9.23125L9.23125 9.1ZM9.23125 9.1H9.1875M8.3125 10.9375L8.4 10.5875L9.1 10.7187C8.75 12.6875 9.975 12.4687 9.40625 13.5625L9.1 12.8187C8.88125 12.6437 8.53125 12.4687 8.18125 11.6375L8.3125 10.9375ZM8.3125 10.9375V10.8937M7.30625 10.85L6.69375 11.2875C6.34375 12.1187 6.475 12.4687 6.51875 12.775L6.2125 13.5187C7.39375 13.125 6.3875 12.425 8.00625 11.2437L7.6125 10.6312L7.30625 10.85ZM6.95625 10.1937L6.60625 10.15L5.90625 10.0187C5.075 10.3687 4.9 10.7187 4.725 10.9375L3.9375 11.2C5.03125 11.7687 4.8125 10.5437 6.825 10.85L6.95625 10.1937ZM6.2125 9.75625L6.825 9.3625L6.60625 9.05625H6.65C6.65 9.05625 6.60625 9.05625 6.60625 9.0125L6.2125 8.4C5.38125 8.05 5.03125 8.18125 4.725 8.225L3.9375 7.9625C4.33125 9.1 5.03125 8.09375 6.2125 9.75625ZM6.60625 8.4875L7.30625 8.61875L7.35 8.26875L7.48125 7.56875C7.13125 6.7375 6.78125 6.5625 6.5625 6.3875L6.25625 5.64375C5.6875 6.7375 6.9125 6.51875 6.60625 8.4875ZM9.5375 5.6875C8.35625 6.08125 9.3625 6.78125 7.74375 7.9625L8.1375 8.575L9.05625 7.9625C9.66875 6.475 8.8375 6.3875 9.5375 5.6875ZM9.58125 9.49375L8.96875 9.8875L9.1875 10.1937H9.14375C9.14375 10.1937 9.1875 10.1937 9.1875 10.2375L9.58125 10.85C10.4125 11.2 10.7625 11.0687 11.0687 11.025L11.8125 11.3312C11.4625 10.15 10.7625 11.1562 9.58125 9.49375Z" stroke="black" stroke-width="0.025" stroke-miterlimit="20"/>
  <path d="M9.1875 10.1937L12.25 9.625L9.1875 9.05625L10.9813 6.51875L8.44375 8.3125L7.875 5.25L7.30625 8.3125L4.76875 6.51875L6.51875 9.05625L3.5 9.625L6.51875 10.1937L4.76875 12.7313L7.30625 10.9813L7.875 14L8.44375 10.9813L10.9813 12.7313L9.1875 10.1937Z" fill="#FCD116" stroke="black" stroke-width="0.025" stroke-miterlimit="20"/>
  <path d="M7.8749 11.0688C8.67226 11.0688 9.31865 10.4224 9.31865 9.625C9.31865 8.82764 8.67226 8.18125 7.8749 8.18125C7.07754 8.18125 6.43115 8.82764 6.43115 9.625C6.43115 10.4224 7.07754 11.0688 7.8749 11.0688Z" fill="#FCD116" stroke="black" stroke-width="0.025" stroke-miterlimit="20"/>
  <path d="M8.96864 9.05625C8.88114 9.14375 8.83739 8.96875 8.48739 8.96875C8.13739 8.96875 8.09364 9.1875 8.04989 9.14375C8.00614 9.1 8.31239 8.88125 8.44364 8.8375C8.53114 8.8375 8.83739 8.925 8.96864 9.05625ZM8.57489 9.14375C8.66239 9.23125 8.57489 9.40625 8.48739 9.40625C8.39989 9.40625 8.22489 9.23125 8.31239 9.14375" fill="black"/>
  <path d="M8.13745 9.275C8.13745 9.1 8.2687 9.1 8.48745 9.1C8.7062 9.1 8.7937 9.275 8.8812 9.31875C8.7937 9.31875 8.7062 9.1875 8.48745 9.1875C8.2687 9.14375 8.2687 9.14375 8.13745 9.275ZM8.1812 9.31875C8.22495 9.23125 8.31245 9.40625 8.4437 9.40625C8.57495 9.40625 8.66245 9.3625 8.74995 9.31875C8.83745 9.23125 8.6187 9.49375 8.48745 9.49375C8.31245 9.45 8.13745 9.3625 8.1812 9.31875Z" fill="black"/>
  <path d="M8.61875 9.40625C8.79375 9.31875 8.70625 9.1875 8.61875 9.14375C8.6625 9.1875 8.75 9.31875 8.61875 9.40625ZM7.875 10.1938C7.9625 10.1938 7.9625 10.15 8.09375 10.15C8.225 10.15 8.44375 10.2813 8.61875 10.2375C8.3125 10.3688 8.44375 10.2813 7.91875 10.2813H7.83125M8.6625 10.3688C8.61875 10.2813 8.61875 10.2813 8.53125 10.15C8.61875 10.2375 8.61875 10.2813 8.6625 10.3688ZM7.875 10.5C8.225 10.5 8.1375 10.4125 8.575 10.2375C8.26875 10.2813 8.18125 10.3688 7.875 10.3688H7.7875M7.875 10.0188C7.9625 10.0188 8.00625 9.93125 8.09375 9.93125C8.18125 9.93125 8.35625 9.975 8.4 10.0188C8.4 10.0188 8.35625 9.93125 8.26875 9.8875C8.18125 9.8875 8.18125 9.7125 8.09375 9.66875C8.09375 9.7125 8.1375 9.7125 8.1375 9.8C8.1375 9.8875 8.00625 9.8875 8.00625 9.8C8.05 9.8875 7.9625 9.8875 7.875 9.8875M6.78125 9.05625C6.86875 9.14375 6.9125 8.96875 7.2625 8.96875C7.6125 8.96875 7.65625 9.1875 7.7 9.14375C7.74375 9.1 7.4375 8.88125 7.30625 8.8375C7.21875 8.8375 6.9125 8.925 6.78125 9.05625ZM7.175 9.14375C7.0875 9.23125 7.175 9.40625 7.2625 9.40625C7.35 9.40625 7.525 9.23125 7.4375 9.14375" fill="black"/>
  <path d="M7.6124 9.275C7.6124 9.1 7.48115 9.1 7.2624 9.1C7.04365 9.1 6.95615 9.275 6.86865 9.31875C6.95615 9.31875 7.04365 9.1875 7.2624 9.1875C7.48115 9.1875 7.48115 9.14375 7.6124 9.275ZM7.56865 9.31875C7.5249 9.23125 7.4374 9.40625 7.30615 9.40625C7.1749 9.40625 7.0874 9.3625 6.9999 9.31875C6.9124 9.23125 7.13115 9.49375 7.2624 9.49375C7.4374 9.45 7.6124 9.3625 7.56865 9.31875Z" fill="black"/>
  <path d="M7.13131 9.40625C6.95631 9.31875 7.04381 9.1875 7.13131 9.14375C7.08756 9.1875 7.00006 9.31875 7.13131 9.40625ZM7.87506 10.1937C7.78756 10.1937 7.78756 10.15 7.65631 10.15C7.52506 10.15 7.30631 10.2812 7.13131 10.2375C7.43756 10.3687 7.30631 10.2812 7.83131 10.2812H7.91881M7.08756 10.3687C7.13131 10.2812 7.13131 10.2812 7.21881 10.15C7.13131 10.2375 7.13131 10.2812 7.08756 10.3687ZM7.87506 10.5C7.52506 10.5 7.61256 10.4125 7.17506 10.2375C7.48131 10.2812 7.56881 10.3687 7.87506 10.3687H7.96256M7.87506 10.0187C7.78756 10.0187 7.74381 9.93125 7.65631 9.93125C7.56881 9.93125 7.39381 9.975 7.35006 10.0187C7.35006 10.0187 7.39381 9.93125 7.48131 9.8875C7.56881 9.8875 7.56881 9.7125 7.65631 9.66875C7.65631 9.7125 7.61256 9.7125 7.61256 9.8C7.61256 9.8875 7.74381 9.8875 7.74381 9.8C7.70006 9.8875 7.78756 9.8875 7.87506 9.8875M7.87506 10.6312C7.65631 10.675 7.78756 10.6312 7.87506 10.6312V10.6312Z" fill="black"/>
  </svg>
  