<svg width="20" height="20" viewBox="0 0 20 20" fill="none" xmlns="http://www.w3.org/2000/svg">
  <path d="M8.125 5.5498V6.60605H19.9891C19.9725 6.26543 19.9369 5.8348 19.8094 5.5498"
    fill="#EC1C24" />
  <path d="M19.25 4.49414H8.125V5.55039H19.8094C19.6825 5.15633 19.4937 4.79695 19.25 4.49414Z"
    fill="#E6E7E8" />
  <path d="M16.875 3.4375H8.125V4.49375H19.25C18.7284 3.84063 17.87 3.4375 16.875 3.4375Z"
    fill="#EC1C24" />
  <path
    d="M19.9891 6.60645H8.125V7.6627H20V6.95863C20 6.89582 19.9959 6.83457 19.9941 6.77301C19.9928 6.75613 19.9909 6.7127 19.9891 6.60645Z"
    fill="#E6E7E8" />
  <path d="M8.125 8.71836H20V7.66211H8.125V8.71836Z" fill="#EC1C24" />
  <path d="M8.125 9.775H20V8.71875H8.125V9.775Z" fill="#E6E7E8" />
  <path d="M8.125 9.77539H20V10.8316H8.125V9.77539Z" fill="#EC1C24" />
  <path d="M0 10.8311V11.8873H20V10.8311H8.125H0Z" fill="#E6E7E8" />
  <path d="M0 11.8877H20V12.9439H0V11.8877Z" fill="#EC1C24" />
  <path
    d="M0.0015625 13.593C0.0015625 13.593 -0.00125 13.849 0.00625 13.9996H19.9937C20.0025 13.8452 19.9984 13.593 19.9984 13.593L20 12.9434H0L0.0015625 13.593Z"
    fill="#E6E7E8" />
  <path
    d="M3.12344 17.1873H16.8734C17.8713 17.1873 18.7006 16.8248 19.2672 16.1123H0.726562C1.31156 16.8404 2.15656 17.1873 3.12188 17.1873"
    fill="#EC1C24" />
  <path
    d="M0.728125 16.1129H19.2688C19.5159 15.7988 19.7005 15.4403 19.8125 15.0566H0.1875C0.30184 15.439 0.485635 15.7971 0.729687 16.1129"
    fill="#E6E7E8" />
  <path
    d="M0.189063 15.0563H19.8141C19.9163 14.7126 19.9772 14.358 19.9953 14H0.0078125C0.03875 14.3613 0.0675 14.6341 0.189063 15.0563Z"
    fill="#EC1C24" />
  <path d="M8.125 3.4375H3.125C1.05406 3.4375 0 4.97656 0 6.875V10.8313H8.125V3.4375Z"
    fill="#176496" />
  <path
    d="M0.873906 5.30523L1.04391 5.17461L1.21359 5.30523L1.14766 5.09523L1.31672 4.9668H1.10797L1.04328 4.75586L0.978906 4.9668H0.770469L0.940156 5.09523L0.873906 5.30523ZM1.99703 5.30523L2.16703 5.17461L2.33672 5.30523L2.27109 5.09523L2.43984 4.9668H2.23141L2.16672 4.75586L2.10234 4.9668H1.89328L2.06297 5.09523L1.99703 5.30523ZM3.23609 5.30523L3.40578 5.17461L3.57578 5.30523L3.50984 5.09523L3.67859 4.9668H3.47141L3.40578 4.75586L3.34109 4.9668H3.13391L3.30172 5.09523L3.23609 5.30523ZM4.46609 5.30523L4.63578 5.17461L4.80578 5.30523L4.74016 5.09523L4.90891 4.9668H4.69953L4.63578 4.75586L4.57141 4.9668H4.36266L4.53203 5.09523L4.46609 5.30523ZM5.70047 5.30523L5.87047 5.17461L6.04016 5.30523L5.97453 5.09523L6.14359 4.9668H5.93453L5.87016 4.75586L5.80578 4.9668H5.59734L5.76609 5.09523L5.70047 5.30523ZM1.47172 5.85367L1.64141 5.72336L1.81109 5.85367L1.74578 5.64398L1.91453 5.51555H1.70578L1.64109 5.30492L1.57766 5.51555H1.36828L1.53734 5.64398L1.47172 5.85367ZM2.59516 5.85367L2.76484 5.72336L2.93453 5.85367L2.86891 5.64398L3.03766 5.51555H2.82766L2.76484 5.30492L2.70016 5.51555H2.49172L2.66078 5.64398L2.59516 5.85367ZM3.83422 5.85367L4.00359 5.72336L4.17328 5.85367L4.10766 5.64398L4.27672 5.51555H4.06828L4.00359 5.30492L3.93891 5.51555H3.73016L3.89922 5.64398L3.83422 5.85367ZM5.06359 5.85367L5.23359 5.72336L5.40359 5.85367L5.33703 5.64398L5.50641 5.51555H5.29797L5.23328 5.30492L5.16922 5.51555H4.96047L5.12953 5.64398L5.06359 5.85367ZM6.29953 5.85367L6.46797 5.72336L6.63766 5.85367L6.57141 5.64398L6.74078 5.51555H6.53266L6.46766 5.30492L6.40359 5.51555H6.19484L6.36391 5.64398L6.29953 5.85367ZM6.99547 5.30523L7.16516 5.17461L7.33516 5.30523L7.26922 5.09523L7.43797 4.9668H7.23078L7.16484 4.75586L7.10047 4.9668H6.89016L7.06109 5.09523L6.99547 5.30523ZM0.857344 9.69398L1.02734 9.56492L1.19703 9.69398L1.13141 9.48586L1.30016 9.35711L1.09172 9.35773L1.02672 9.14711L0.962969 9.35773L0.753906 9.35711L0.922969 9.48586L0.857344 9.69398ZM1.98078 9.69398L2.15047 9.56492L2.32047 9.69398L2.25453 9.48586L2.42328 9.35711L2.21516 9.35773L2.15016 9.14711L2.08609 9.35773L1.87766 9.35711L2.04641 9.48586L1.98078 9.69398ZM3.21984 9.69398L3.38953 9.56492L3.55953 9.69398L3.49359 9.48586L3.66234 9.35711L3.45266 9.35773L3.38922 9.14711L3.32484 9.35773L3.11641 9.35711L3.28547 9.48586L3.21984 9.69398ZM4.44984 9.69398L4.61953 9.56492L4.78922 9.69398L4.72453 9.48586L4.89234 9.35711L4.68359 9.35773L4.61922 9.14711L4.55484 9.35773L4.34641 9.35711L4.51516 9.48586L4.44984 9.69398ZM5.68391 9.69398L5.85391 9.56492L6.02391 9.69398L5.95891 9.48586L6.12672 9.35711L5.91828 9.35773L5.85359 9.14711L5.78953 9.35773L5.58078 9.35711L5.74953 9.48586L5.68391 9.69398ZM6.97891 9.69398L7.14859 9.56492L7.31859 9.69398L7.25266 9.48586L7.42172 9.35711L7.21203 9.35773L7.14828 9.14711L7.08391 9.35773L6.87453 9.35711L7.04453 9.48586L6.97891 9.69398ZM0.873906 6.40273L1.04391 6.27211L1.21359 6.40273L1.14766 6.19273L1.31672 6.0643L1.10797 6.06492L1.04328 5.85367L0.978906 6.06492L0.770469 6.0643L0.940156 6.19273L0.873906 6.40273ZM1.99703 6.40273L2.16703 6.27211L2.33672 6.40273L2.27109 6.19273L2.43984 6.0643L2.23141 6.06492L2.16672 5.85367L2.10234 6.06492L1.89328 6.0643L2.06297 6.19273L1.99703 6.40273ZM3.23609 6.40273L3.40578 6.27211L3.57578 6.40273L3.50984 6.19273L3.67859 6.0643L3.47141 6.06492L3.40578 5.85367L3.34109 6.06492L3.13391 6.0643L3.30172 6.19273L3.23609 6.40273ZM4.46609 6.40273L4.63578 6.27211L4.80578 6.40273L4.74016 6.19273L4.90891 6.0643L4.69953 6.06492L4.63578 5.85367L4.57141 6.06492L4.36266 6.0643L4.53203 6.19273L4.46609 6.40273ZM5.70047 6.40273L5.87047 6.27211L6.04016 6.40273L5.97453 6.19273L6.14359 6.0643L5.93453 6.06492L5.87016 5.85367L5.80578 6.06492L5.59734 6.0643L5.76609 6.19273L5.70047 6.40273ZM1.47172 6.95148L1.64141 6.82117L1.81109 6.95148L1.74578 6.7418L1.91453 6.61273H1.70578L1.64109 6.40273L1.57766 6.61273H1.36828L1.53734 6.7418L1.47172 6.95148ZM2.59516 6.95148L2.76484 6.82117L2.93453 6.95148L2.86891 6.7418L3.03766 6.61273H2.82766L2.76484 6.40273L2.70016 6.61273H2.49172L2.66078 6.7418L2.59516 6.95148ZM3.83422 6.95148L4.00359 6.82117L4.17328 6.95148L4.10766 6.7418L4.27672 6.61273H4.06828L4.00359 6.40273L3.93891 6.61273H3.73016L3.89922 6.7418L3.83422 6.95148ZM5.06359 6.95148L5.23359 6.82117L5.40359 6.95148L5.33703 6.7418L5.50641 6.61273H5.29797L5.23328 6.40273L5.16922 6.61273H4.96047L5.12953 6.7418L5.06359 6.95148ZM6.29953 6.95148L6.46797 6.82117L6.63766 6.95148L6.57141 6.7418L6.74078 6.61273H6.53266L6.46766 6.40273L6.40359 6.61273H6.19484L6.36391 6.7418L6.29953 6.95148ZM6.99547 6.40273L7.16516 6.27211L7.33516 6.40273L7.26922 6.19273L7.43797 6.0643L7.23078 6.06492L7.16484 5.85367L7.10047 6.06492L6.89016 6.0643L7.06109 6.19273L6.99547 6.40273ZM0.857344 7.50023L1.02734 7.36992L1.19703 7.50023L1.13109 7.29086L1.30016 7.16211L1.09141 7.16273L1.02672 6.95148L0.962969 7.16273L0.753906 7.16211L0.922969 7.29086L0.857344 7.50023ZM1.98078 7.50023L2.15047 7.36992L2.32047 7.50023L2.25453 7.29086L2.42328 7.16211L2.21516 7.16273L2.15016 6.95148L2.08609 7.16273L1.87766 7.16211L2.04609 7.29086L1.98078 7.50023ZM3.21984 7.50023L3.38953 7.36992L3.55922 7.50023L3.49359 7.29086L3.66234 7.16211L3.45266 7.16273L3.38922 6.95148L3.32484 7.16273L3.11641 7.16211L3.28547 7.29086L3.21984 7.50023ZM4.44984 7.50023L4.61922 7.36992L4.78922 7.50023L4.72453 7.29086L4.89234 7.16211L4.68359 7.16273L4.61922 6.95148L4.55484 7.16273L4.34641 7.16211L4.51516 7.29086L4.44984 7.50023ZM5.68391 7.50023L5.85391 7.36992L6.02359 7.50023L5.95891 7.29086L6.12672 7.16211L5.91797 7.16273L5.85359 6.95148L5.78953 7.16273L5.58078 7.16211L5.74953 7.29086L5.68391 7.50023ZM1.45516 8.04898L1.62484 7.91898L1.79453 8.04898L1.72922 7.84086L1.89766 7.71148H1.68891L1.62453 7.50023L1.56047 7.71148H1.35172L1.52078 7.84086L1.45516 8.04898ZM2.57859 8.04898L2.74828 7.91898L2.91797 8.04898L2.85234 7.84086L3.02109 7.71148H2.81203L2.74797 7.50023L2.68359 7.71148H2.47484L2.64422 7.84086L2.57859 8.04898ZM3.81797 8.04898L3.98703 7.91898L4.15703 8.04898L4.09016 7.84086L4.26016 7.71148H4.05172L3.98703 7.50023L3.92266 7.71148H3.71391L3.88297 7.84086L3.81797 8.04898ZM5.04641 8.04898L5.21703 7.91898L5.38703 8.04898L5.32141 7.84086L5.48984 7.71148H5.28141L5.21672 7.50023L5.15266 7.71148H4.94391L5.11297 7.84086L5.04641 8.04898ZM6.28078 8.04898L6.45141 7.91898L6.62141 8.04898L6.55547 7.84086L6.72484 7.71148H6.51641L6.45141 7.50023L6.38703 7.71148H6.17828L6.34734 7.84086L6.28078 8.04898ZM6.97891 7.50023L7.14859 7.36992L7.31828 7.50023L7.25266 7.29086L7.42172 7.16211L7.21203 7.16273L7.14828 6.95148L7.08391 7.16273L6.87453 7.16211L7.04453 7.29086L6.97891 7.50023ZM0.857344 8.59805L1.02734 8.46898L1.19703 8.59805L1.13109 8.38836L1.30016 8.25961L1.09141 8.26023L1.02672 8.04898L0.962969 8.26023L0.753906 8.25961L0.922969 8.38836L0.857344 8.59805ZM1.98078 8.59805L2.15047 8.46898L2.32047 8.59805L2.25453 8.38836L2.42328 8.25961L2.21516 8.26023L2.15016 8.04898L2.08609 8.26023L1.87766 8.25961L2.04609 8.38836L1.98078 8.59805ZM3.21984 8.59805L3.38953 8.46898L3.55922 8.59805L3.49359 8.38836L3.66234 8.25961L3.45266 8.26023L3.38922 8.04898L3.32484 8.26023L3.11641 8.25961L3.28547 8.38836L3.21984 8.59805ZM4.44984 8.59805L4.61922 8.46898L4.78922 8.59805L4.72453 8.38836L4.89234 8.25961L4.68359 8.26023L4.61922 8.04898L4.55484 8.26023L4.34641 8.25961L4.51516 8.38836L4.44984 8.59805ZM5.68391 8.59805L5.85391 8.46898L6.02359 8.59805L5.95891 8.38836L6.12672 8.25961L5.91797 8.26023L5.85359 8.04898L5.78953 8.26023L5.58078 8.25961L5.74953 8.38836L5.68391 8.59805ZM1.45516 9.14711L1.62484 9.01648L1.79453 9.14711L1.72922 8.93711L1.89766 8.80961H1.68891L1.62453 8.59805L1.56047 8.80961H1.35172L1.52078 8.93711L1.45516 9.14711ZM2.57859 9.14711L2.74828 9.01648L2.91797 9.14711L2.85234 8.93711L3.02109 8.80961H2.81203L2.74797 8.59805L2.68359 8.80961H2.47484L2.64422 8.93711L2.57859 9.14711ZM3.81797 9.14711L3.98703 9.01648L4.15703 9.14711L4.09016 8.93711L4.26016 8.80961H4.05172L3.98703 8.59805L3.92266 8.80961H3.71391L3.88297 8.93711L3.81797 9.14711ZM5.04641 9.14711L5.21703 9.01648L5.38703 9.14711L5.32141 8.93711L5.48984 8.80961H5.28141L5.21672 8.59805L5.15266 8.80961H4.94391L5.11297 8.93711L5.04641 9.14711ZM6.28078 9.14711L6.45141 9.01648L6.62141 9.14711L6.55547 8.93711L6.72484 8.80961H6.51641L6.45141 8.59805L6.38703 8.80961H6.17828L6.34734 8.93711L6.28078 9.14711ZM6.97891 8.59805L7.14859 8.46898L7.31828 8.59805L7.25266 8.38836L7.42172 8.25961L7.21203 8.26023L7.14828 8.04898L7.08391 8.26023L6.87453 8.25961L7.04453 8.38836L6.97891 8.59805Z"
    fill="white" />
</svg>
  