<svg width="20" height="20" viewBox="0 0 20 20" fill="none" xmlns="http://www.w3.org/2000/svg">
  <path
    d="M20 14.9996C20 15.5889 19.7659 16.1542 19.3491 16.5709C18.9324 16.9877 18.3671 17.2218 17.7778 17.2218H2.22222C1.63285 17.2218 1.06762 16.9877 0.650874 16.5709C0.234126 16.1542 0 15.5889 0 14.9996V4.99957C0 4.4102 0.234126 3.84496 0.650874 3.42822C1.06762 3.01147 1.63285 2.77734 2.22222 2.77734H17.7778C18.3671 2.77734 18.9324 3.01147 19.3491 3.42822C19.7659 3.84496 20 4.4102 20 4.99957V14.9996Z"
    fill="#C60A1D" />
  <path d="M0 6.66699H20V13.3337H0V6.66699Z" fill="#FFC400" />
  <path
    d="M5 9.44434V11.111C5 11.553 5.17559 11.977 5.48816 12.2895C5.80072 12.6021 6.22464 12.7777 6.66667 12.7777C7.10869 12.7777 7.53262 12.6021 7.84518 12.2895C8.15774 11.977 8.33333 11.553 8.33333 11.111V9.44434H5Z"
    fill="#EA596E" />
  <path d="M6.66797 8.88867H8.33464V10.5553H6.66797V8.88867Z" fill="#F4A2B2" />
  <path d="M5 8.88867H6.66667V10.5553H5V8.88867Z" fill="#DD2E44" />
  <path
    d="M6.66667 8.88932C7.58714 8.88932 8.33333 8.51623 8.33333 8.05599C8.33333 7.59575 7.58714 7.22266 6.66667 7.22266C5.74619 7.22266 5 7.59575 5 8.05599C5 8.51623 5.74619 8.88932 6.66667 8.88932Z"
    fill="#EA596E" />
  <path
    d="M6.66667 8.05599C7.58714 8.05599 8.33333 7.86944 8.33333 7.63932C8.33333 7.4092 7.58714 7.22266 6.66667 7.22266C5.74619 7.22266 5 7.4092 5 7.63932C5 7.86944 5.74619 8.05599 6.66667 8.05599Z"
    fill="#FFAC33" />
  <path
    d="M3.89062 8.88867H4.44618V12.7776H3.89062V8.88867ZM8.89062 8.88867H9.44618V12.7776H8.89062V8.88867Z"
    fill="#99AAB5" />
  <path
    d="M3.33203 12.2219H4.9987V12.7775H3.33203V12.2219ZM8.33203 12.2219H9.9987V12.7775H8.33203V12.2219ZM3.88759 8.33301H4.44314V8.88856H3.88759V8.33301ZM8.88759 8.33301H9.44314V8.88856H8.88759V8.33301Z"
    fill="#66757F" />
</svg>
  