<svg width="20" height="20" viewBox="0 0 20 20" fill="none" xmlns="http://www.w3.org/2000/svg">
  <path
    d="M20 14.9996C20 15.5889 19.7659 16.1542 19.3491 16.5709C18.9324 16.9877 18.3671 17.2218 17.7778 17.2218H2.22222C1.63285 17.2218 1.06762 16.9877 0.650874 16.5709C0.234126 16.1542 0 15.5889 0 14.9996V4.99957C0 4.4102 0.234126 3.84496 0.650874 3.42822C1.06762 3.01147 1.63285 2.77734 2.22222 2.77734H17.7778C18.3671 2.77734 18.9324 3.01147 19.3491 3.42822C19.7659 3.84496 20 4.4102 20 4.99957V14.9996Z"
    fill="#009B3A" />
  <path d="M18.1809 9.99989L9.99863 16.1799L1.81641 9.99989L9.99863 3.81934L18.1809 9.99989Z"
    fill="#FEDF01" />
  <path
    d="M9.98622 13.5457C11.9677 13.5457 13.574 11.9394 13.574 9.9579C13.574 7.97642 11.9677 6.37012 9.98622 6.37012C8.00474 6.37012 6.39844 7.97642 6.39844 9.9579C6.39844 11.9394 8.00474 13.5457 9.98622 13.5457Z"
    fill="#002776" />
  <path
    d="M6.81865 8.27057C6.63225 8.62169 6.50605 9.00159 6.44531 9.39445C8.66476 9.23334 11.677 10.445 12.9698 11.9472C13.1931 11.6117 13.3586 11.2361 13.4603 10.8339C11.8648 9.2739 9.06198 8.26168 6.81865 8.27057Z"
    fill="#CBE9D4" />
  <path
    d="M6.66797 10.1299H7.22352V10.6854H6.66797V10.1299ZM7.22352 11.241H7.77908V11.7965H7.22352V11.241Z"
    fill="#88C9F9" />
  <path
    d="M8.33203 10.1297H8.88759V10.6852H8.33203V10.1297ZM9.44314 10.6852H9.9987V11.2408H9.44314V10.6852ZM11.6654 11.7963H12.2209V12.3519H11.6654V11.7963ZM9.9987 12.3519H10.5543V12.9074H9.9987V12.3519ZM11.6654 9.01855H12.2209V9.57411H11.6654V9.01855Z"
    fill="#55ACEE" />
  <path d="M10.5547 11.2402H11.1102V11.7958H10.5547V11.2402Z" fill="#3B88C3" />
</svg>
  