<svg width="20" height="21" viewBox="0 0 20 21" fill="none" xmlns="http://www.w3.org/2000/svg">
  <g clip-path="url(#clip0_5974_101572)">
    <path
      d="M3.66406 4.97656C3.48047 5.01953 3.59766 5.01172 3.44531 5.03125C2.79297 5.17188 3.27734 5.29688 3.66406 4.97656ZM15.1367 5.23828C15.1836 5.20703 15.3477 5.04688 14.8359 4.89062C14.8672 5.05078 14.7305 5.03516 14.7305 5.125C15.1094 5.46875 15.2656 6.06641 15.75 6.19141C15.8438 5.76172 15.3203 5.55078 15.1367 5.23828ZM3.31641 4.85156C3.375 5.19922 3.63672 4.48438 3.64062 4.23047C3.53906 4.28906 3.4375 4.34766 3.33203 4.39453C3.57813 4.51953 3.36328 4.65234 3.09766 4.85156C2.55859 5.52344 3.60156 4.32812 3.31641 4.85156ZM10 0.5C4.47656 0.5 0 4.97656 0 10.5C0 16.0195 4.47656 20.5 10 20.5C15.5234 20.5 20 16.0195 20 10.5C20 4.97656 15.5234 0.5 10 0.5ZM10.2656 3.85156L10.3125 3.86719C10.125 4.10937 11.2891 4.81641 10.4531 4.875C9.67188 5.09766 10.7812 4.67188 10.1758 4.74609C10.4961 4.30078 9.92187 4.29297 10.2656 3.85156ZM5.52344 4.49219C5.24219 4.25781 4.35938 4.8125 4.66797 4.67969C5.43359 4.37891 4.71875 4.71094 4.89844 5.07031C4.73438 5.41016 4.84375 4.73438 4.4375 5.13672C4.14453 5.20312 3.42578 5.86719 3.51562 5.66406C3.49219 5.98047 2.66016 6.35547 2.54688 6.88281C2.27344 7.61328 2.48047 6.85547 2.42969 6.57031C2.03906 6.07422 1.32812 7.41016 1.53906 7.9375C1.89453 7.3125 1.86719 7.87109 1.60938 8.14844C1.87109 8.62891 1.37109 9.25391 1.86719 9.60938C2.08594 9.66016 2.52344 8.875 2.33203 9.69141C2.46484 8.98438 2.69922 9.85938 3.07812 9.66406C3.10156 10.0352 3.33203 9.86328 3.38281 10.3125C4.01562 10.2656 4.59375 11.3359 3.83984 11.5391C3.95313 11.5078 4.17578 11.707 4.43359 11.5547C4.87109 11.9023 6.02344 11.9453 6.05469 12.8047C5.26172 13.1836 5.85938 14.2227 5.17188 14.5938C4.38281 14.4766 4.90234 15.5664 4.57031 15.4414C4.70312 16.2266 3.77344 15.3398 4.13281 15.7734C4.79297 16.1797 3.84375 16.0977 4.14062 16.3945C3.80859 16.3242 4.34766 17.0117 4.4375 17.2656C4.91406 18.0391 4.02734 17.0938 3.76562 16.8359C3.51562 16.3359 2.92578 15.3789 2.76172 14.5938C2.66797 13.4531 1.78516 12.6875 1.58203 11.5742C1.37891 10.9531 2.14062 9.95703 1.73047 9.60938C1.375 9.33203 1.51953 8.38281 1.30859 7.88281C1.83594 5.59766 3.51172 3.67188 5.52344 2.53125C5.31641 2.68359 6.70703 2.13672 6.54688 2.26953C6.50391 2.36719 7.35938 1.89844 7.875 1.82812C7.82031 1.83594 6.53516 2.29688 6.89062 2.23438C6.33984 2.50391 6.83594 2.35156 7.10938 2.21484C6.5625 2.61719 6.14062 2.50391 5.51953 2.85938C4.89453 3.02344 5.02344 3.67188 4.57812 3.99609C4.83984 4.04297 5.49609 3.32031 5.87891 3.06641C6.75781 2.64062 5.43359 3.83984 6.26953 3.32422C5.98828 3.58594 6.04688 4.00391 5.875 4.12109C5.78906 4.09766 6.21484 4.32422 5.52344 4.49219ZM6.89062 2.69531C6.80078 2.81641 6.67578 3.07812 6.60156 2.91797C6.5 2.96875 6.46094 3.1875 6.26953 3.01172C6.38281 2.92969 6.5 2.73438 6.27734 2.85547C6.37891 2.74609 7.28516 2.4375 7.23438 2.32031C7.39453 2.21875 7.37891 2.16797 7.19531 2.23047C7.10156 2.19922 7.41797 1.93359 7.83984 1.89844C7.89844 1.89844 7.92188 1.9375 7.81641 1.92578C7.17969 2.12109 7.45312 2.06641 7.88281 1.92578C7.71875 2.01953 7.60547 2.04688 7.57812 2.08984C8.00781 1.93359 7.55469 2.20312 7.65234 2.18359C7.53125 2.24609 7.67188 2.26562 7.4375 2.35547C7.48047 2.32031 7.05469 2.60938 7.30859 2.52344C7.0625 2.75781 6.95312 2.76172 6.89062 2.69531ZM7.26562 3.25391C7.27344 2.87891 7.8125 2.64062 7.74609 2.62109C8.41016 2.30859 7.51562 2.63281 8.03906 2.35156C8.23438 2.33203 8.64844 1.70703 9.22266 1.66797C9.85547 1.47656 9.5625 1.67969 10.0312 1.5L9.9375 1.57812C9.85547 1.58984 9.95703 1.73438 9.66016 1.95312C9.62891 2.29297 9.09375 2.13672 9.35938 2.5C9.1875 2.25391 8.92969 2.49219 9.25391 2.51562C8.90625 2.78125 8.09766 2.82812 7.71094 3.26953C7.46094 3.62891 7.23047 3.51562 7.26562 3.25391ZM10.043 4.50391C9.77734 5.14453 9.51953 4.41016 9.98828 4.29297C10.1055 4.35547 10.1523 4.375 10.043 4.50391ZM9.04297 3.22266C8.96484 2.93359 9.02734 3.08594 9.49219 2.94922C9.8125 3.17969 9.20703 3.33203 9.04297 3.22266ZM16.3164 14.6875C15.9492 14.0547 16.7617 13.4688 17.0352 12.9375C17 13.5586 16.9219 14.1719 16.3164 14.6875ZM17.6992 7.45703C17.3008 7.48828 16.9414 7.58203 16.582 7.35547C15.7539 6.44922 16.7344 8.37891 17.0078 7.58984C17.9922 7.96484 16.9922 9.58203 16.3711 9.41406C16.0234 8.66406 15.5937 7.83984 14.8359 7.47266C15.418 8.11719 15.707 8.91016 16.332 9.49219C16.375 10.3047 17.1992 9.19531 17.1484 9.82422C17.2266 10.9062 15.9258 11.5547 16.1523 12.6406C16.6367 13.6289 15.2188 13.8086 15.3789 14.6953C14.8086 15.332 14.1992 16.1914 13.1758 16.0547C13.1758 15.5156 12.9023 15.0586 12.8398 14.5039C12.2852 13.8008 13.4258 13.0469 12.7188 12.3125C11.9023 12.1289 12.8867 11.0039 12.0469 11.1094C11.543 10.6055 10.8047 11.0937 10.082 11.0977C9.17578 11.1836 8.24219 9.98438 8.64453 9.13672C8.32422 8.25391 9.66016 7.99609 9.69531 7.21875C10.3359 6.68359 11.2461 6.75 12.1133 6.625C12.0508 7.24609 12.707 7.25 13.2031 7.45703C13.4805 6.78516 14.3437 7.56641 14.9336 7.14062C15.1367 6.14844 14.3594 6.74609 13.9141 6.42969C13.375 5.64062 15.0664 6.02344 14.8906 5.60938C14.2344 5.60547 14.6055 4.80078 14.1406 5.25C14.5586 5.32422 14.0664 5.65234 14.0781 5.27734C13.4453 5.09375 14.0547 5.99609 13.7344 6.08203C13.2461 5.87891 13.4766 6.3125 13.5273 6.37891C13.3164 6.83594 13.0586 5.70703 12.4609 5.73828C11.8672 5.19531 12.2266 5.98438 12.7422 6.11328C12.6328 6.14453 12.8047 6.59375 12.668 6.40234C12.2422 5.81641 11.4336 5.42578 10.9531 6.14453C10.9023 6.81641 9.53516 7.00781 9.75391 6.22266C9.43359 5.41016 10.7461 6.19922 10.625 5.55078C9.78125 4.99219 10.8555 5.17188 11.1406 4.64844C11.7891 4.66797 11.168 4.11719 11.4727 3.95703C11.4414 4.55469 11.9688 4.44141 12.3867 4.32812C12.2852 3.98438 12.6367 3.99609 12.4219 3.71094C13.3906 3.32422 11.6836 3.89062 12.0273 3.04297C11.6094 2.75391 11.8516 3.67969 12.0273 3.77734C12.0391 4.0625 11.7969 4.41406 11.4648 3.81641C10.9805 4.13281 11.0312 3.49609 11 3.5625C10.9453 3.31641 11.3672 3.30469 11.3711 2.875C11.3359 2.60156 11.3438 2.45703 11.5391 2.44141C11.5547 2.48047 12.3398 2.49219 12.6172 2.81641C11.8594 2.66406 12.5039 2.94141 12.8438 3.09766C12.4805 2.8125 12.9883 3.09766 12.6914 2.77344C12.8086 2.79688 12.3672 2.32812 12.8203 2.73828C12.5742 2.44531 13.3008 2.53125 12.8711 2.3125C13.5 2.48828 13.1289 2.32812 12.7578 2.16797C11.7344 1.55859 14.5664 2.99219 13.4102 2.35547C14.1484 2.51562 11.832 1.78516 12.8867 2.10547C12.4844 1.92969 12.875 2.02734 13.2383 2.14062C12.5859 1.9375 11.6094 1.55859 11.6484 1.54297C11.875 1.55859 12.0977 1.60938 12.3125 1.67188C12.9805 1.87109 12.1211 1.625 12.3047 1.62891C14.6016 2.21875 16.6133 3.75781 17.8359 5.76953C18.1211 6.07031 18.8984 8.05859 18.4922 7.17578C18.6758 7.87891 18.7031 8.63672 18.8008 9.35547C18.5977 9.12891 18.3711 8.29297 18.1758 7.82812C18.0938 8.00781 18 7.57422 17.6992 7.45703Z"
      fill="#666666" />
  </g>
  <defs>
    <clipPath id="clip0_5974_101572">
      <rect width="20" height="20" fill="white" transform="translate(0 0.5)" />
    </clipPath>
  </defs>
</svg>
  